<mxfile host="65bd71144e">
    <diagram id="ub26EWWYHZ2ObuOOEJtO" name="Page-1">
        <mxGraphModel dx="5096" dy="3500" grid="1" gridSize="10" guides="1" tooltips="1" connect="1" arrows="1" fold="1" page="1" pageScale="1" pageWidth="827" pageHeight="1169" math="0" shadow="0">
            <root>
                <mxCell id="0"/>
                <mxCell id="1" parent="0"/>
                <mxCell id="265" value="" style="rounded=0;whiteSpace=wrap;html=1;strokeColor=#FFFFFF;fillColor=default;flipH=1;flipV=1;" parent="1" vertex="1">
                    <mxGeometry x="-350" y="-1220" width="1890" height="1580" as="geometry"/>
                </mxCell>
                <mxCell id="393" value="" style="rounded=1;whiteSpace=wrap;html=1;fillColor=#1E2745;" parent="1" vertex="1">
                    <mxGeometry x="530" y="-1000" width="550" height="1270" as="geometry"/>
                </mxCell>
                <mxCell id="349" style="edgeStyle=none;rounded=1;html=1;exitX=0;exitY=0.75;exitDx=0;exitDy=0;entryX=0.75;entryY=1;entryDx=0;entryDy=0;entryPerimeter=0;fontColor=default;" parent="1" source="277" target="340" edge="1">
                    <mxGeometry relative="1" as="geometry">
                        <Array as="points">
                            <mxPoint x="-92" y="-280"/>
                        </Array>
                    </mxGeometry>
                </mxCell>
                <mxCell id="354" value="5. Originalbild herunterladen (Azure Blob Storage SDK)" style="edgeLabel;html=1;align=center;verticalAlign=middle;resizable=0;points=[];fontColor=default;" parent="349" vertex="1" connectable="0">
                    <mxGeometry x="-0.6747" relative="1" as="geometry">
                        <mxPoint x="-171" y="-2" as="offset"/>
                    </mxGeometry>
                </mxCell>
                <mxCell id="306" style="edgeStyle=none;html=1;entryX=0;entryY=0.75;entryDx=0;entryDy=0;startArrow=classicThin;startFill=1;endArrow=none;endFill=0;exitX=0.25;exitY=0;exitDx=0;exitDy=0;rounded=1;" parent="1" source="302" target="268" edge="1">
                    <mxGeometry relative="1" as="geometry">
                        <mxPoint x="240" y="-330" as="sourcePoint"/>
                        <Array as="points">
                            <mxPoint x="90" y="-546"/>
                        </Array>
                    </mxGeometry>
                </mxCell>
                <mxCell id="307" value="3. Nachricht mit Blob-URL und Callback URL senden (Azure SDK AMQP)" style="edgeLabel;html=1;align=center;verticalAlign=middle;resizable=0;points=[];" parent="306" vertex="1" connectable="0">
                    <mxGeometry x="-0.1565" relative="1" as="geometry">
                        <mxPoint x="157" as="offset"/>
                    </mxGeometry>
                </mxCell>
                <mxCell id="308" style="edgeStyle=none;html=1;entryX=0;entryY=0.25;entryDx=0;entryDy=0;startArrow=classicThin;startFill=1;endArrow=none;endFill=0;exitX=0.516;exitY=0.006;exitDx=0;exitDy=0;exitPerimeter=0;" parent="1" source="302" target="272" edge="1">
                    <mxGeometry relative="1" as="geometry">
                        <Array as="points">
                            <mxPoint x="104" y="-450"/>
                        </Array>
                        <mxPoint x="260" y="-330" as="sourcePoint"/>
                    </mxGeometry>
                </mxCell>
                <mxCell id="315" value="4. Nachricht abrufen (Azure SDK AMQP)" style="edgeLabel;html=1;align=center;verticalAlign=middle;resizable=0;points=[];" parent="308" vertex="1" connectable="0">
                    <mxGeometry x="-0.1297" relative="1" as="geometry">
                        <mxPoint x="113" y="-1" as="offset"/>
                    </mxGeometry>
                </mxCell>
                <mxCell id="310" style="edgeStyle=none;html=1;exitX=1;exitY=0.25;exitDx=0;exitDy=0;startArrow=classic;startFill=1;endArrow=none;endFill=0;entryX=-0.012;entryY=0.226;entryDx=0;entryDy=0;entryPerimeter=0;" parent="1" source="302" target="277" edge="1">
                    <mxGeometry relative="1" as="geometry">
                        <mxPoint x="790" y="-316" as="targetPoint"/>
                    </mxGeometry>
                </mxCell>
                <mxCell id="317" value="4. Nachricht abrufen (Azure SDK AMQP)" style="edgeLabel;html=1;align=center;verticalAlign=middle;resizable=0;points=[];" parent="310" vertex="1" connectable="0">
                    <mxGeometry x="-0.3565" y="-1" relative="1" as="geometry">
                        <mxPoint x="80" y="-2" as="offset"/>
                    </mxGeometry>
                </mxCell>
                <mxCell id="314" style="edgeStyle=none;html=1;exitX=0.75;exitY=1;exitDx=0;exitDy=0;entryX=0;entryY=0.25;entryDx=0;entryDy=0;startArrow=classic;startFill=1;endArrow=none;endFill=0;" parent="1" source="302" target="291" edge="1">
                    <mxGeometry relative="1" as="geometry">
                        <Array as="points">
                            <mxPoint x="117" y="-180"/>
                        </Array>
                    </mxGeometry>
                </mxCell>
                <mxCell id="318" value="4. Nachricht abrufen (Azure SDK AMQP)" style="edgeLabel;html=1;align=center;verticalAlign=middle;resizable=0;points=[];" parent="314" vertex="1" connectable="0">
                    <mxGeometry x="0.0991" relative="1" as="geometry">
                        <mxPoint x="43" y="-2" as="offset"/>
                    </mxGeometry>
                </mxCell>
                <mxCell id="322" value="KEDA - Skaliert die Anzahl der Pods&#10;auf Basis der Anzahl der Nachrichten in der &#10;Azure Bus Service Queue" style="shape=image;verticalLabelPosition=bottom;labelBackgroundColor=default;verticalAlign=top;aspect=fixed;imageAspect=0;image=data:image/png,iVBORw0KGgoAAAANSUhEUgAAAnEAAAJxCAYAAAAtjeQ4AAAAGXRFWHRTb2Z0d2FyZQBBZG9iZSBJbWFnZVJlYWR5ccllPAAAVbpJREFUeNrs3Q2QHGl95/l/ZlW33qWaVzHSwJQwY2CNUc+we8TtXqxKEXe354h1RMsbYBvWQbeBGdizkGQwZm2DWgZzPmNQC+EFBox6DvO+azV4z3bsXlgl7gy290bTmuEwMwOoNC/SvEqtVr9WV+Vzz1OVrenR9Ft1Z+bzZOb3Y1eUhhl1VT+Z+Ty/fPJ5EQEAAAAAAAAAAAAAAAAAAAAAAAAAAAAAAAAAAAAAAAAAAAAAAAAAAAAAAAAAAAAAAAAAAAAAAAAAAAAAAAAAAAAAAAAAAAAAAAAAAAAAAAAAAAAAAAAAAAAAAAAAAAAAAAAAAAAAAAAAAAAAAAAAAAAAAAAAAAAAAAAAAICbPIoAgOvu3n+hot969Gu3fpXnvZZSm/c6q18jZ47vqFKaAAhxABBfaDMBrVe/9oTvURrWr9PmXYe6GqUNgBAHAGsLbqUwsB2Qdq9bEkb061gY6EY5CgAIcQDQWXg7GIa3kqWvMRqGuUHCHABCHAC4H94IcwAIcQDQQYDr029HHQpvC4W5QzrIDXG0ABDiABDe2hMWTuhXJSVfuapf/UyAAECIA5DnANcbBrhSyr76aBjkhjmKAFziUwQAEghw5tHpyRQGOAm/88nwdwAAZ9ATByDO8FYKw1slI79SVb/2MekBACEOQNYD3ClJbs23pJi15fYS5AAQ4gAQ4AhyAECIA0CAI8gByAMmNgCI2skcBDgJf8eTHG4AhDgAqRfO4Kzk6FeuMGsVgC08TgUQVYAz68DltWdqH+vIASDEAUhjgCvrtwclnevARcGMi7uLnR0AJInHqQCikMadGKJUCssAAAhxANIh3My+Qkm0xsf1UQwAksLjVABrCXCmB+qc5LsXbj7zWHUXy44ASAI9cQDW4iAB7iVKYZkAQOzoiQOwKvTCLYreOACJoCcOwGrRC7cweuMAJIKeOAAdoxduWfTGAYgdPXEAVqOXALekUlhGAECIA+CUAxQBZQTALh6nAuhIuDvDOUpiRXaxiwOAuNATB6BTPCakrAAQ4gCk0B6KgLICQIgDkD70LlFWAAhxANLk7v0XKpRCZ/7V713soxQAEOIAWHPoC8+Wt9/gMeOyQ1s3eSd02Z3SL8IcgEgxOxXAsuFNvx3Wr75Hngjk6csBhdKBV9zgy2tfee1+uaZfR46++9YhSgYAIQ5A7OFt7n87+9OmjI4rCqcDpc2e7H514fr/uRXm9GtYBzp2dQBAiAMQSXirSHuh2pcNyv/7HzVluk6I68T6bk/e/LrCYv/aBLhj+jVImANAiAOwlvBmet4qi/03px9qUFCrsOeNxeX+E8IcAEIcgI7Dm+lxO7BUeCPExR7i5huS9ri5GiUHgBAHYKHw1iftnrfySv8OIS6REEeYA0CIAxBNeCPErc2bX1eU9d2r/uvD+nVMh7kqJQmAEAfkL7iVpD3L9MBqwpsxXTcTGwhxq7HKnrjrmRB3hDAHgBAH5Ce8HQzDW2mtP4+eOKshbn6Yu5+15gAQ4gDCGyEuXSFuTk1YOBggxAHISHi77+UL9Ebp9MOEuFWFuJ8vxvnjW2FOzMLB97A8CUCIA0B4W8DfP8Jiv51qLfb72kISH/XiWnOEOYAQB8BtB+9rLdD7jrjD25yHzLZbE4S4TpQ2efLGVxeS/MhrYW6QMAcQ4gA4Gd6W3F0hDo88GcgzlwMOQAe23+DLa2/3bXy0CXBmeZIjOszVOBIAIQ5ADsPbnKeeD+QnFwlxnfiZ23zZebNv+2sMEeYAQhwAO+GtT9ozTXtsfo8rE0rO/rTJAenA7lcXZNsmZ6paE+bu12GuypEBCHEA4g9vq9pdIS7fZYZqR/5lvDNTV8uEuCOEOYAQByDa4GbWdet1LbzN+f/ON+WFMSY3rMRNWz35uTsKLn9FE+KO6TA3zNECCHEA1hbeIl+gN2qMi1s5R8bDrURN2j1zQxw1gBAHIGPhbY7ZQ/UfHuGR6kr8d69d08b3hDkAhDjA0fBWDoNbXxrC23xnHmvK+DSPVJeyeb0nd99ZSOvXZ605gBAHYJHwFvvuCnF65rKSR55klupSXnt7QbbfkPoqljAHEOIAZCG8zWk0249UG+S4BRUL7UepxUJmfiUWDgYIcUAOw9vnn63oK83aAr1xOf9MIOefZYLDQu641Zc7tvtZ/fWGROkwdy9hDiDEAVkOb5K98Dan1Rv3KL1x12v1wv1spnrhFg9zZuHge1lrDiDEAdkJb33S3pS+kvXf1fTE0Rv3Uq1euFv9PP3KJsQdIcwBhDgg7eHNyQV640Jv3EvlqBdusTB3TIc5Fg4GCHFAWsLbM2F488p5/P2fGQ3kkSfpjTNee7sv20t+zktB1aTVM7d9iDMCIMQBLga3uQV6zWPTct7L46FzgYxO5HvduNImT964y+fieBFhDiDEAe448GJ4O+ClbIHeOE3VpfbfHm2a8shrmYzecau/745bPRPq+zgjXqTmrTV37N7trDUHEOKAxMNbOWycU7E1VoJq+nVEN85Dd++/0Kv/fDKn5bDvzPEdw/POlUysBxh10CXMAYQ4IOnwRoO8RHib/z/qIHdU2j2VeTKoA9whgn9HYW44PH9qFAdAiAMIb8moho1vdbH/QAe5U5KD5VXmykMHuL3LnEvXHsET5l5miDAHEOKAqMKbCR+Ma1pFeJsX4kxQMUGuJ+NlMqJfe3WIG13huVWSF3vmypxSLwtz96/k/AJAiAMWCm+Z3V0h6cY1B0GuowC3wPnWJzlbUzDqmwUAhDgQ3ghvi4e3NT3mynCQW1OAWyDMHZDs91quJswd0+cfCwcDhDhgwcaTnpAYwtsCQe5khkKyCRf7oghw3EysSE0WmEADgBAHwhva5pZ+GIprgHlGZq0uOAuVMEeYAwhxQHwNIwPKlw5viazbFa4jd0LSN0PTlE3/3DpwCZ2zZWF2tPVzFiDEAbbC2+dY2mERNX3l32+jIdRBrhwGuUpKyqoaBriapRuQsijC3JJh7j2EORDiAMJbHsKbeST1HvuPpHSYM6HkqMPHxwSDQzq8DTlyTpeFhYMXO07D4XldozhAiAPSG95MQ2d6LXpp6NwMb9cFORfD9rUenqgnL3CDErshwhwIcUB6w1sfpfESVTFrvL3H7cHgjoQ5p8PbImGuTxjnuViYM+d9laIAIQ5wtyHrCRsxwtvLw9uRtDViYZjrlWTXTRsJw9twGsLbItdBnzDjOjPXAUCIQ9bDW0VYhiHTjVY4AcIEuj3he5TMGKrTYXCrZei66BMWDl7sujimrwsWDgYhDrDlfYS3xQyZ8PbpDI8F0qGuEoaT3dLucZp7LaU273VWv0Z0aKtyneRWLbxOhigKEOKA5BqlPmlvSk+jlLPw1kHIM49iS1nqWSPMEeYAQhzSHt4Y6/NSo2F4O0Z4wwqvI8aOLh7mWuslfpq15kCIAwhvMYe3YzQ4WMN1VRZmcXNtgRAHxNDAsP4VDQySC3NzPXNcay+91oaEXm4Q4gDC2xqZRuSIfg0T3sC1lzgT5hhvCkIcQG9A5+GNQdewEObM5KEyJfKyMGd65kYoChDiQIPxWR3ePMblLGAkbCwIb7AZ6Mx1yXjUl6uK0jdX72XhYBDikNfwxqDqhRsHoXGAc9crYY7rFYQ40Bi01qoyj017KQ0aA6Ty+mWtuZerhdfvEEUBQhyo/PPDVPr3E97A9UyYAwhxcK2yn9vAnMr+5eHNVPY1igIpvr5ZOHjxMNdeOPi9zCYHIQ7pq9z7hDE0hDfk5XovC2NcF/Liuo6EORDiQHijIgccD3MsFbRwHWBu4I5xAwdCHFyruEthpX2A8EZ4A8I6gYWDF2bCHL3xIMSl3d37L1T0mxlTsjsMP+UVhKDavNdZ/Ro5c3xHlYraKbUwvA0R3kCYY+HgJcKc6ZmzunBw2tshEOKSvFjMhWEG+u+R6JfYGNav0+ZdX0yx3uER3pas2JiZBixcb/QJQy0WUpUElxfKSjsEQlxSwa0UXigHwrudJLRW+w8vpMh6gvaHg5c9Bi8T3gDCXKRUGOaOxxDmstQOgRCXZHiz3Vt1bUzWWi6i/cw8W+oO+piudIcpCqDjeqUirDW36E3h8QhuCrPUDoEQl6fwFslFFFay7yC8LRjeYrljBghzWGuYy1I7BEJckgHOhJ2j4u44MXPhHNIX0BCV6qqYHrdjhDcgljDHwsGLh7nWwsHHVzBRKivtEAhxSYa3sn47kaLQY0JI//UDT/f/B8LbIob0lWHuiGsUBRB7mCuLYvjGIuGn1ZN1/N+9PMxlpR0CIS7pANcbXjilFFYI5gIa1uGtT5Id8Jqe8GYeZ/w7whuQeJj7DywcvETdbeqmY3N1UxbaIQ4rIc5GgDNd1gfT/Dvcss2r/ewOv8zRXLyCBGA1zLGk0RI3mn/7j83RtLdD0h4nd4jDSYhLKryZiuSkZOSx47aNnrzudl+KhdyHt0UfVQBwJsyxcLDWaIr86MlArkyqrPxKVf3ax6QHQlwSAe6UZOzR46b1nrzhVbkMcoQ3IH2Brk9yvNacCXA/eDyQiWmVtV/NrC23lyBHiCPAEeSWU5P2eLchzmyAMEeAI8gR4ghwBDnCG4Dkw1xFcjCzPgcBjiBHiIstxJ2SnCy9YcbIveEOP2u/VlW/7ie8AYS5tPrB+UyNgVu2ztYhbi9nNSEuigCX+lmondpxoye7tmciyJnwZnreqpzJQG7CXOYWDj73TCAXLqm8HUpmrRLi1hzgzPo7J/P4u7/+dl9u3JLaU4LwBhDmypKBfZ8vXVXyj08GeT2M+1hHjhC32gBnKoAHJadrE5lxcT27CrKuK1Vfe0jaa7yNcAYDmBfmUrlw8MysyMi5Zms8XE6ZcXF3sbMDIW41IS434+AWk6LxcSa8sbsCgKXCXOoWDs7ZOLjFMD6OENdxgDN3bCcoCZE7d3hy6zYnTw1zhzbcDm+vILwBWGGYezoVCwc/e0XJYxcUB6zNbM81RDEQ4lYS4MwFfk7Y4qXFPFZ90884tezIvAV6X8EUdABrCXTmht25tebM49MHfhLk+THqQvX+LpYdWaa9pghaDhLgXlqZXLis5JU3ey5cxK3w9hnCG4AI6BvBIf029BuOhTlT5xLgXmKu93SAolhc7nvi6IVbJN0XdNnY642rheFtiPAGIE46zJkVCcyYuYrNG+cz9MItdiNPb9xSbTVFQC/cYpXKxUuJ98aZ8HbkM/9r604ZAGKnbxTNONvh3/iTp02Is7JwsKlrCXALojduGbnuiaMXbpmEP9cbF/9kVcIbACeEYc5MgOhL5IY5oBduGfTGLcHP+e/fS4BbonJpthedjFFVv/bq8LaLAAfABbouqupXvwkO0l7KKFamjiXALakUttVYQN574szCvj2cBovbtF5kdznyrG/Cm+l5q1LCAFz2G3/ydFnaj1ljuek/WzMb3FPOyxg5c3zHXRQDIW5+gDMX5jlOgeWZ5UYi2sXB3NXeT3gDkMIwF/nCwWZ3BrOsCFZkF7s4vFyeH6fSPbtCl8bX/EjVhDfzyLSfAAcgjXTdNapfA9J+zHpE2mO1bNettNk5l+fZqXs4/CtzZVLkthtWHd7MY1PungBkJsxJe7bkwG/8ydrWmjN1KzpqswcphpfK8+NUboE68M9ft+JO27kFeocIbwDyYLVh7ns/4lFqJ84c38EuU4S4VoCr6LdTHP6Ve8OrfNm6cUXhbTC8UwWAvIW5FS8cPDYp8oPHCXEd2quDXJVieFFeH6cyI7VDEzNKh7gFM39Nv+4nvAHIO10HrnjhYFOnYlVtNyGOECe7OfQdhrjpBcMbC/QCwMvDnAka1aUWDmZZEdpuQtzqlTn0nTFT4QlvALCqMGdmsx6eH+bm1amg7SbEcSLEa3rWdP17/YQ3AOg4zJmb3/55Ya5X16nsFkTbvWZ5ndjAYIRVYGYQAKydWTj4ez8KLlMStENr5VMEAAAkh0lgIMQBAAAQ4oDlhfvNAgBAO0SI4wRIEzYfBgDaIdohQhwnAACAIAIQ4gAAAAhxAAAAIMQ5qcahp8wAgDqVMiPEcSJQZgAA6lTKjBDHiUCZAQB1KigzQtxCznLoKTMAoE6lzAhx6TPCoafMAIA6lTJLs9xuJHv3/guKw79ybDoMALRDtENuyfMSI8McfsoKAKhbKStCXPqc5vBTVgBA3UpZEeJI9ZQVAIC6lbIixMUt3LuOQZLLG2GfPwCgHaIdIsS55hinAGUEANSxlBEhLn1M9+wop8GiRoUubACgHaIdIsS55szxHaMk/KXvfsIyAgDQDtEOEeKcM8hd0KJ3P4MUAwDQDtEOEeK4C+LuBwBAO0Q7RIjjLoi7HwCgHaIdIsRxFyRyiJK45hB3PwBAO0Q75Db2IZvn7v0XTum3Ss6LoaovnL2cDQBAO0Q75DZ64l6qX/LdnT0algEAgHaIdogQlx7hitB5Pnn6WRUbAGiHaIcIcWm9gMyignkcTDkY/u4AANoh2qEUYEzcInI2LoHxBwBAO0Q7lDL0xC1un+RjY+KR8HcFANAO0Q6lCD1xS98FlfSbuRPqyfCFs5dp3ABAO0Q7RIjjAuLCAQDQDtEOJYDHqcsITy7znL6aoV+ryoUDALRDtEPpRk9cZ3dDR/XbwZT/Gmb2D6uCAwDtkBW3lUT+z4/uIH8Q4qxcQL0FX042g9R99dYCikzfBoD0t0P67YR+ldL0vXXbKT+z3ZMbNrf+ce9n33dblaO5NjxO7dCb7/RGfv5VnmzdkKqvbS6UuwhwAJB+YV1+l6To8appM03bGQY4o4cjSYizoWddl8jrb/fk1fqOouB2Cc71vu1lBWwAyFSQq4Xrqjm9TZdpI01badpM03bOs4ejSIiz4dqJd8tWfSu0y5Pbb3IuzJkL+oh+7dIX+RCHDAAyG+ZMHb8rrPOdCXOmTTRto2kjTVu5gApHb+0YE9eh93764oOyQDewGSP3tL58Ll5WYnG8nLmAj0l78gIzfgAgR8KlSMykhwNiabycCW+33eDJK0qyks6Nuz77vttGOHKrV6QIOtaz2Im780bRJ64nl8ZNoFMyOZPYdxoJw9sw4Q0A8ims/wd0mDP7rvaGYS6RsWcb17Xbvxs3SydPpnokHztSxIaeuA6899MXK9JecHFFZmZFLk+IjE0puTwe+dcxA1tPh8GtxtEBAFxPB7pyGOj2hO+RMZMUtm7w5IZNcv14t5Ua+uz7buvnKK0ePXGdqXTyH5uT2nQpm7sTY2xKWr1zkzOqFfBmGu2gt9zPWKeP0lRdhmebrdA2okNblUMBAFhOeJM/GL5MqDPtmOkB261f5XmvZdsh875xndfqdYtohYYKR2ht6InrwHuPXTwV50lnxtI1gvbFssCR2qXvWGocBQBAXG3bku1QPG747IHbGAa0SsxO7UysYwvMOIJFLpwaAQ4AEJORFbRDcalQ/IS4JO5UTICztTp2lSMAAIjJaYufzXpxhLjM3y2cpfgBADGp5rRtJcTlyO6cXmAAgAwLx6TZWuqD7bcIcdm+W9AXGOvoAADiZK2dee+xixWKnxAX5wlWlmWmYMeoyhEAAMTM5rg4QhwhLlY9Ob2wAAD5ULX42UxuIMRl9gSrUvwAgDh99kBrGauapY+vcAQIcVk9wRgPBwDIdHsTLuMFQlz0lEiPar8n/RphJWsAQEJt3WlLbZ15VTgChLjIvcfurJkqRwAAkIM2h3FxhLhY2AxxLPILAEjE59rLWdl6+lPhCBDisnZ3UKX4AQAJsjUurvSe9nJeIMRFSEmPpQECtc8dYNN7AECibd5psTcwrsIBIMRF5j2DVje9Z1YqACBpVYufzbg4QlykbN4VsMgvACBRnzt4m80QV+EIEOKixKb3AIC8sdX+lN8zeLFE8RPiUn9XoO+GeJwKALDBZvtTofgJcWum7wbKwqb3AID8sTmch3FxhLhIsOk9ACCPqhY/u0LxE+LSfjdQpfgBADZ87mBru0dbj1TZQ5UQl/q7AcbDAQBsstYOvWfQ6naXhLiMsHU3MBLeBQEAYIvNYT2EOEJcau8CqhwBAIBlNtsiJjcQ4lJ7F8Cm9wAAqz53sLXtYy2HbTAhLgNY5BcAkHc2x8UxwYEQtzpKSUW/xMKrFt79AABguy08baktbLXDHAFCXMfuPcqm9wAACOPiCHEpxCK/AIDc+/whq9s/8jiVEJe69F+l+AEADrHVLpXvPdra/hKEuI5UcnrXAwDA9VgvjhCXDjr1m7FwtpJ/lSMAAHCMzbaJcXGEuNSkfsbDAQCc8vlDt9kMcYyLI8SlJvVXKX4AgINsDfXpCZ+QgRDnfOpnPBwAwEVVi59dofgJca6fLCOfP8Sm9wAAJ9kc7sO4OELc8u49yqb3AAA41kYxLo4QtyI2Qxyb3gMAnBQ+KarlsG0mxKWH2q1fYulVpfwBAA63kVVbbeS9Ry8Q5Ahxzqb92ucP7ahR/AAAh7HoLyHOTTrls+k9AACLq1r8bCY3EOKWxKb3AAAsInxiZGsVBSY3EOKWoHTKtzYcjp44AEAq2sqqpXaydO+nLhDkCHGLqli7u/nNHVWKHwCQAoyLI8S55Z5PXSjpoF+21BFHgAMApIJps+w9tGJcHCHOvXTPeDgAQCrc95s7bA7/4XEqIW5BNtM94+EAAGlStfS55Xs+daFM8RPiXEr3VYofAJAijIsjxDnF1kkxct9v7mDTewBAmlQtfjbj4ghxL7rnU1a38uBRKgAgVe6zu6IC4+IIcS9hM8QxqQEAkEa2OiF6zIoSFD8hbs5ui59d5fQDAKSQzfarQvET4myfDKP3/Sab3gMAUsnmkyTGxRHiWuPhbG56X+XUAwCklM02jHFxhDjrJwLj4QAAqRSurFCz9PEVjgAhrr3pvT3MTAUApFnV1gdbXlmCEOeIiq0N4O5j03sAQJopOS32NlIlxOU5xN3zydYU5XLe7l4AAMhAW8bkhjyHOGF9OAAAVu2+97dWWLC16xCTG3Ie4hgPBwDA2lQtfW7pnk9eIMjlOMSx6T0AAGtj88lSheIXKebxl1YWN73/wvvZ9B4AkIm21OaTpd0cgRz2xL37k2x6DwDAWn3h/VZXWqhwBPL5OJVFfgEAiIatIFd+9ycvlAlx+bMnhyc7AABxYFwcIS4XB330C+9n03sAQKZULX527sfF5SrEhV2vbHoPAEA0bI71rhDi8sXmAWc8HAAgU8IVF2wFuZ53t3dgIsTlBIv8AgAQrarFz64Q4vJCSY+tDXstT8UGACCutvW0rba11a4T4rLv3X/c6nK1dbAJcACArLL5pGlPngs+Tz1xFYufzXg4AEAmfeEDrZUXajls263L07ZbNrtcczEe7u79rd0wTkXxs84c3+El8H379NuJmD9mn/5dhiP6vgP67XCOrtmqLru9EZWdsnTdj4avs+E/1/TvxPjY6K9lcx33LfCv+nV5D1FCyVyvixyD2L37jy9UdJCsEuKyjUV+kXSA648qwCH1N46988690bBOOB0GVULd2q7lniXCg7npIcQl47StECft3rhctrM8Tk3gblzfIbDpvVuVfiWBAHeEHgAsohSGuqP69aA+H8/p11H9KlM0q3J0iX9X1uXaSxEl09ZZ/OzcLvqbixBnulpzemJj4bv2kzF/zJAOcAOUNlbIhLeD+mXC3INhLzFWfkO2XP1+gJKK3xc+sGNu+IANlbyWe1564tj0HnMBzozZi3NxyGEd4PopbayhrjoR9s4R5pa3kjGilTDsIX5VS59bevcfX8jlUiO5CHFKZI+9JWwYD+dIgDPB7WTMAc7ciRLgEIUyYW7Za9oEs5WGs8OUWCJt7WmLbW0ug3peeuJsHdzRL36ATe8dCXCnwoYxzgC398xxxj8iljD3YNiTjNUFswrllwjGxRHiovWuP2bTewJcK8DFWYGb4NZPgEOMzPlrgtxRiqLjXrg5jI2L2RftLvNRyWOZ56EnzuaBZTycfUcTCHB7WSYCCTlIr1zLah6P9jEDOBG2glw57LQhxGUMm97n9259sQVAo7SPAIeEtSbo5HWs3Cp74dYS/tAZm50XlbwVdvZDnMXNcb/4ATa9t1jRH00gwJlHqBxj2GCGCZzI6ePVtQQxeuPiZ69OVPkbF5fpEPeuT4Sb3tuZKkPjbi/AmfB2MOaPOcRivnDAwbDHOS/XdkXW3tvSx2kTa5AasTU9VeiJyxybB5RHbPYCXNyNmlnMd5DShiNM79KJcBJP1kXxOPRATsrKii/+VmuCl632ryfsvCHEZQSL/OYrwFUSCnCsBQfngpzEvxOJC9d3FDfmppE/yCkTq6rFz67kqaCzHuLY9D4/AS6J7bTM3eUhShuOqmT80WqUkxLojYuXzU6MXM3czniIUxVLa0fXwi5lJBfg4t5Oi8V8kQZ9WQxy4Sb2lQh/pKkr+jhdYmt7R6zt2yBqT55KOrMh7l2feKpi8eOrXMSJVe6tWXoxB7hRAhxSFuSy9rgwjlm4LP4bky/+1s6afqtZ+vhKnso6yz1xjIfLR4BLYjcGAhxSF3qysul7OFmpHMOPLrMvbayqtj7YcidOoooZ/t1Y5Df74g5wIm7txjAk+erldTE4H1rh9V0OX7vDc7Rs4bue1CFlVwZuQA7H/LOHqEpjcdbiZ/fkpa7McoizlcRHv/hbOwlx8d+dn0ggwPW7tBuD/i41sfeIAuEN2moWeA4XmDXjut4hyT0lmBtqsC/F13lfzAG41RvHmo+xsBmiTCdOLpaByuTj1Hd94qmysOl91gNcXwIBjoodkQVws7agft2l/3GXtHt/kugh6w0nBaRVEttkvYMzNHphZ4atXuBKXso5q2PibB7As1y+sQa4gQQC3BABDjEHuv4wzCXRW5DKhYAT6IW71l5kZfygg6qWPrf0rk88lYulRjIZ4pTIHmuTm+mJi7tSj/vOnMV8kVSYG9UvM8bO9M7F+di+JOnc+P1wRj8rN3R7eNZiW0yISzFrB+9Pf2snIS6+ABf3+ldVAhwshLmR8DHrkRg/5mCaNn5PsBduDr1xMdWpFj87F+vFZS7EvfMTT5UshjgCXDwVek8CAc70hOyjtGExzA2E52Bc44jS1Ntk47uyblzELHdq5CKUZ7EnzuaBY1ZqPAHuVMwfUxPWgoMbQW7YnIsxBbm+NPTGWeiFm9Obpt7KFLEV5MrvbE9yJMSlipIee7t9sMhvTAEu7t0Y9hHg4FCQG4kxyKWht+lwTj87m0y7aK9Nzvy4uCz2xLHpfTYCXJLbadGDirwEuT6XZ6pa7IWbXz5lzsBI2axfMz8ujsep0an96Qd30psTnSR2YzhEgIPjQe5QxD/WBDiX1407zHfInGoO8wAhbjXe+Udsep8hSezGMEQxw/EgZ87RqM9TJx+phmtAlh34Kr1pXFfPVWHnhq2b5R6dCzJ9LLPWE8em91iJIwQ4pIjpjatFWU+69sgwDE2uhEvzXQ5y2kWqmtNcQIjrEJveYzlD4VIOQCqEk26ifqzq2iPVg2Jvq8SFHKA3LlI2dzKqEOLSw1biHv3TD7LpfQoMs5gvUhrkzNIj1Qh/pDP7hTrWCzeH3rhoVS1+dqYnN2QmxL3zj1rrwZRzeIJiZUzIJsAhzaLc0aHHoZ4m13rh5rD4b0T+9IM7axLtkIBOVLJctsUM/S42DxSb3rsf4FK/mG84jqmcgeNhNoCvcVp2RpdZVZ8D1QjrOvNzhi2f0y72ws0pmSVPGD8bGXPu9tn4YDPpUQfJKiHObbstn5xw1/0ZWczXVIBZWP7A9CgNcFqu7lyOMMTtsR3ixN1euDnmeiPERcNmZ0dPVtvpLI2Jq9j64Kwm/AxhkDKyIsrQZXXWnuO9cHPK4QLEWDub7WRmx8VlIsSF68Cw6T0WrYiFQcrIgLBHOaogZ3vpBdd74eaw+G8Ewsl/tp6IVAhxbrNZGTErNR0OsJ0OMuLbEf2ckq0e6jh74bZs8GXHjYVIbwL1961w2kWiaulzS+/8o6cyuV5cVkKczQuMRX7TwTQaRykGZECUN462GrbYeuHeVtkkmzdE3rTRGxcN2+PiCHEuUkr26JdYelW5LlOjlztqpF3E+/0m3hMXdy/cr1Y2yqNPzUbeUUDdEUlbXbXYVmdyXBw9cWtT+9Jvs+l9ypygCJABUd082uidiK0X7p5f2CxXp1Rc35veuDXS7WXV4sdnMoSnPsT9+v9u9Tl3lcsydcz4FiY5ABaE41Jj6YUz4+DMo9SLl5qxhQD9/Xs4iqltN8s6L5QJce6xma4ZD5dOh1lyBCmX1glVpjcrlmvv/b+0tfX+wGP1OL8/uziku93MXAjPQohj03t0ikkOSLsrafvCYS9cXxw/+013dkvljetbf746FcT5a/Qxyz3V7WbmxsVlIcRZ2/T+S7/Npvcp1sdAZSBRsY0pu/cXtlz78yPRT2pI7PfIiarFz85cnZ/qEBc+3y7n8ERENOiNQ1ptS9OXjbMX7hffvEHe9Jrua/988YVm3L8OvXFrEE4GtNUB0qNzQ6aG0qS9J85mqmbT+/TrYUsdpPXcTdn3ja336p55vXDGhUvNJH4f6o21qXLtEOIMNr3HWh1lkgMQnzh74cxj1Pm7Mzwa/6PUOezHvDY2O0EqhDh3WDsYlte7ybMjEf+8kjDGBfmt+2oJfNdYrq+5hX3ni3GNuIXqDZYqWj2b7WemJjekNsSFz7XZ9D5f+s8c3zEQQ5A7yPpPSIuIx2PVEviufXH8bLMm3JbrtteKeXmR69Ebt0pf+u2dtYRuIOK8ASLErRGb3ucvwA2Ffx7Ur6h3ymCSA9IiykYo7oY0ll448wjV7M5wvZiXF7leSRgbl8p21PImAYQ4B9I0i/wm69C8AGf2jjQBLureOLMaey9FjRSI7HGQvpZiC3Fx9sJdP5lhziPJjYmbw+K/6WxHK1kpxGJqv7nNzWw9euISNKQbmsEFGp9B3UiYCrQc4WeZSQ7VMCQ6J3yUPMApkXtR3WxUY/6esfTCmYV9zbIiC0lgeZHrmW38+ubfZGLFbXjV4qeb/DCYhWKkJ65ztfB5PpIJcP1L/Pv+qCtkYbAyHBb2Fkc1DqsW4/c011JfHD/73kV64YyElhdJJKxm3Zc+1Fos39YNcyUr5ZjKEPfrf8im9wS4Vs9UNYbjcZiFPOGwd0T4s+J8nBVLsDFba81f2He+R5N/lHrt5o/1JlfN1lOtks4Rmajn09oTZzNFs8hvApYLcPMciuHjmeQA54Q3F1GO26zG9D1N/RxLqJnb5H4hF15o2jw87+AMde5GwuUcke8Qp0T2qPa7jVeV686psGfu5IYi/rG97KsKB0XZu1WLcVJDLL1wZkmR+Qv7Xu/RpxpWOxaoM1bVllcttuWZWC8urT1x1ja9P/EhNr13kJmpGvXYihMUK1wRrmPYF+GPHI7pe1bi6OEw68EttKTIfBcuNWwfJsbGdVrJfsjqovmZCN2pC3H9f2h103sCnIPCHoVjEf9YM85lgNKFI6J+xH9/moLMQgv7vjzENW0fI3rjVsdWkCvrPJH6xZrT2BNn8yJhfTh3menitYh/Jiuywzp9Dh6MuN6rhcMQov6elTjqZ/MI9frttRby6JMNFw4X68Z1zmbnSOpDdxpDHJve42ViWgDYBDgmOcBmgOuRnPfCmYV9l+uFMxLerWExvcxu75jNzpHUj4ujJ64Dlp/fY/kgNxTDXV0fj0hgKcCZm4hTMfzooRi+ayWOuvlnd3YturDvfA/8uO7SoWNsXGdstqupr9tTFeLC59e2JjUwHi4dWHIEWQpwUT/OH4ppVmosweUD/2briv67q5OBS4evj964lTvxoZ2jFtvX1O+hmraeOBb5xZJiWgC4h8U8YSHAxVHf3R/D961IDD0aZnutxRb2vZ7l5UUSC7UZZq2TpP8Pn6qkueBSFuJUxdqKMqKY1JAe/TH8zKNMckACAa4nxgBXDW9yUhFYBt6+8svNgeVFrtdLfdFR237aYttOiEuQzUGIPE5NifBxUdSbG5e4u0bMAa43xgBnHInhO5sGMPJG0IyDW2ph35eHuKZrh9PUF+zD3MENRk5zRe5CnK3EXDvxodtrXGepEscCwAfDnhIgyiBU0i8z7vKkRD8G7lojmZZeuPbCvls6+juOLC9yPZYoWqGwfbXVxlbSXHbFtHzR/j98csnGc3zGk6lZkWn9qjc9qTfM+9I/s1vf6HUXzbuS9V0iG/Rr8zrl2l0CVsEsOaIr0GMxNDKmsd1LCSOiANcXnqPluKvQGL57JY4GcLntta5nlhZxZHmR6831xg1wpq/IyEqvg6jbe5MvdJBM5dO21IQ4US+tLMwBuzLtycRM+301zM9oH/j5f9+TbeuVbFonrffudl3CpvfpDHIDuqF5R8QNpFmVvVf/7GFKGCkIb8aRtMxINb1wK1nYdz4HJzXMd4AQt+I23ow7712srY6zvVftXtMjMe4nTIjTdjeD9gF8fqKdwuNiPuPKtMiFK14rrRd8MY87SuGCskgX81g16n1QzSSHKucDOgxu5mmCuakwAS6px2wj5mYmphBaifrnvv+Xtq5oYd/5LrzQdPmwm7ajL1zDEkurzv+HJNv78Jo0S8OY3jjzBGc4LfV7KkKcCVBPXVGVy1Ne68AmKTx5zB3ngfDx3CCNd3qYyjPsjYuywSkLj0mwdJ01d76Z993hu43xUf0x/dzIe+HMI9SVLOx7vYuXmq6fDqasCHHLOPHvbx/p/9+eHNVtfMkEt+cmkm/vpT2p6ER4o56K9t5z+cuFg0JNY3nAUgW4kNEwqRPmFm64IllhXpet5+L3us6uJLvf9e8xIPmaIbs3qsH4uuxUDi/J/jh6gMJeuKh7t+W+99204nXh5nv/Fy9L9aHpXB6LjLUfpRs3qlNXpr2epjtDHJ1v732HD6ipKM6FjZZLM3zmlpo4xwKw6RAGgTgqUHZygKuGYgwNkd9IdLKw7/UcndQQe5llLMC12vtLk04FuFS0976DB7OsX6fCOz2Xp2eb73bCfFe2WEmFIzH8zF72VYWDzHjNWB6jhg1Z5PXdB35p66r/7gOP1dNwTMrUFbT3mQ9x4WKXD0q61m0x3/XB8LvDUeFjzziC3AlKFw4xA7P3xfjzI+9RMuPgzEb3q5GSXrjYyi7lAY72PkshLoHFLuNO6SfD3wHuMrs4RD2uoRyOVQNcCHB74xq7E1cvXKcL+87n+PIiLwsA9MbR3ket6MDBLIUHMwsn99yK/vuY9OCecAFg0xsX9cVnZi4z0QWZDXChyHuS7tUBrpOFfRdixtNFwez6kEDPninDao7DG+19lkJceEDj3CvQyt2W+Z3077aXRt3JIDeoj82BiHsUSmEw7KeEkcUAF0cv3GoW9n1ZgHtNt9y3/6Y1fxez9+ovDjybSPtgxlSlcVFZ2ns323ufAxqLnvDAsm+em+IIW308KoEFZhbqXQk0IJH3wt3zC5s7Xtg3Lp/887EkPy53Y+No7zMW4jJ+QAlyjguXHKnG8KMZE4kkHYprFup19XWfRNwLZx6hmj1SXfDAj+tJrzPXl6cVDWjvMxjipP1MvCcH529P+LvCwQYwjuOtL+KDFC1iVpP249PBhD4v8p6j969hSZGoff6vrtr42Dz1xtHeZynEhTM6Kjk6gSvMWnWPbgDNOKKhOCpnel8Ro2H9uiuqnSxWUF/3ScS9cGYiQuWN650ozL/4+ylb68zlojeO9j5jIS5cWyWPPRUHWUfOSWamatRjiUrCelCIXk3as+ASmwkX3ozEMiPVFffZ6YW7FuQyHuBo77MU4sK7jjwvjHqCnR3cEs4QOxbTRdxDCSMCo+HNhul9G066MZKIe+HMwr6r3V4r+gA33pqVatGBrPba094n194n2RPn+rYacSsJq/u7yIwrqsXwc3mEjijC2y4d3gaSXr4gDBcHov659zjSC2fWg/tqdcKFNiGrPVW09wm1935CFUKf5Ou5+GIqrm6im1dh43iEYw1H1GyGt3kORt0Im9moa13YNypfq066smVX5nrjaO+TbQP8BA5oiV6JlzjKwHfngtyQtBdMjRqTHLBS5hw0491sh7dYeuHMenBmXTgXmEeon7c7Fm4+U9aZGS9Ne598e59ET1zkd3Qpl+Uu9DSLY8mRMscai6jNBTf9usGs92ZhzFtidbbphXNlYd/73Alw1272MnRe094n3N7HelXFNa4iAw7QQ+OWGBcAPsyEltwbCc+tI2Fo2xX2uLWCm0vb88VRZ5tHqK70wpmFfc2yIo4pZ2HoBe29nfY+7r1TSeVLp/OBDAYhL8W/gmlg45hVGlUjPST52jw7ykfcey1dD2m9DjqmlPj64jeD3tYpT8x2DKU37up+/cffUXKmYX/+SvBj/fZ/6dfT+nVBiVzR33lCv9d11dX0lAos1WC1DFyvtPcW2vvYTtcweZ7joC7ZsO9y6S4cAFbnm97uD7zFb4w90VUs+BuLRdmmM92tf/57t3zsjluL/6Mr37LvU89/5qFa/azv+eebSh73m/6lhvgTl7q2zD5ZW9eUb0uQ7vtQO2jv7bX3cT5O7eWALpvOWQAYQAa8RRpTz4kKPE8Vm62m5d/8i43bXQpwf/X/Tn3/odpsTYe0y4GoMWkGE6owU69PjzZHLz0ZyA+PKwIc7X3a2vs4H6fybHxlZTREMQBIu+KGW0T5z6iupqcavjTfvnfT/zI6EYw0mtLVaKpiEEghUFJQSnkvpqUXQ9MjT86e1//O/G9eoJSv//tiI9B/t6HW7/n59btu2upvWO13m55VM5/5i6v/t/60S/rjRz0VXG34zWlfvNnx+tVg/OoTSh67pDiKtPdpa+9jue0IB3Kf45ityK5w5wAASKkBb8cvvtu/ebsqqkJXd3Fdc5MotcVTapt4xW2igi06m20UT3WL8oqi41777ynz/9cCXTvCeWZcXZdIsEH/t1v1/3zT1z908747d3Tdstpv99cPTP3t795/5T/q71HTH/Ck8v3nZoPm5WbQPf3k1ZnG1f9jp8mVhDja+9S193H1xPGYsLOyGqQYAKTXHnVh/Q1qgxoPuuvFRsGXKeUrVZDmrA5jEzqIrVPK69JpraiTku95Jrh57X6Eua4EFf6TUkUdtHTY83XwUzfp/71+y7bC+tV+sysTwdjv3j/6l/qPz+q8+IJ4/hWlZieksa4+XtjWvPpQl2p/Omjv09fexxXi9nCsOiorQhyAFNsrMvKCeuZ/2BC8cv1sc7beqBeKvmoWzZPVYFoHsqLylO83vYLnN8U8UhV/3u4NYYRS7V65Lk8pHdq86VbK82RTaZO/6v26hr8/eVq/XdI//LL+HmOq2ZzU/1yf7qo3nx/VAW5EGAtHe5/a9p6eOO5iAGDtHrtRjY+eVk/86zc1by82lXTVg67ZYHba9wpbCuLXA/GUznBBI9CpqelJ1/xtr3SIUuskCHTKE9WlfNloHrn6Ipv/2c+u37jar/TMaPPZT3/n6vd0SrssnndFqea4/qjpIAhmn5udDaYeqip2iKINS3NZRT479e79F7giKDMAuaOD2HN7gvFTm4MfPfZk89nxroYJS43ZwszUdHG6eVlNBfXipP7nqeZsYbLZmP/yJ2dlZtIbb+p/p6aVUjNea+02abzulV3bVvuNvvDX43+tU9oL+o+jnlJXlagpz1f1xsxE88rz55SMnKYXjrYr1WUWR09cD4dpVWVWpRgApD7I1ZSS2rfluTsPq+duflLk9qInm34o23Q1t2XU5LJbF/yb9eIj3pauor+5qHxPbWwqz1Pm+eob7ui6fTXf5PyzjcdPfm/qYc88RvW8K+L740p50/XZZuNK0B1IdbcOcP8Th4z2PtXtfRwhbjfHiDIDkOMgZ0a5PTYg8ljrj8oMBbqi/3Rlqb92V8Fr/JPNXrF7RjYHrWVGzDyHwsZ13qbVfIvDf3ZlWH/2JR0GR8XzxwIJplRd6sHGUuOpsc2BPMdkBtqu9JdZHIv9ljlGlBkAvBjqVvDadrNs8JqyZdb3GoFqzVL1PK+448bCqzr9xDM/rv/g4Vq9pkSNekrGVKAmfdWYCQp+Y1LpAPe3TGag7cpGmRHiuBAAwAEluWndtNSDglfwCwXxzfRVVezu8jqa2DAzq2Y+/Z2xv9Ep7ZKnvMuBkquiginVlPp493Tz/HOXlNTohaPtIsRxUCkzAIjAW0SuPioz3YGnY5sXKJ3kxCwKLF07bizc2clP+puz02cers2e138cVZ4aE9Wc8P3mTBA0ms89/3wgf/sX9MLRdmWmzIqUJwDArm+K/PMfezK11St0130/ENML1+Upr7uTn2J64T7zn69+V//xWf163ve8K7OFwmRzZqZ+ZXy8MfnImwKp/VN64ZAZPkUAALBt2wu3SLc0xQ8CP1CqoHyv2Pc/b3p9Jz/jP//D1P/z9AvNi0rJqHje1Yb4k9IIZprbbm083v3zgTxAOYMQhxiE+88BQC5t2bhNgvVFL5htFlrbOTRVcetGb8U7NZjttT7+jSvfFU8ue/oflfLGfa8+0/S6G7MzGwN5WNgfFZlr731Xv1jeRL0pLgCkx7e82ZmHvNmpSS/wu3W7ZMbESfHOHV0rnpl68vuT5jHqJR3VLuukNuYFzSllVhDuGm8+Nib0wtHxkMn23nf1iwEAcuIX7pJm107ZuLHoFXzxw41Vi+u7V7ZGXO2ZxpOf/s7VvzPbaylPjSoVjIsXTDeValx5vhnIw/fRC0fHQybxOBUAYNfUa2Rro+55jYIXyKyvvKCoRBVfccPK1oj78t9MnPZML5zZI9WsC+fJVOD5s5Pjo8GlricDeeAiZYxMYnYqAMC6TZtulHrXs966QPxAeQXPk66VrBF3/tnGE8Pfn/qBKHXZM5vc+/6EiJquB15jbOttTfmTNyqRvfTCIZPi6ImrUayUGQCszIDIpYdkevaSF0yv8wIpmokNRU9J8aYt/s7l/vZHvjz6nXB7rcvKbK+lmpPBrNSV2tR87tlbTHgjwNF2ZbbMCHFcCABg0WFZv3va2+Cv8zZ2N31PRIe4ZvG//yfrXrHc33zwJ/WHf3B+9pwo9YKnvFEVNMf9wJtW67zG2PotgXyL7bVouwhxHFQuBACIzc1qlyh/wmsqz/d8M8zH63rtzq7tS/2dcHut/6pT2vPK8y4pUVeUUpNKgpnLE1PNCw//10DohaPtIsR17CzHiDIDgJW5z2uun/TqSnmBV/D1my+eFG+/pXDrUn/r9MMz//DQudb2WpdFme21gknxg5kgmGlOzjwZyH85J/TC0XZlvczimNgwwjGizABgRf7FL8lsc1a87qZXKMz6EnhFs0bc9lLh5sX+ysysmv70d8ZO6/B2yfO81u4MgedNNZpSnw3WNy8/ensg8i/phaPtynyZRd4Td+b4jirHiDIDgBXpKsq6WeVtNOv7Kt8s9FtU4hV33Lj48iJ/+d+mvnvxhebT+r+7rDxvrOnJpAq8mcBf17zk72zK07soV9quXJRZXOvEDXOoKCsAWF5Jblq3SepdTc9rzPo6yBWUUmZ5kQUX+h2bDK587OtXquKpS2Z7LQnUhKeC6UB5jaC4ufn8T0RJjbFwtGH5KKu4QtxpjhVlBQBLe4vI1Udlpnvaa9YLXlO6CiKtx6ldN29deHmRk9+fCrfX8kaVeGOBBJNe06vPFKYbtZmLQXvEEWPhaMPyUVb0xHEXAwCWfFPk1c95xdkN3oZCwfd95XuiWltudRe9Ddf/1+fM9lrfHvs7s8m98uSKqOaEL8G08uuzV55/IZj5yUUlz7yVXjjasNyUVSwhLtxTjQGPyxth/zkAeXZrYbsU/EkJ/KbpPjMxrvjr/2rL6xf6b7/8NxOtXjilZFSHvTHleZOzyqvXZxrN0bofyNnv6X/9LQo1QbT3dtv7OPdOPcYxo4wAYHFHvK4tJZn1ZnQC833PPEpVqhioVm/cS5x/tvH4t78/+ZASecH0xAXijYsqTCvfn53YsKM580BZyTMfoBeOtixXZRRniDPdhqMct0WNCt3QAPLs5w5LfXbcmy34XsFr+EqnMp3Civ/sznWvvf4/HfjKlf+k3573lFwKlDcmXjAZeF5d+Tc1z5/fqKRWYncGe2jvLbX3sYW4M8d3jJLOl07lYRkBQD7dUpPmbJdXauo/BzrJeZ6vk5y/cd1LN74/e64+8tBPZ2utJUVExjzVnPRnvZkZmW48Xh8N5Idsr2UT7b299t6P+YsPks4XTeWDFAOAfCvL7f64zBa6PVXwfOW1xsT522/wr60RZxb2Pf6dq3+pfHXZa9WdwVVRajooNGYnLk0E4xd+rOSxIzxGtY/23kJ7H2uII50nn8oBIDVmnhS1syyNotlrq+F7SrdJKvDWdb3YE/f9H81898GfmE3u5bJSwZh4MtH0/Zl6faY5WrgcyA/P6AA3QFlaRntvp733E/gFSOcJpnIASAedvW5f501dvuypRtFTzYKnlHkm6qnSpnZPXL2hpgaHx/5KKTXqiXdF/+urXmHdtCpunJ3quqU5/sNdgTy2n144d9DeJ9zexx7iwgR6iGN5zSF64QBA2/RDaTZ9TxVmPOUrT+lg99qdxfVz//q7D88MP/Fc86Lnyaj+t2OeV5xszuj/m5ptXgpKgTxwmzAWzh2098m3935CB3ZIv1U5nlINywIAIHeIakyJCro80zHnq0D96zdvbPXCTc2o5377xOifi6grEsiYH8h4EATTXpc3W9+0Obgy0tpai14494Ic7X2C7b2f4C/UL/nuZh0NywAAYEwUWyEu8GaVDmoq8AvNXduLN5l/9b1/nPkzMY9QlXmMGlxtet6U5zVnZvxm8yeTPw7k++a/ohfONb/20SdKr7mpWSrk+9Ak1t4nFuLClYrzHGL62Z0BAOZZf7P4hY2iM5xZ3rchqlm/7cbCTWOTwZkPfmn0W8oLLokULovfNeaLN9loNOvjE1NN+f5PzJIi9MK56cS6gvTs3BrkuQwSa++T7IkzQc4sdpfHQf2D4e8OAJhTmJbu9ZtUd/f6wGsUmp7y69s2+dv/7pH6cfG8MVEypiQYbzaD6UYwVZf1NzSfGH+1kpFnCXAO+rWPPjGg33rNn7esU3LTxlwepkTbez/p307/cmbQYzUvR3NDUY3+3K3NI1zeAHCdJ+rK716nijPFQJn+OFEz5y42vvbBL12uBoG6qlPehGoGU6K8mWZ9ffOnzz8SyBkzDu5eys69ANen3w7P/99esTmQTd25CnLVMOMkxrf0i+6THGyYu76o5I4bgpL+41EucQC4zgu3ytMzm9VMMBnUpxsN5amZdw0+f0oFhQlfeZMNrz4ZiEzXu7zZ6a5tzcmrm5U88lZ64dwLcD2LtXOv3Ba02sIcGAmzTaKshLhwyu3eLAc5c9KWbwgkHNzZp0/yg1zqADBHV44j98nlsUvq2fGxoOFNN5s6tTWlMB14XVMNrzjlq66ZoLGuMV0Pmj85NxXIt8d1GvgWRedWgDMdFSf1q7TQvzdtoGkLMx7kTJbZa2P5MFs9cZkOctcFuDlH9cneyyUPAHPuUfJfLqnnmzcEV2Ymm4263/A3FGdFxmY9L5ite9sbT9elUbv4ikD+6rhOAf+UXjj3nBKzf9oSMh7krAW48FbIrrv3X5hL8ZUsHE3z/N90Hy8yvboVXL/84VeOcN0DgPEWkVu+6clrHvXW3VmULeu3etIQ8f2n5dnGG5Q8fFGFi/oS4Bzzax994oR+61vpf9/UR/CJK75M1DOz/khVv/bZXMDfmZLUYc48T0/1I0czE8cM5FxJatdBjl0bAKAlzGc3P+/JG8al1bHz1I9FHntQ//mH7I3qZoAz4e3Eav7u0+O+vDCZ+iA3mPQkBqdDXBjkesOTopSmI2l63cyaOGZK9UrTuw5xe6kGAAApDHAVaT9GXbWrM548Nea3eudSprWQryvLhjkXhXWQK4dBrpKGo7mpS8nOLYF0FTpP8V/+yCvZYw4AkJ4A9/tPmDbadJGuubNltiny1FVfJmZT0ytXFccW7ne25HSY65P2lGUne+VM75t5dFpav6bbiH4d5IaoFgAAKQhwpj02PXA9Uf7c0Wmv9YjV4V450/t2yMW9z31XSywsrF36dUQc2nPVhLdbNym586bmWgOccUJfFD1UDQCAFDgadYAzTFtq2lTTtjq25+pomEF2uRjgjFT0YYYzWM2khwNiqWfOnFg3blRy04Yg0pNMtU+SXX/2ESY6AADc9G9//4kB77odGeJgeuNemPLl0qRns2fOtMfHpD15wem2OVXTQ8Iw1xuGuUR6sMy6NjduUK1JCzHeIbRmrBLkAAAOBjjT7p5M8jNNgDOTHy5NeTLdSCyqjIThbdj18JbKEHddoCuHgW5P+B4ZE9jMhIUt3Wo1ExZWa0iHuH6qCwCAQwHOdJiYcXDWxqebCRBX615rAoQJdhEzs0xPh8Gtlrbjk5kV93Soq0i7d263tFePnnstygS0br8d1EyP2/qiyMYuqyMrD+kgN0i1AQBwIMCZ4Pbgcm1p0iZNmKt7Iy9MeiMrbe+12rzXWf0a0aGtmvZj5OXlZAwfxZZM0tYnZkerTCdsnw5yw1QfAADLIc70wFUc/Gqt3Y90WzmyXHuf9WPkcXKm6+QEACCBNpLOjhTwc/y775N2t6przB3EibAbGwCApANcn8MB7hABjhAn4UxQE+RcnIFixvad4PQEACQc4Fxuf4YYN06Imx/kzCNLV7e+6tUX01FOUQBAQgGuLGvcEzVGLrfXhDiLQW5I2isyu+hg2K0NAECcAc4M4TFrwbk4lGdurDhrqRLiFgxyA6Jk2Gyf4ODr6L89wtZcAIAY6bZGv3qcbAcJcIS4FTAL7bo4I7S14bAOckx0AABETrcvA+LuRIZ+VmsgxC3rzw47PdGhFeQ4SgCAiAOc2fHosKNfb1C3zUMcpcV5FMHLTuiKw4FpSJ/QbM0FAIiivbO+pdYSqrq928tRWho9cdfRJ01V2o9WXdSnL7qDHCUAwBoDXGtNUkcDXE3aT8ZAiFtVkBvSb0OOfr2jYW8hAACrZWaiujhprjW0KRziBELcqoOcqxMdWhcfM1YBAKuh2w+zBqmrnQH9uv1lIgMhLhLmeXzNwe/V3pqLGasAgM4CXJ9+c3VYzhEd4NhSixAXDdOdq0T26deog0vn9Ci25gIArNDbjzzRajfcXBK1NXFvgKNEiIvUVw67vTXX24+wNRcAYNkA5/JSVWypRYiLNcgN6TdXN909+PZ29zgAAEsFOFe31Nr3FSYyEOJiDnLmLsHVZ/VH385EBwDAIm2EuDkT1dir29cah4gQlwDVr18jDo4m0HdX6uTbjzzORAcAwDW6XTio24c+cXNz8P6vMBOVEJeUrxx+lenuNUuPuNjtWxa25gIAvBjgzJZaro6bHtJt6hBHaW3Ydmt1F0bF4cBkLgy25gKAfLdTTm+ppdspttSKAD1xq6BPvqq4O5OmT1+8fRwlAMhpgBt4nC21CHFYJsgNipIhN4cZyAl9EVc4SgCQSyd1O9DjYNs0ql/7wqFJiACPU9d+x/OguLv/3F1fGXhVjaMEALlpk8wYOFd3ZNin2yR2ZIgQPXFrt1fcnOhgutFPht3qAIDsB7g+hwPcEQIcIc45+qQcdTjImR5CtuYCgOwHOFPfuzoTdVi3lQMcJUKcq0HO7a25Bh7n4gGA7AY4l3dkMO0jKyYQ4pwPckPi7tZch8NudgBA9ri9pdYAExniwsSG6O+ITuq3Xkcvpr1hryEAIBttjhky4+pNumlzqhyl+NATFz3TbexiUCopkZNvY6IDAGSCrs8POhzg+glwhLjUMd3GOiz169eoa0v0CFtzAUBWAlxFvx11c6lSGQqHGIEQlz5fbT+ydHUgZ8/b2t3vAIB0BjgzE/Wko19vRLeBTGQgxKU+yJn1cJzdmuttTHQAgDQGONe31GJPVEJcZoKcma065OjXOxHezQEA0sMEOFd3Cdr3VWaiEuIyxvTGuToj9JQOcmUOEQC4723tLbV6Hf16h77K6geJY4mRZC68kig5J+4uxLj3q0e4ewIAZ9uRw60hMK6OZz6i25ABjlLy6IlLwFdf3JrLRS5v1QIABLjDbm+pRYAjxGU/yB1xesZqn64kuAgBwL0Ax5ZaIMQ5EuSGxOGtuXRl0ctRAgCnOL2lFkNx7GJMnJ07K3NRVhy9KPeGvYYAALtthdNbaum2ospRsoueODv2iaNbc4nZmuswW3MBgOUA1+dwgDtEgCPE5VbY/WzGEbjYDV0Wd1cCB4A8BLiKuDsTdUi3YYMcJTfwONXuhdrrcGAyFyoDVgEg2XbB3Eg/KI5OZNDtwl0cJXfQE2eRvhjc3prrMFtzAUCCAa4U3ti7OpGBLbUIcbguyLm9NddhtuYCgKTqXHF3Sy0WhSfEYRFub811mK25ACBO4Vqd7m6pxaoFTmJMnDsXsAlKzo6D4C4MAGKr//vE3YkMg7ruP8RRchM9cY7QF0lN6aCkX+Lgq0exNRcARO5XDz/eql8drfuHCXCEOKzQ1xzfmktXNgc5SgAQWYBzeSIDW2oR4rCKIDekb3+GxM3bsqO/+hG25gKASCg5pV9lB+v6Uf3q/xpDaJzHmDhX79A+4vbWXF/7fQa5AsAa6nint9TSdXyVo+Q+euLcZbbmqjn4vUy3/wldAbE1FwCsLsD1ORzgDhHgCHFYI30RjYZBzsXubLOOEVtzAUDnAa4iDm+ppdsettQixCGiIOfywNKKroyYsQoAKw9wZYdvgE17w0xUQhwiDnJma64jjn69g+FjAQDA0gHO+S21widAIMQh4iA3IA5vzaUrJ7bmAoClmScXrtaVBDhCHGLm9NZcTHQAgIXp+tHciPc5+vX6WW0gvVhiJF0VQVkc35qLuzkAeEm9bdbWdHUc3KCusxkHl2L0xKWIvthqJig5+vXMYwImOgDAiwHO1IuuzkStEuAIcUg+yLm9NddH2JoLAByfyGDakX0cJUIc7AS5IXF3ogNbcwFAO8CVHfxeZshLP0NfsoExcem+0zPj41yc7cTWXADyXDe7vKXWvnDpKmQAPXHpZsbH1Rz8XiVRcuJXP8yMVQA5C3Afdn5LLQIcIQ4uaHWHK9mnX+ZdnHq1ewhPcJQA5CjAtes91+rj9osttQhxcC7IffRVLm+V0vsrH2ZrLgDZp+u6ss5Kpxz9emyplVGMictOBTKg3w47+vX6v/7R1mQMAMhi/WuGjpgA5+oY5V26DmYiQwbRE5cR+gI1Ic7RsQ7q6K98+DxbcwHIKOX0lloEOEIc0lGR9OvXiHuDMVrrJJ3SQY6JDgAyRddrZm3MPnFzIJx5CsIqAYQ4pMHXP3qHudsyCzi6eNc197gBALIS4MyamK6O+x3SbcIQR4kQh3QFuZq4uxJ3j670mLEKIAsBzukttXRb0M9RIsQhnUGuKg5vzRU+fgCAtAa4UhjgXBwi4vKNPAhxWGGQGxKHt+bSlWCFowQgpcyWWq7ORN0XDq0BIQ4pD3KmN87VQa0nmbEKIG10vWXGwLl6E9qv630mMhDikCHubs0lcoIZqwBSFOD69Jurw0GO6ADHllqEOGSJ4zNW2ZoLQFoCnMv1lZmJOsBRIsQhm0HO8a25zrM1FwCXA5zLSySxpRYhDjkIckP6zdXNjw+GjykAwNUA5+LQDyYyEOKQoyBn7tZcHTPB1lwAnKybxOkttVprg4IQh1xQ0q9fIw7uEFPSr5O/8ntMdADgBl0fHdT1Up+bO2oxExWEuNz5+sda3e5m6REXu9/LwtZcANwIcG5vqfUxttSCiEcR5LaCqjgcmEwFxZYxAGzVjz3i7ji4qq4f93KUYNATl1O6EqiKuzOa+nQl2sdRAmAhwLGlFghxSEWQG1QiQ24O95ATv/x7bM0FIFmm7tGvHgfrxFFlZqJ+jJmoeBGPUyE6LD0o7u4DeNc3PsbsKwCJ1IVmDJyrOzL0f4NxcLgOPXEw9oqbEx3M44yTv8yMVQDxB7g+hwPcEQIcCHFY0Dfa3fOuBjm25gIQd4Az9YyrM1GHdR09wFECIQ5LBTmnt+bSlSyVGIA4ApzLOzKYepmZ+iDEYUVBbkjc3Zrr8C8zYxVA9JzeUusbTGTAEpjYgIXuTE/qt15HK7W9Ya8hAKy1rjNDNVy9OTR1XZWjhKXQE4eFmO57F4MSEx0ARBXgDjoc4PoJcCDEYVW+wdZcALId4Cri8JZazETFSvE4FUtVdOaR6kmHK7qOBvzevf+CqbjNLLTdYRicey2lNu91Vr9GzhzfwR0yYMlar+MuX52/dUPzwMaicnIig67X7uIogxCHaILc77YeObh6x9r/jT9Y/I5VV/amYjdBdI9EP8ZvWL9Om3cd6mqcKUBsoS2263hzMZANRSWb9EuHO9u/qqlH7tJ1GhMZQIhDpEHO5cG/ptIbmVfhl8KK/oAktwuF+fxjYaCjAgbWHtwSv47XFZSUuoNWsPOTbxnbk7b+gElbIMQh+hA3t46Ss1tzPTbWZd4PhpV+yeJ3MWFukDAHrDq8Wb2OTYC7QYe5UnczyTC35FMFgBCHKILcOXFsPaVAibwwU6iN1v2SQ9+NMAekLLxZDHNHdIAb4CwAIQ5xBznTE/egK99nbNaX56YLrSDnKBPgDukgxx02sHiA65P2uFsnlw4yAe6W9U3Z2hXE8eOHdYDbx1kAQhySCnKmwrW6l+ls4MkzOrxNNVJz+lb1q58JEMBLwls5rEsqafi+ZgLEdh3mIpwAYca/7WUiAwhxSDrImbvmgzY+e7zhyzNTTve+LWY0DHLDnEEgwF3oDQNcqhbuNr1y2zc0W5MfIqgPmMgAQhysBblTSd9Bm0eno/XUr09txskd4gxCjgOctZvAqJhZrOYR6xqYAFflbAAhDla8NcEZq6bX7eJUMU2PT5djKu99THpAzsJba9s8Scnj0+WYx6u3bWisZtLDoW/+wR2DnBEgxMF2kOsJg1xsj0RMgHtqsigzzcydqq3xMAQ55CjAubpM0aqZteV2buwoyA3pANfPGQFCHFwJcrFtzZXhAEeQAwEuf0FuRAc4ttRCpHyKAGuhKyUzUD/yMV45CHASNmqnwkYOIMClkKmjTF21zGSr1kQGzggQ4uBikDPjO4ai/JlmDFzGA9z8IHeSswgZdTLLAW5+kDN11lIB7pssJQJCHBx2SJSMiLkbXePr+XStAReFSjhjD8iM8Jyu5OX3NXWWqbteVqe1JzKwlAhiwZg4ROatv3O+LO0dHVb9eHCi4es72kJei3Af68ghIwEutrGyrrttQ1M2vbiO3OA3P34HSwqBEIfUBLlVb83VCDx5fPmxJVlmHrfcxc4OSHmAW/PNXJqZCQ6v2tiQoq+GdYBjSy3Ee75RBIiSrrTMY4NVTaF/ZrqQ5wAnYaN3grMIKZe6nRii1FrXcrowutp6ECDEwXaQG5IOJzpcnfVlqknHsLTHx/VRDEij8Nyt5L0cZppe6cdXu3o5IxA3Wk3E5q2/s7Ktucyda22iK++9cPOZu/hdrB+HlAU40/t2TnLcC8d1jKTRE4c4mfEgtWVrutkCAe6lTCN4kGJAyhwkwHEdI1n0xCFW4USHRbfmoheOu3ikH71wXMewg544xGq5iQ70wnEXj0ygF47rGBbQE4dEvPV3zg/ot8Pz/zd64biLR/rRC8d1DHvoiUMivvnxOwZ0Vhuav5D5eMMnwC1/F88MN7iulwDHdQxCHLLPrFx+bfuZK3VOvxU4QBGAc5QyAhbC41Qk6i2/UyvrtwcbgVc6P9FFgazMLnZxgIvC3RnOURJcx7CDrhAk6lsfL5tKbK/ZIxUrxqMYcG5SVgAhDk4EuZHL9UKVklixPRQBODcpK4AQByc0FVvzcAcPzk3KCiDEIVXu3n+BAEeZgXOSMgMIcUihHoqAMgPnJGUGrE2RIoAFuymCzhQ8tect/742QknAFbUJtaepWOCAug+EOORNmSLoTLffGk/DmBq4dE7KVJNyoO6DTTxOBRVZCsyyswU4J6n7AEIcqMjSpxHw2Aqck9R9ACEOAACAEAcAAABCHIBFNJgJCKReuN8sQIgDFVieFD1GkoMbirQ7c3xHjVIAIQ5UYAC4oQAIcQAAAEjVDRVFAKQDfR8AAEIcbKsJ6yV1dqGax1ekODh2TjI2blV1HxAZHqeCiiwFurhSwTlJ3QcQ4kBFlj4MJAfnJHUfQIiDC85SBJ3p9mkwwTlJ3QcQ4mDfCEXQmXU0mOCcpO4DrsOoVFhx9/4LtAAdePWmOoUA5/x0optC6MCZ4ztocxEpeuJgyzBFsDKbCgGFAM5N6jyAEAdnnKYIVmZ9gU5LcG5S5wGEOHBXmjqbivR2gHOTOg8gxMER4R6qDPJdhpkByFIOcJU5N5mluiIj7BsNQhyy5hhFsLRtXU0KAZyj1HUAIQ7OMY8XRimGRS5Oj4HjcJ85R33mXC5lVHiUCkIcsubM8R2j3KEuzvRw0DgiDTcb9MYt6VhY1wGEOGTOoNAbt3DDWKRhREpuOIrccCxiNKzjAEIcsofeuEUaRXrhkLabDnrjFkIvHAhxyDx6465vEOmFQ9puPOiNux69cCDEIfvCO9VDlETbTd0NGkOk8ubDnLu45hC9cIgbTQWccff+C6f0WyXPZbChoOS29bOcDEiti9NdMtXMfdNS1QFuL2cDYr95ogjgkH7J8WNV05Nxyzp6MpBu5hzOeU/yaFiXAbGjJw5OuXv/hV79djKPv/vN3c3qVgaHIwPGZgvyfL1Qyemvv+/M8R2sCwdCHHIb5I7qt4M5+7UHdcXPuEBwHXMdA4Q4pL4ByNP4OMbPgOuY6xjoGGPi4Kp9+jWSg99zJPxdAa5jrmOgI/TEweW7+JJ+M3fyPRmu+PeyDAG4jrmOAUIcaACo+AGuY65j5ASPU+G0sHI040yqGfq1qlT84DrmOgbWip44pOluPguz3Zi9Bq5jrmOAEIdcNgBmHbkT+lVK2VdvLQDK+lEA1zFAiEOeG4By2ABUUvKVq2HFX+PoAVzHACEONAL7L/Tpt6MO382bu3azCfYQRwvgOgYIccBLGwBT8ZvxNQccagRMpX9M2uNmGPQMcB0DhDjA8UaASh/gOgYIccAaGoHesBFIak2qkbDSH6bSB7iOAUIcsPaGoBw2BHvC9yiZ2Wmnwwq/RmkDXMcAIQ6IrzGohHf1u/WrPO+1lNq811lzt64r+yqlCXAdAwDcaRxK4V0/AK5jAAAAAAAAAAAAAAAAAAAAAAAAAAAAAAAAAAAAAAAAAAAAAAAAAAAAAAAAAAAAAAAAAAAAAAAAAAAAAAAAAAAAAAAAAAAAAAAAAAAAAAAAAAAAAAAAAAAAAAAAAAAAAAAAAAAAAAAAAAAAAAAAAAAAAAAAAACATPr/BRgAqbzMbYb9KekAAAAASUVORK5CYII=;" parent="1" vertex="1">
                    <mxGeometry x="930" y="-80" width="60" height="60" as="geometry"/>
                </mxCell>
                <mxCell id="334" value="" style="endArrow=classic;html=1;exitX=0.995;exitY=0.63;exitDx=0;exitDy=0;rounded=1;exitPerimeter=0;" parent="1" source="274" edge="1">
                    <mxGeometry width="50" height="50" relative="1" as="geometry">
                        <mxPoint x="855" y="-154" as="sourcePoint"/>
                        <mxPoint x="845" y="-570" as="targetPoint"/>
                        <Array as="points">
                            <mxPoint x="1050" y="-465"/>
                            <mxPoint x="1050" y="-570"/>
                        </Array>
                    </mxGeometry>
                </mxCell>
                <mxCell id="372" value="9. Nachricht (REST im &lt;br&gt;FIPA-ACL Format)&amp;nbsp;- Bild ist fertig)" style="edgeLabel;html=1;align=center;verticalAlign=middle;resizable=0;points=[];fontColor=default;" parent="334" vertex="1" connectable="0">
                    <mxGeometry x="0.6863" y="2" relative="1" as="geometry">
                        <mxPoint x="19" y="-31" as="offset"/>
                    </mxGeometry>
                </mxCell>
                <mxCell id="335" value="Horizontal Pod&lt;br&gt;Autoscaler CA" style="sketch=0;html=1;dashed=0;whitespace=wrap;fillColor=#2875E2;strokeColor=#ffffff;points=[[0.005,0.63,0],[0.1,0.2,0],[0.9,0.2,0],[0.5,0,0],[0.995,0.63,0],[0.72,0.99,0],[0.5,1,0],[0.28,0.99,0]];verticalLabelPosition=bottom;align=center;verticalAlign=top;shape=mxgraph.kubernetes.icon;prIcon=hpa" parent="1" vertex="1">
                    <mxGeometry x="588" y="-760.0043016774196" width="48" height="48.83860335483872" as="geometry"/>
                </mxCell>
                <mxCell id="342" value="" style="endArrow=classic;html=1;exitX=0.004;exitY=0.239;exitDx=0;exitDy=0;entryX=0.25;entryY=0;entryDx=0;entryDy=0;entryPerimeter=0;exitPerimeter=0;" parent="1" source="268" target="340" edge="1">
                    <mxGeometry width="50" height="50" relative="1" as="geometry">
                        <mxPoint x="945" y="-581.5" as="sourcePoint"/>
                        <mxPoint x="490" y="-530" as="targetPoint"/>
                        <Array as="points">
                            <mxPoint x="-117" y="-582"/>
                        </Array>
                    </mxGeometry>
                </mxCell>
                <mxCell id="344" value="1. Bild hochladen (Azure Blob Storage SDK)" style="edgeLabel;html=1;align=center;verticalAlign=middle;resizable=0;points=[];" parent="342" vertex="1" connectable="0">
                    <mxGeometry x="0.3089" y="1" relative="1" as="geometry">
                        <mxPoint x="117" y="-3" as="offset"/>
                    </mxGeometry>
                </mxCell>
                <mxCell id="345" value="" style="endArrow=classic;html=1;exitX=0.75;exitY=0;exitDx=0;exitDy=0;exitPerimeter=0;entryX=0;entryY=0.5;entryDx=0;entryDy=0;dashed=1;" parent="1" source="340" target="268" edge="1">
                    <mxGeometry width="50" height="50" relative="1" as="geometry">
                        <mxPoint x="750" y="-520" as="sourcePoint"/>
                        <mxPoint x="800" y="-570" as="targetPoint"/>
                        <Array as="points">
                            <mxPoint x="-90" y="-564"/>
                        </Array>
                    </mxGeometry>
                </mxCell>
                <mxCell id="346" value="2. Erfolgs-/Fehlermeldung senden" style="edgeLabel;html=1;align=center;verticalAlign=middle;resizable=0;points=[];" parent="345" vertex="1" connectable="0">
                    <mxGeometry x="-0.0919" y="2" relative="1" as="geometry">
                        <mxPoint x="99" y="2" as="offset"/>
                    </mxGeometry>
                </mxCell>
                <mxCell id="348" style="edgeStyle=none;rounded=1;html=1;exitX=-0.023;exitY=0.596;exitDx=0;exitDy=0;fontColor=default;exitPerimeter=0;" parent="1" source="272" target="340" edge="1">
                    <mxGeometry relative="1" as="geometry"/>
                </mxCell>
                <mxCell id="353" value="5. Originalbild herunterladen (Azure Blob Storage SDK)" style="edgeLabel;html=1;align=center;verticalAlign=middle;resizable=0;points=[];fontColor=default;" parent="348" vertex="1" connectable="0">
                    <mxGeometry x="-0.4553" relative="1" as="geometry">
                        <mxPoint x="-30" y="-2" as="offset"/>
                    </mxGeometry>
                </mxCell>
                <mxCell id="350" style="edgeStyle=none;rounded=1;html=1;exitX=0;exitY=0.75;exitDx=0;exitDy=0;entryX=0.25;entryY=1;entryDx=0;entryDy=0;entryPerimeter=0;fontColor=default;" parent="1" source="291" target="340" edge="1">
                    <mxGeometry relative="1" as="geometry">
                        <Array as="points">
                            <mxPoint x="-117" y="-147"/>
                        </Array>
                    </mxGeometry>
                </mxCell>
                <mxCell id="355" value="5. Originalbild herunterladen (Azure Blob Storage SDK)" style="edgeLabel;html=1;align=center;verticalAlign=middle;resizable=0;points=[];fontColor=default;" parent="350" vertex="1" connectable="0">
                    <mxGeometry x="-0.6674" y="1" relative="1" as="geometry">
                        <mxPoint x="-100" y="-1" as="offset"/>
                    </mxGeometry>
                </mxCell>
                <mxCell id="352" value="" style="group" parent="1" vertex="1" connectable="0">
                    <mxGeometry x="-250" y="-452.16" width="170" height="45" as="geometry"/>
                </mxCell>
                <mxCell id="340" value="" style="verticalLabelPosition=bottom;html=1;verticalAlign=top;align=center;strokeColor=none;fillColor=#00BEF2;shape=mxgraph.azure.storage_blob;flipH=0;" parent="352" vertex="1">
                    <mxGeometry x="120" width="50" height="45" as="geometry"/>
                </mxCell>
                <mxCell id="351" value="&lt;span style=&quot;&quot;&gt;Azure Blob Storage&lt;/span&gt;&lt;br style=&quot;&quot;&gt;&lt;span style=&quot;&quot;&gt;&lt;b&gt;Input&lt;/b&gt;&lt;/span&gt;" style="text;html=1;strokeColor=none;fillColor=none;align=center;verticalAlign=middle;whiteSpace=wrap;rounded=0;strokeWidth=0;fontColor=default;opacity=0;" parent="352" vertex="1">
                    <mxGeometry y="7.5" width="120" height="30" as="geometry"/>
                </mxCell>
                <mxCell id="362" value="" style="group" parent="1" vertex="1" connectable="0">
                    <mxGeometry x="1280" y="-335.1600000000001" width="180" height="45" as="geometry"/>
                </mxCell>
                <mxCell id="357" value="" style="verticalLabelPosition=bottom;html=1;verticalAlign=top;align=center;strokeColor=none;fillColor=#00BEF2;shape=mxgraph.azure.storage_blob;flipH=0;" parent="362" vertex="1">
                    <mxGeometry width="50" height="45" as="geometry"/>
                </mxCell>
                <mxCell id="358" value="&lt;span style=&quot;&quot;&gt;Azure Blob Storage&lt;/span&gt;&lt;br style=&quot;&quot;&gt;&lt;b&gt;Output&lt;/b&gt;" style="text;html=1;strokeColor=none;fillColor=none;align=center;verticalAlign=middle;whiteSpace=wrap;rounded=0;strokeWidth=0;fontColor=default;opacity=0;" parent="362" vertex="1">
                    <mxGeometry x="50" y="7.5" width="120" height="30" as="geometry"/>
                </mxCell>
                <mxCell id="363" style="edgeStyle=none;rounded=1;html=1;exitX=1;exitY=0.25;exitDx=0;exitDy=0;entryX=0.5;entryY=0;entryDx=0;entryDy=0;entryPerimeter=0;fontColor=default;" parent="1" source="272" target="357" edge="1">
                    <mxGeometry relative="1" as="geometry">
                        <Array as="points">
                            <mxPoint x="1305" y="-450"/>
                        </Array>
                    </mxGeometry>
                </mxCell>
                <mxCell id="364" style="edgeStyle=none;rounded=1;html=1;exitX=1;exitY=0.25;exitDx=0;exitDy=0;entryX=0;entryY=0.5;entryDx=0;entryDy=0;entryPerimeter=0;fontColor=default;" parent="1" source="277" target="357" edge="1">
                    <mxGeometry relative="1" as="geometry"/>
                </mxCell>
                <mxCell id="365" style="edgeStyle=none;rounded=1;html=1;exitX=1;exitY=0.25;exitDx=0;exitDy=0;entryX=0.25;entryY=1;entryDx=0;entryDy=0;entryPerimeter=0;fontColor=default;" parent="1" source="291" target="357" edge="1">
                    <mxGeometry relative="1" as="geometry">
                        <Array as="points">
                            <mxPoint x="1293" y="-181"/>
                        </Array>
                    </mxGeometry>
                </mxCell>
                <mxCell id="368" style="edgeStyle=none;rounded=1;html=1;exitX=1;exitY=0.75;exitDx=0;exitDy=0;entryX=0.75;entryY=0;entryDx=0;entryDy=0;entryPerimeter=0;fontColor=default;" parent="1" source="268" target="357" edge="1">
                    <mxGeometry relative="1" as="geometry">
                        <Array as="points">
                            <mxPoint x="1318" y="-550"/>
                        </Array>
                    </mxGeometry>
                </mxCell>
                <mxCell id="373" value="10. Bild abrufen &lt;br&gt;(Azure Blob Storage SDK)" style="edgeLabel;html=1;align=center;verticalAlign=middle;resizable=0;points=[];fontColor=default;" parent="368" vertex="1" connectable="0">
                    <mxGeometry x="0.053" relative="1" as="geometry">
                        <mxPoint x="-2" y="-18" as="offset"/>
                    </mxGeometry>
                </mxCell>
                <mxCell id="370" value="6. Speichert komprimiertes Bild&lt;br&gt;(Azure Blob Storage SDK)" style="edgeLabel;html=1;align=center;verticalAlign=middle;resizable=0;points=[];fontColor=default;" parent="1" vertex="1" connectable="0">
                    <mxGeometry x="1185.0047485487491" y="-467.00182175326495" as="geometry"/>
                </mxCell>
                <mxCell id="375" style="edgeStyle=none;rounded=1;html=1;exitX=0.5;exitY=0;exitDx=0;exitDy=0;entryX=0;entryY=1;entryDx=0;entryDy=0;fontColor=default;" parent="1" source="374" target="302" edge="1">
                    <mxGeometry relative="1" as="geometry"/>
                </mxCell>
                <mxCell id="374" value="&lt;h1&gt;Peak Lock aktivieren&lt;/h1&gt;&lt;p&gt;Die Nachricht bleibt in der Queue gesperrt, bis der Agent bestätigt, dass sie erfolgreich verarbeitet wurde. Falls die Verarbeitung fehlschlägt oder der Agent abstürzt, wird die Nachricht nach einer bestimmten Zeit automatisch freigegeben und kann von einem anderen Agenten erneut verarbeitet werden.&lt;/p&gt;" style="text;html=1;strokeColor=#F0F0F0;fillColor=none;spacing=5;spacingTop=-20;whiteSpace=wrap;overflow=hidden;rounded=0;strokeWidth=4;fontColor=default;opacity=0;" parent="1" vertex="1">
                    <mxGeometry x="-140" y="-120" width="190" height="230" as="geometry"/>
                </mxCell>
                <mxCell id="376" value="" style="endArrow=classic;html=1;rounded=1;fontColor=default;exitX=0;exitY=0.75;exitDx=0;exitDy=0;entryX=0.75;entryY=0;entryDx=0;entryDy=0;" parent="1" source="272" target="302" edge="1">
                    <mxGeometry width="50" height="50" relative="1" as="geometry">
                        <mxPoint x="680" y="-360" as="sourcePoint"/>
                        <mxPoint x="730" y="-410" as="targetPoint"/>
                        <Array as="points">
                            <mxPoint x="117" y="-413"/>
                        </Array>
                    </mxGeometry>
                </mxCell>
                <mxCell id="377" style="edgeStyle=none;rounded=1;html=1;exitX=0;exitY=0.5;exitDx=0;exitDy=0;entryX=1.018;entryY=0.62;entryDx=0;entryDy=0;entryPerimeter=0;fontColor=default;" parent="1" source="277" target="302" edge="1">
                    <mxGeometry relative="1" as="geometry"/>
                </mxCell>
                <mxCell id="378" value="8. Verarbeitung bestätigen &amp;amp; Nachricht aus Queue löschen (Azure SDK AMQP)" style="edgeLabel;html=1;align=center;verticalAlign=middle;resizable=0;points=[];fontColor=default;" parent="377" vertex="1" connectable="0">
                    <mxGeometry x="0.1777" y="-1" relative="1" as="geometry">
                        <mxPoint x="36" as="offset"/>
                    </mxGeometry>
                </mxCell>
                <mxCell id="380" style="edgeStyle=none;rounded=1;html=1;exitX=0;exitY=0.5;exitDx=0;exitDy=0;entryX=0.5;entryY=1;entryDx=0;entryDy=0;fontColor=default;" parent="1" source="291" target="302" edge="1">
                    <mxGeometry relative="1" as="geometry">
                        <Array as="points">
                            <mxPoint x="103" y="-164"/>
                        </Array>
                    </mxGeometry>
                </mxCell>
                <mxCell id="382" value="" style="endArrow=classic;html=1;exitX=0.75;exitY=0;exitDx=0;exitDy=0;entryX=1;entryY=0.75;entryDx=0;entryDy=0;curved=1;dashed=1;dashPattern=1 4;" parent="1" source="322" target="272" edge="1">
                    <mxGeometry width="50" height="50" relative="1" as="geometry">
                        <mxPoint x="1070" y="-540" as="sourcePoint"/>
                        <mxPoint x="1120" y="-590" as="targetPoint"/>
                        <Array as="points">
                            <mxPoint x="940" y="-360"/>
                        </Array>
                    </mxGeometry>
                </mxCell>
                <mxCell id="384" value="" style="endArrow=classic;html=1;dashed=1;dashPattern=1 4;curved=1;exitX=0.5;exitY=0;exitDx=0;exitDy=0;entryX=1;entryY=0.75;entryDx=0;entryDy=0;" parent="1" source="322" target="277" edge="1">
                    <mxGeometry width="50" height="50" relative="1" as="geometry">
                        <mxPoint x="1020" y="-170" as="sourcePoint"/>
                        <mxPoint x="1070" y="-220" as="targetPoint"/>
                        <Array as="points">
                            <mxPoint x="930" y="-220"/>
                        </Array>
                    </mxGeometry>
                </mxCell>
                <mxCell id="389" value="" style="group" parent="1" vertex="1" connectable="0">
                    <mxGeometry x="9.999267086281975" y="-329.99500000000006" width="120.00073291371802" height="54.670000000000016" as="geometry"/>
                </mxCell>
                <mxCell id="302" value="" style="shape=image;verticalLabelPosition=bottom;labelBackgroundColor=default;verticalAlign=top;aspect=fixed;imageAspect=0;image=data:image/svg+xml,PHN2ZyB4bWxuczp4bGluaz0iaHR0cDovL3d3dy53My5vcmcvMTk5OS94bGluayIgeG1sbnM9Imh0dHA6Ly93d3cudzMub3JnLzIwMDAvc3ZnIiBzdHJva2UtbGluZWpvaW49InJvdW5kIiBzdHJva2UtbGluZWNhcD0icm91bmQiIHN0cm9rZT0iIzAwMCIgZmlsbC1ydWxlPSJldmVub2RkIiBmaWxsPSIjZmZmIiB2aWV3Qm94PSIwIDAgODEgODIiPjx1c2UgeT0iLjUiIHg9Ii41IiB4bGluazpocmVmPSIjQSIvPjxzeW1ib2wgb3ZlcmZsb3c9InZpc2libGUiIGlkPSJBIj48cGF0aCBzdHJva2U9Im5vbmUiIGZpbGw9IiMwMDcyYzYiIGQ9Ik0xLjMzMyAwQy41MzMgMCAwIC41MzMgMCAxLjMzM3YxNmMwIC44LjUzMyAxLjMzMyAxLjMzMyAxLjMzM2g4Yy44IDAgMS4zMzMtLjUzMyAxLjMzMy0xLjMzM3YtNi42NjZoNTguNjY3djYuNjY3YzAgLjguNTMzIDEuMzMzIDEuNiAxLjMzM2g3LjczM2MuOCAwIDEuMzMzLS41MzMgMS4zMzMtMS4zMzN2LTgtOEM4MCAuNTMzIDc5LjQ2NyAwIDc4LjY2NyAwaDBIMS4zMzN6bTc3LjMzNCA4MGMuOCAwIDEuMzMzLS41MzMgMS4zMzMtMS4zMzNWNjIuOTM0YzAtLjgtLjUzMy0xLjMzMy0xLjMzMy0xLjMzM2gtNy43MzNjLS44IDAtMS4zMzMuNTMzLTEuMzMzIDEuMzMzdjYuNEgxMC42Njd2LTYuNjY3YzAtLjgtLjUzMy0xLjMzMy0xLjYtMS4zMzNIMS4zMzNjLS44IDAtMS4zMzMuNTMzLTEuMzMzIDEuNnYxNS43MzNDMCA3OS40NjcuNTMzIDgwIDEuMzMzIDgwaDc3LjMzNHoiLz48cGF0aCBmaWxsPSIjNTliNGQ5IiBzdHJva2U9Im5vbmUiIGQ9Ik0xOS43MTggNDEuMTM4Yy0xLjM0NCAxLjM0NC0zLjEzMyAyLjA4NS01LjAzNSAyLjA4NXMtMy42OS0uNzQxLTUuMDM1LTIuMDg1TDAgMzEuNDl2MTkuNjEzaDI5LjM2NlYzMS40OWwtOS42NDggOS42NDh6bS01LjAzNS42NTJhNS42NSA1LjY1IDAgMCAwIDQuMDIyLTEuNjY2bDEwLjY2MS0xMC42NjF2LS41NjVIMHYuNTY2bDEwLjY2MSAxMC42NjFhNS42NSA1LjY1IDAgMCAwIDQuMDIyIDEuNjY0em01NS42NjktLjY1MmMtMS4zNDQgMS4zNDQtMy4xMzMgMi4wODUtNS4wMzUgMi4wODVzLTMuNjktLjc0MS01LjAzNS0yLjA4NWwtOS42NDgtOS42NDh2MTkuNjEzSDgwVjMxLjQ5bC05LjY0OCA5LjY0OHptLTUuMDM1LjY1MmE1LjY1IDUuNjUgMCAwIDAgNC4wMjItMS42NjZMODAgMjkuNDY0di0uNTY1SDUwLjYzNHYuNTY2bDEwLjY2MSAxMC42NjFhNS42NSA1LjY1IDAgMCAwIDQuMDIyIDEuNjY0eiIvPjxwYXRoIGZpbGw9IiNiOGQ0MzIiIHN0cm9rZT0ibm9uZSIgZD0iTTQxLjMwMSAzOC4wNDdoNC45MzR2My44OTRoLTQuOTM0em0tNy42MzQgMGg1LjIxOXYzLjg5NGgtNS4yMTl6Ii8+PC9zeW1ib2w+PC9zdmc+;" parent="389" vertex="1">
                    <mxGeometry x="66.00073291371802" width="54" height="54.67" as="geometry"/>
                </mxCell>
                <mxCell id="388" value="Azure Service&lt;br&gt;Bus Queue" style="edgeLabel;html=1;align=center;verticalAlign=middle;resizable=0;points=[];" parent="389" vertex="1" connectable="0">
                    <mxGeometry y="27.33499999999998" as="geometry"/>
                </mxCell>
                <mxCell id="390" value="" style="endArrow=classic;html=1;rounded=1;strokeColor=#FFFFFF;exitX=-0.05;exitY=0.75;exitDx=0;exitDy=0;entryX=0.25;entryY=1;entryDx=0;entryDy=0;exitPerimeter=0;" parent="1" source="322" target="302" edge="1">
                    <mxGeometry width="50" height="50" relative="1" as="geometry">
                        <mxPoint x="800" y="-120" as="sourcePoint"/>
                        <mxPoint x="850" y="-170" as="targetPoint"/>
                        <Array as="points">
                            <mxPoint x="90" y="-30"/>
                        </Array>
                    </mxGeometry>
                </mxCell>
                <mxCell id="391" value="" style="endArrow=classic;html=1;strokeColor=#FFFFFF;entryX=0.5;entryY=0;entryDx=0;entryDy=0;entryPerimeter=0;dashed=1;dashPattern=1 4;curved=1;" parent="1" source="335" target="270" edge="1">
                    <mxGeometry width="50" height="50" relative="1" as="geometry">
                        <mxPoint x="850" y="-300" as="sourcePoint"/>
                        <mxPoint x="900" y="-350" as="targetPoint"/>
                        <Array as="points">
                            <mxPoint x="780" y="-750"/>
                        </Array>
                    </mxGeometry>
                </mxCell>
                <mxCell id="392" value="Prüft den CPU Verbrauch des Pods und skaliert nach Bedarf" style="text;html=1;strokeColor=none;fillColor=none;align=center;verticalAlign=middle;whiteSpace=wrap;rounded=0;" parent="1" vertex="1">
                    <mxGeometry x="630" y="-790" width="130" height="40" as="geometry"/>
                </mxCell>
                <mxCell id="394" value="&lt;font style=&quot;font-size: 14px;&quot;&gt;Azure Service Endpoints aktivieren und CNI für Kommunikation&lt;/font&gt;" style="text;html=1;strokeColor=none;fillColor=none;align=center;verticalAlign=middle;whiteSpace=wrap;rounded=0;" parent="1" vertex="1">
                    <mxGeometry x="150" y="-750" width="180" height="30" as="geometry"/>
                </mxCell>
                <mxCell id="395" value="6. Speichert komprimiertes Bild&lt;br&gt;(Azure Blob Storage SDK)" style="edgeLabel;html=1;align=center;verticalAlign=middle;resizable=0;points=[];fontColor=default;" vertex="1" connectable="0" parent="1">
                    <mxGeometry x="1195.0047485487491" y="-329.99182175326496" as="geometry"/>
                </mxCell>
                <mxCell id="397" value="6. Speichert komprimiertes Bild&lt;br&gt;(Azure Blob Storage SDK)" style="edgeLabel;html=1;align=center;verticalAlign=middle;resizable=0;points=[];fontColor=default;" vertex="1" connectable="0" parent="1">
                    <mxGeometry x="1185.0047485487491" y="-200.00182175326495" as="geometry"/>
                </mxCell>
                <mxCell id="403" value="" style="endArrow=classic;html=1;dashed=1;exitX=0.307;exitY=0.001;exitDx=0;exitDy=0;exitPerimeter=0;entryX=1;entryY=0.5;entryDx=0;entryDy=0;" edge="1" parent="1" source="357" target="272">
                    <mxGeometry width="50" height="50" relative="1" as="geometry">
                        <mxPoint x="990" y="-360" as="sourcePoint"/>
                        <mxPoint x="1040" y="-410" as="targetPoint"/>
                        <Array as="points">
                            <mxPoint x="1295" y="-430"/>
                        </Array>
                    </mxGeometry>
                </mxCell>
                <mxCell id="408" value="7. Bestätigung erhalten:&lt;br&gt;Datei erfolgreich gespeichert" style="edgeLabel;html=1;align=center;verticalAlign=middle;resizable=0;points=[];" vertex="1" connectable="0" parent="403">
                    <mxGeometry x="-0.177" y="2" relative="1" as="geometry">
                        <mxPoint x="19" y="21" as="offset"/>
                    </mxGeometry>
                </mxCell>
                <mxCell id="406" value="" style="endArrow=classic;html=1;dashed=1;exitX=0.5;exitY=1;exitDx=0;exitDy=0;exitPerimeter=0;entryX=1;entryY=0.5;entryDx=0;entryDy=0;" edge="1" parent="1" source="357" target="291">
                    <mxGeometry width="50" height="50" relative="1" as="geometry">
                        <mxPoint x="1305.3500000000004" y="-250" as="sourcePoint"/>
                        <mxPoint x="855" y="-154.11500000000024" as="targetPoint"/>
                        <Array as="points">
                            <mxPoint x="1305" y="-164"/>
                        </Array>
                    </mxGeometry>
                </mxCell>
                <mxCell id="407" value="" style="endArrow=classic;html=1;dashed=1;exitX=0.11;exitY=0.764;exitDx=0;exitDy=0;exitPerimeter=0;entryX=1.011;entryY=0.441;entryDx=0;entryDy=0;entryPerimeter=0;" edge="1" parent="1" source="357" target="277">
                    <mxGeometry width="50" height="50" relative="1" as="geometry">
                        <mxPoint x="990" y="-260" as="sourcePoint"/>
                        <mxPoint x="850" y="-301" as="targetPoint"/>
                    </mxGeometry>
                </mxCell>
                <mxCell id="409" value="7. Bestätigung erhalten:&lt;br&gt;Datei erfolgreich gespeichert" style="edgeLabel;html=1;align=center;verticalAlign=middle;resizable=0;points=[];" vertex="1" connectable="0" parent="1">
                    <mxGeometry x="1185.0090962384393" y="-275.3274637367604" as="geometry"/>
                </mxCell>
                <mxCell id="410" value="7. Bestätigung erhalten:&lt;br&gt;Datei erfolgreich gespeichert" style="edgeLabel;html=1;align=center;verticalAlign=middle;resizable=0;points=[];" vertex="1" connectable="0" parent="1">
                    <mxGeometry x="1185.0090962384393" y="-139.99746373676044" as="geometry"/>
                </mxCell>
                <mxCell id="411" value="Cluster Autoscaler&#10;Skaliert Anzahl Worker Nodes bei Bedarf" style="shape=image;verticalLabelPosition=bottom;labelBackgroundColor=default;verticalAlign=top;aspect=fixed;imageAspect=0;image=data:image/png,iVBORw0KGgoAAAANSUhEUgAAA44AAAOQCAYAAAB2Ky9/AAAACXBIWXMAAAsTAAALEwEAmpwYAAAAeGVYSWZNTQAqAAAACAAFARIAAwAAAAEAAQAAARoABQAAAAEAAABKARsABQAAAAEAAABSASgAAwAAAAEAAgAAh2kABAAAAAEAAABaAAAAAAAAAEgAAAABAAAASAAAAAEAAqACAAQAAAABAAADjqADAAQAAAABAAADkAAAAAC5qiEeAAAgAElEQVR4nOzdd5xcdb3/8ff3nJnZ2Z5NNpVkEyChJCFU8QIihKZ0AgQURLAFEoqgWLjKjyh4vVKkg6Je9SqggIAKtgsEQaoiKh0CJJCQtpvtbcr5/v5YFkOAw5aZOWVez8cDHw/RbD67mcw5r/me8z0SAAAAAAAAAGDodl9wzbg5Cy+eFPQcAACEhQl6AAAAwmTOwu+OTXjmXnmqTBjNf+L2c9YEPRMAAEFzgh4AAICw2H3BNeMSed0jq51ktG1Oun/nI66eEvRcAAAEjRVHAAC0yUqj1U5jGmqVSia0fn2rJL2UkPZh5REAUM5YcQQAlL05C787dnClcUxDrY5ZOF9HHbOvxk9okKRZOen+XY++fHLQcwIAEBRWHAEAZe2taJTZeTAaq6srJUl9fRnd8av7tWFg5fHFhLQvK48AgHJEOAIAypZfNA4iHgEAIBwBAGVqKNE4iHgEAJQ7whEAUHaGE42DiEcAQDkjHAEAZWUk0TiIeAQAlCvCEQBQNkYTjYOIRwBAOSIcAQBloRDROIh4BACUG8IRABB7hYzGQcQjAKCcEI4AgFgrRjQOIh4BAOXCCXoAAACKpZjRKEnpdEoLjtlX4yc0SNI2Oatlux59+eSC/QYAAIQEK44AgFgqdjRu6m0rj1YvJIzms/IIAIgTwhEAEDuljMZBxCMAIM4IRwBArAQRjYOIRwBAXBGOAIDYCDIaBxGPAIA4IhwBALEQhmgcRDwCAOKGXVUBAJG3aTQ2BByN0ia7rY4fIxlty26rAICoY8URABBpm0fj0QFH46b6+jK647Zl2rChjZVHAECkEY4AgMgKczQOIh4BAHFAOAIAIikK0TiIeAQARB3hCACInDkLvzs24Zl7ZbVT2KNxEPEIAIgywhEAEClRjMZBxCMAIKoIRwBAZEQ5GgcRjwCAKCIcAQCREIdoHEQ8AgCihnAEAIRenKJxEPEIAIgSwhEAEGpxjMZBxCMAICoIRwBAaMU5GgcRjwCAKCAcAQChVA7ROIh4BACEHeEIAAidcorGQcQjACDMCEcAQKiUYzQOIh4BAGFFOAIAQqOco3EQ8QgACCPCEQAQCkTjvxGPAICwIRwBAIEjGt+JeAQAhAnhCAAIFNH43ohHAEBYEI4AgMAQje+PeAQAhAHhCAAIBNE4dMQjACBohCMAoOSIxuEjHgEAQSIcAQAlRTSOHPEIAAgK4QgAKBmicfSIRwBAEAhHAEBJEI2FQzwCAEqNcAQAFB3RWHjEIwCglAhHAEBREY3FQzwCAEqFcAQAFA3RWHzEIwCgFAhHAEBREI2lQzwCAIqNcAQAFBzRWHrEIwCgmAhHAEBBEY3BIR4BAMVCOAIACoZoDB7xCAAoBsIRAFAQRGN4EI8AgEIjHAEAo0Y0hg/xCAAoJMIRADAqRGN4EY8AgEIhHAEAI0Y0hh/xCAAoBMIRADAiRGN0EI8AgNEiHAEAw0Y0Rg/xCAAYDcIRADAsRGN0EY8AgJFygh4AABAduy+4ZhzRGF3pdEoLjp2v8ePHSEbb5qyW7Xr05ZODngsAEH6sOAIAhmT3BdeM63ey9xCN0cfKIwBguAhHAMD7Ihrjh3gEAAwH4QgA8EU0xhfxCAAYKjfoAQAA4UU0xlsi4WrWNk16beVa9fT0NXpWhzXusP9tG579v66gZwMAhAvhCAB4V0Rjedg8Hh3PPZx4BABsjnAEALwD0VheiEcAwPshHAEAb0M0lifiEQDgh3AEALyFaCxvxCMA4L0QjgAASUQjBhCPAIB3QzgCAIhGvA3xCADYHOEIAGVu82g8ZuF+RCOIRwDA2xCOAFDG3i0aq6rTQY+FkCAeAQCDCEcAKFNEI4biHfFoE4c1zt3vV8QjAJQXwhEAyhDRiOEgHgEAhCMAlBmiESMxGI8riUcAKEuEIwCUEaIRo0E8AkD5IhwBoEwQjSgE4hEAyhPhCABlgGhEIRGPAFB+CEcAiLndF1wzrt9k75W0U8PYOqIRBUE8AkB5IRwBIMY2icYdG8bW6Zhj5xONKBjiEQDKB+EIADFFNKIUiEcAKA+EIwDEENGIUiIeASD+CEcAiBmiEUEgHgEg3ghHAIgRohFBIh4BIL4IRwCICaIRYUA8AkA8EY4AEANEI8KEeASA+CEcASDiiEaEEfEIAPFCOAJAhBGNCDPiEQDig3AEgIgiGhEFxCMAxAPhCAARRDQiSohHAIg+whEAIoZoRBQRjwAQbYQjAEQI0YgoIx4BILoIRwCICKIRcUA8AkA0EY4AEAFEI+KEeASA6CEcASDkiEbEEfEIANFCOAJAiBGNiDPiEQCig3AEgJAiGlEOiEcAiAbCEQBCiGhEOSEeASD8CEcACBmiEeWIeASAcCMcASBEiEaUM+IRAMKLcASAkCAaAeIRAMKKcASAECAagX8jHgEgfAhHAAgY0Qi8E/EIAOFCOAJAgIhG4L0RjwAQHoQjAASEaATeH/EIAOFAOAJAAIhGYOiIRwAIHuEIACVGNALDRzwCQLAIRwAoIaIRGDniEQCCQzgCQIkQjcDoEY8AEAzCEQBKgGgECod4BIDSM0EPAABxt2k0SpIxRsbE6+33jM8vDHoEDMH3rr1duVw+6DEKxlora+2b/808n3Mz85+59ctrAx0KAGIqEfQAABBnm0ejtPnJLlA6ec+T53lBj1EkdrtEPrVszsKLiUcAKALCEQCK6PE7zmjZddH3PxD0HMWSa+7pk+QEPQeGJ13p1ueqK3qDnqMY/nnD2dmgZwCAOCIcAaDInrjh1NieyO549OVBj4ARWJfcmFlxw9LYvi4BAIXHp8QAAAAAAF+EIwAAAADAF+EIAAAAAPBFOAIAAAAAfBGOAAAAAABfhCMAAAAAwBfhCAAAAADwRTgCAAAAAHwRjgAAAAAAX4QjAAAAAMAX4QgAAAAA8EU4AgAAAAB8EY4AAAAAAF+EIwAAAADAF+EIAAAAAPBFOAIAAAAAfBGOAAAAAABfhCMAAAAAwBfhCAAAAADwRTgCAAAAAHwRjgAAAAAAX4QjAAAAAMAX4QgAAAAA8EU4AgAAAAB8EY4AAAAAAF+EIwAAAADAF+EIAAAAAPBFOAIAAAAAfBGOAAAAAABfhCMAAAAAwBfhCAAAAADwRTgCAAAAAHwRjgAAAAAAX4QjAAAAAMAX4QgAAAAA8EU4AgAAAAB8EY4AAAAAAF+EIwAAAADAF+EIAAAAAPBFOAIAAAAAfBGOAAAAAABfhCMAAAAAwBfhCAAAAADwRTgCAAAAAHwRjgAAAAAAX4QjAAAAAMAX4QgAAAAA8EU4AgAAAAB8EY4AAAAAAF+EIwAAAADAF+EIAAAAAPBFOAIAAAAAfBGOAAAAAABfhCMAAAAAwBfhCAAAAADwRTgCAAAAAHwRjgAAAAAAX4QjAAAAAMAX4QgAAAAA8EU4AgAAAAB8EY4AAAAAAF+EIwAAAADAF+EIAAAAAPBFOAIAAAAAfBGOAAAAAABfhCMAAAAAwBfhCAAAAADwRTgCAAAAAHwRjgAAAAAAX4QjAAAAAMAX4QgAAAAA8EU4AgAAAAB8EY4AAAAAAF+EIwAAAADAF+EIAAAAAPBFOAIAAAAAfBGOAAAAAABfhCMAAAAAwBfhCAAAAADwRTgCAAAAAHwRjgAAAAAAX4QjAAAAAMAX4QgAAAAA8EU4AgAAAAB8EY4AAAAAAF+EIwAAAADAF+EIAAAAAPBFOAIAAAAAfBGOAAAAAABfhCMAAAAAwBfhCAAAAADwRTgCAAAAAHwRjgAAAAAAX4QjAAAAAMAX4QgAAAAA8EU4AgAAAAB8EY4AAAAAAF+EIwAAAADAF+EIAAAAAPBFOAIAAAAAfBGOAAAAAABfhCMAAAAAwBfhCAAAAADwRTgCAAAAAHwRjgAAAAAAX4QjAAAAAMAX4QgAAAAA8EU4AgAAAAB8EY4AAAAAAF+EIwAAAADAF+EIAAAAAPBFOAIAAAAAfBGOAAAAAABfhCMAAAAAwBfhCAAAAADwRTgCAAAAAHwRjgAAAAAAX4QjAAAAAMAX4QgAAAAA8EU4AgAAAAB8EY4AAAAAAF+EIwAAAADAF+EIAAAAAPBFOAIAAAAAfBGOAAAAAABfhCMAAAAAwBfhCAAAAADwRTgCAAAAAHwRjgAAAAAAX4QjAAAAAMAX4QgAAAAA8EU4AgAAAAB8EY4AAAAAAF+EIwAAAADAF+EIAAAAAPBFOAIAAAAAfBGOAAAAAABfhCMAAAAAwBfhCAAAAADwRTgCAAAAAHwRjgAAAAAAX4QjAAAAAMAX4QgAAAAA8EU4AgAAAAB8EY4AAAAAAF+EIwAAAADAF+EIAAAAAPBFOAIAAAAAfBGOAAAAAABfhCMAAAAAwBfhCAAAAADwRTgCAAAAAHwRjgAAAAAAX4QjAAAAAMAX4QgAAAAA8EU4AgAAAAB8EY4AAAAAAF+EIwAAAADAF+EIAAAAAPCVCHoAAACC1psx6uiWuvuN+rNS3pMko4RrlU5K1Wmr+mqrFEdNAECZ4hAIAChLzR1Gf1vu6oVVrtq63///byQ11lvNbfK0y9Z51VTaos8IAEBYEI4AgLKQ96TXNjhavsbRC6sdtXS6A/+DtZLePwKtpA3tjpY97WrZU64mNVhtPzWvrSdbTRnryZiijg8AQKAIRwBA7K1Yb/SnJxNq7nCUzQ3+W28EX8m+GZrS2lajda0JPfS8NKXB00d2yWtSw0i+JgAA4Uc4AgBiqS8jrdzg6LEXXL26PiHZwkedlZTJSivWu/r+HxzNnuZp15l5TWv0lOQICwCIEQ5rAIDY+fvLrh5/0dXGTqNsXhrZ6uJwDKxCPvv6wKWw4+ut9tgupzlNrEACAOKBcAQAxEJnr9GKdUbLnkqqtctoKPctFkMmJ61uMbrtoZQees7Th+fk1DTeqqqCzXQAANFFOAIAIq0va/To866efd1RS6eR50lBRePbWa3ZaHTbQ0lNqLfaYUZeu83McwkrACCSOHwBACLHWqm7z+iplY7+/HRC/dngVhjfT96T1rQarWlN6uHnEtpvp5y2nZJXVUXQkwEAMHSEIwAgUlo6jZ5Y7ur5Vc6bl6RKYY3Gt7Pq6pN++1hCj9S52n7qwEY6dVVRmB0AUO4IRwBAJPRmjO79p6snXk69uUNqNIPLWmlDu9GGjoQefNbVh2bn9KHZnlKJaH4/AIDyQDgCAELt9WZHT61w9MxrjnoyjmTzQY9UGNbKSnrw2aT++aqnudM9zZ2e1+QGAhIAED6EIwAglNq7je54LKWV683AMp2kqK4y+rJWHT1GDz/n6uHnBi5hPWz3LPdAAgBChXAEAIRGLi+tWO/oXytcPfeao5wX3k1viuW51a6W/8bRvBl5zZ3uaVqjJ9cJeioAQLkjHAEAobB8jaP7/pnQhg6j3FtXo5ZXNEqSrFU2Jz2x3NW/Vria3ODpgJ1ymtZYhj8LAEBoEI4AgMD09hutanH0yPOOXl3HstrmsjnptQ2ufnyPo2238LT7NjlNGWtVkQx6MgBAuSEcAQAll/OkJ5e7euIVV83tRnkv6InCzMpa6flVjl5ek9KEMZ5238bTDtPzMub9fzUAAIVAOAIASsJK6uo1er3ZaNm/EmrucFSWl6KOQjYvrW5xdMcjrh593tV+83KaPNaqOs3PEQBQXIQjAKDouvuMHn/R1fOrHK1vH1wmI3ZGzmpNq9FNDyQ1aYzVnKa8dpvlqSLJzxQAUByEIwCgKDwr9fQbPbXS0YNPu+rNcF1loVkrrWk1WtOa1CMveDpgx7xmTfFUVWG5jBUAUFCEIwCg4Na3G/39ZVcvrHLU1s0lqcVn1d1n9OvHEhpXZ7X9VE+7zcyrvpqfOwCgMAhHAEBBWDuwyvj7JxJ6YrkrafAZjMRLKbV0GP3luYT+8qyrvWbntd+8nIwZ+NMAAGCkCEcAwKi9us7RM6+5emqFo0zekeSJYAyQHfjZP/RcUk++7GiHGZ52mM7WtQCAkSMcAQAjZp20uhr21f8uq5DsYJgQKKFhPfX0Gz32gqvHXkwpVTdfVa33Bz0VACCCuHIFADAsM055Ne2law6Q45wk6TgZ89YKF0LOGMnLS0Y/lzU/HZ8f9+cnbjDZoMcCAIQf4QgAGLKmxc0HWGO+a2S3kUxF0PNgVHolPe159oxV32t8POhhAADhRjgCAHw1LW5r8ExuviNztoy7t2w+6JFQMEZGkmfsH63MVX29+Qeb/2d8Z9BTAQDCh3AEALyn6Uuaz7DGLJbVVpLSQc+DouoxMsutvMteu67xf4MeBgAQLoQjAOBtpp7WvIVxdKCRc4GMmfHvTW9QFowj2fwLVuYCV/k/r7huwtqgRwIABI9wBABIkiaduWZ8Mpc82zjmKFltI3beLm9GGWv1vGRvSebar3nlhq3bgx4JABAcwhEAytlS62zRsnGKk7cnG5kvSaoPeiSEj5VpNrIXmZx3y8rvN66VMWyjCwBlhnAEgDLVdGbLbOXMaTI6TLIzxDEB/jwr+7Ixzp3ynO+9dv2YV4IeCABQOpwkAEA5WWqdLVu7x+czfZfIOCcN/EsWjzAcRtZa68heZ5U4/7Xr6ttYgQSA+CMcAaBMzDhjw75ezjlBRsfIMWNlOdfHKBgjWbvOOOZWZe1NK78/7pGgRwIAFA/hCAAxt/Vn1s/MVrg3yTgfYIdUFIVxZK33gKuK41dcV8MurAAQQ4QjAMTQ1HNer3T7qvezjj1Zno6UMSkuSUVRGSPJ9sqaW2Wcn6ecDQ8sv3pWf9BjAQAKg3AEgJiZtrj5KGOcC2XtNjJKBT0PylKfZJ7zXHPOqqsb/hz0MACA0SMcASAGpix6ozGRSO8h6UuS3TvoeYCBUwxrJd3reLlLPVPx+GvXj2kNeioAwMgQjgAQZYtssslt+YKMOUnSNpKSQY8EvIs+a8wLjvSDldc0XMcurAAQPYQjAESONVNP651i1Le3cXWRpK3ZIRWRYBzJes8ZY7+mrH105Q2NayUiEgCigHAEgAiZsWT9JGvcL1irwyRtJ97HEU2elZ6RdKftT1yx6kf1G4MeCADgjxMOAAi7fZclpm63w0THcU6S7FckjQl6JKBgrJpldJHJebesbG1cr1tNPuiRAADvRDgCQIhNXbxxnmt0qpUOlez0oOcBisaYl2W9u7x88tpV369/KehxAABvRzgCQNgstO6UOapIrG+9XrKfDHocoHQGdmI1Mtcn3YYvLF97a063HscKJACEAOEIACHSdGrLgXLtCZI5RsbUsukNypJxJGtbZe2t1nFufP3ahgeCHgkAyh3hCAAhMP3sDZNt1vxGSuwmywILMMg4CXle7i9jrHvEUzwHEgACQzgCQEBmnPJq2lbXHizrfNLKHvHmMkvQYwHhY4wkm5PV7fK8n9W2rP/TM7fOyQQ9FgCUE8IRAAIw9dSWjxpXVxppS0nJoOcBIsMqI6OXHOudvuL68X8OehwAKBeEIwCUyNRz2sc6mdwB8vRF47i7Wy5JBUbIDKxCet6DxrGXu1nnvlduGNse9FQAEGeEIwCUwIwlLefkpdOMzHTJVgQ9DxAjfZJeNdZcu/L6sdcGPQwAxBXhCABFMmVJy7SE9FFJ35BxJst6QY8ExJdxJOutlLUXWNf+3+vXjH8j6JEAIE4IRwAosJlndo7P5DJfMkZHWmkrSYmgZ8LQzBjvaq9tk9p6oqO8Jy1fl9f9z2S1rp3ojwojk7XGvmQ8c2c+41626kf1G4OeCQDigHAEgEJYap0Za9ua8q73GWPNWZKtC3okDI1jpAn1js47skqH7pJScrPM78tIv3i4T9f+sU/rOwjIiGm1spflZf73jQlXr9bSpfwBAsAIEY4AMEpTF2+c5zo6zVp7mKymyvDeGiWH7pzS/zu2SpPGOL7/v5UbPP3nzd36ywvZEk2GgrCycswKWftbo9T3Vl5X+1zQIwFAFHFyAwAjsdC60yb2TJTXe42RWRD0OBg+K2nrCa5+d16dKlNDOxy2dFrN/0a72ntZuIooz8jcZJT60ooJ1eu11PAHCQBDRDgCwDA1nd5yoJE+bq0WSGbMQIIgaibWO/r9efUaVzu8Q+HLaz0ddWm7Onr5c48mI8m2SOY2I/PLldc1LAt6IgCIAsIRAIZo6lnts5xc9tdyktvLywU9Dkbpy0dU6vSPVI7o137zth79aFlfgSdCqRnjytrckxnPPXrt9xpWBD0PAIQZ4QgAPqYsslWu23KQMc4pRvYQK5NkhTH6atJGv/x8neY2uSP69Q8+l9Vnv9+lviyvhegzkrEZWd0peT93err+b8VPtuRTAQDYjP9OAABQxppOazkukWj9pzHOLZI90kpEY0ykU0YzJ40sGiVpzrSEqir47DUerGSVknSc5PzKq6p7ctoZrUcEPRUAhA3PFgOATWx9WueEjMntKeP9p2Q+QCjGj5W0Y1NC6dTIv0Z9lVFNWtrYVbCxEA5JyWxnPO/XTUta/pL3zHesl3j0jRvqmoMeDACCxoojAEhauNC6M5a0LM04mQdlvFuNRDTGlZUm1o9utdB1pKnjXF4hsfTWn+qHXMfenkhkH5i+uPk/tdRyzgSgrLHiCKCMWbPVojXTckl3n8fsxv+ScaYay+785aAQF5lWD/ERHoi0pKTtreN+q2n9xs/q9Jav5h09vPrqsaslw+cGAMoK4QigLM1Y0jXJMxvPy9mKg2U1U5IR0Vg2TAGaz3U0sDhFP8bfwHvDlrLm5kTee2na4o13J1LrLn71yonrgh4NAEqFcARQNvZdahMvvtE6xUnkP+3Z/i9Iqg16JgQjV4DPCHozlmgsO9axMtsao23zucSnm5Zs/HZO9uY3JvxrjZbO5xk9AGKN6/UBlIVpp27Y7ZX1G69LJPWQI+cCGaKxbBlpffvoytGz0qvr83RjObMaI9nvJKSHpq/b8aopp7ftEvRIAFBMrDgCiK1dF/0tuXLM9HRVp/sDyR4nychyW1K5M5JeXuvJs5IzwvLrz1r1ZAo6FqJrmjV2ccLmT522pPnnfRp3+oYJ6tNSwwokgFhhxRFALDWdvvGwDYmt/qeqy6yV0fEyLA7h37r6rbr7Rv4hQmu3VS7PhxB4G8fI+WSlNq5tWr/xB1ss3nho0AMBQCGx4gggVrb4bMtUt8L8TsbdQTangfUlTvDxdpm81RutnratdEf061e3eMqwnoR3sJJULemUhOue0rS4+cm+bP7g9T9kEx0A0Uc4Aoi8qee8Xulkqg63nk4xxnxEVs5ANALvLpuT1rV72nbKyMJxQ6enLCuO8GG9nGScndNJrWla3PxbGfOzlDv2t8uvNv1BzwYAI8GlqgAibdri5qPc/qpnZXWjMTpYsg4rjHg//Tmr15pHvkHOivWesvkCDoSYspIxRsYcIenmTL7l6abT2w4MeioAGAlWHAFEz1LrzFjXcoRn9HVjErtayxk8hsdaaW3byMNxTSvP/MSwJSRnpqQ/NZ2+8SHj6Vsrrx/7+6CHAoChYsURQKRMO7Nt66b1Gx/0pJslQzRixFZsGHn8vbiW1x1Gwko2L1m7lzX2tqYlLfds8dlVU4OeCgCGgnAEEAlzltrUlqe3HOh43iOS9pQx6aBnQrSt3jjy+Gvr5nJojFqVZPZPVFQ9NH3Juj210I7shlsAKBHCEUDozTzzpYqO9Ru/lbe621o7Puh5EA+dvSOPv7VtrDiiEKystU1WiXumTWg5b9dFf0sGPREAvBfCEUCojV+yviaTH3eFkc6VxEkVCuaNEd6n2N1n1dLFiiMKqtJ45psb3C3Pm3rO65VBDwMA74ZwBBBaWy3aWF+pxLWSPS3oWRA/Hb1W7T3DD8D17UQjisDISFrq9Fd+e8qiN6qCHgcANkc4AginhdbNJ8wXJfvJoEdBfLV0Dn/V8eX1XKaKIjEykjnTdVIny1oT9DgAsCnCEUD4WGuaGjeeaeX9Z9CjIN5eWTf8cPzHqzkZTulRPI5xdPm0M1qPD3oQANgU4QggdKaf1baTjPm6JHYZRNEYI/3tleywf92aUTz/ERgaU2GsvWSrU9fPCnoSABhEOAIIl4XWtXnvYsmOC3oUxN/GEWxys7HLigVHlMDUnJv4etBDAMAgwhFAqEyd0HKuZA4Ieg7En5HU2Tf8cFzVkhfliNKwn5x2evORQU8BABLhCCBEtjy9dbprzdkSu1aiNHr7h/9r1new4ojSMdZc0rS4rSHoOQCAcAQQGlnlj7TShKDnQPno6B3e/YqeJ3X2cY8jSmqGJK7CABA4whFAaLjWfEa8L6GEvGE2oJXksSCO0krK5E8JeggA4AQtwnZeeNX4oGcACmWLJRvmW2PmBT0Hyks6NbyLTo2kpMuFqig1c+DUc5q3CHoKoFA4h40mwjGidl541Xgvn18W9BxAobjG+Rq3NqLUatPDi0DHkRqqCUeUmDFJN2u+GPQYQKF4+fwy4jF6CMcImnvEFRO9XO5+SXOCngUohOmLNkyWtXuxKQ5KyUqaMX74h8Htt0jI8lJFKVlPnmc/MfPMlyqCHgUokDleLnf/3COumBj0IBg6wjFi5iy8eJKTsMtkzOygZwEKJZ9I7SiZZNBzoLwkXen0gyuH/etO3Jtzd5SekRmTyzduH/QcQMEYM9tJ2GVzFl48KehRMDSEY4TMPeKKiW4+eZ+ROHAgVlyb2UG8H6GEHCN9en5aY6qGf9npQfOS2m8un3Og5FzP5ucGPQRQSEbaPpFL3MvKYzRwohYRc4+4YqKb0P1G2r5x/JigxwEKysrsIB6pjhIaX+forBGsNg669BM13OuIUnNkuEUF8dI4foxkzGw3IS5bjQDCMQLmHnHFRNf17pPsduMa67XgmH2DHgkoLOPsEPQIKB+NtY7u/mqd6ipHHn6NdUb3nF8/qq8BDB87TyNeFhyzr8Y11kuy27mudx/xGG6EY8i9FY3GzB7XWK+jj52vykrur0HcWE6GUDJNja7G143+8NdY62jyGJKcEzQAACAASURBVA6jKCneKxErlZUVOvrY+QPxaMxs4jHcOOKFGNGIcjD19I2HyLi8F6FkKgp4e2JFkhVHlJBxp85Y0sVGIogV4jE6OFkLKaIR5cJIJ0pe0GMgxjwr5T0pl5cyOSlRwCOf60jZvJTzJI+XMYrOKm/7Twh6CqDQiMdoSAQ9AN6JaEQ5MZ49mm1xMFqDj1WsShk11hrVpo0qK4zSSaNdtkxom8muJtQ5amp01FBTuBfcj5fUalVzXmvarFZsyOvRl7Jq77HK5KSOXqu2bk9tPVZW7P6EArBWjjEnSPpu0KMAhTYYj7fftkwtze2D8bjf0785e13Qs2EA4RgyRCPKyYwzmrezpiJt8/1Bj4KIsXYgFitT0kE7pLTLlgltMc5VY63RxHpHtZVGlSmjhCM5Rby2pqHaqKE6oR2mS1JSn9s/rbwn9eesOnqs2rqtVrd6au7w9I8VOd37dFZr2weWJh1KEsNmJSe568wzW+qWXz2uI+hpgEIjHsONcAwRohHlxnp2V+vkgx4DEdFQbVRXaTSlwdUxu1doz+0SmljvKOEGPdm/GSMlXCnhGlVXGE1ukLafOjDgx/YaeD/f2GX191dyuvOv/Xp6VV5dfVatXZ5yXOqKITHq95ydJD0Q9CRAMRCP4UU4hgTRiPJjjbRxZ3mEI97b+DpHR+yW0qxJruZOS2h6o6PqtFGUt1MaW2N0wLyk9t8hqd6s1RsbPT27Kq9X1uV1z1NZPf167q1Lb4HNWZuTrLerCEfEGPEYToRjCBCNKEczz1yeyuTHbidOkbGJypRROikduVtaJ+6d0lYT3YJuZhMmxgzckzlzkquZkwZWJc86pFIbOz394uGMbvxLn9p7rHoyVpa/JhhkPRlpnhbe4urW4/jkDbFFPIYP4RgwohHlyusflzYJO4vzYXhW+uDWSf3HNgntuU1COzQlVFtZnjcAOkZqrHN0xkfTWnRAWs+/kdejL2b1+PKcHng+q76sZZMdSNI2E9MfTq+TuoMeBCgm4jFcCMcAEY0oZ3l1VFnVzgp6DgTDvvmIjMN2TemCY6s1pYEc2lwqIc1rcjWvydWiA6TOPqufPdCvy37bq2zeyvAjK1tGmplsrKwQ4YgyQDyGR0wvAAo/ohHlzrr1B8mwr2Q5sXYghvafm9KFx1frqUsb9P3P1RCNQ1SbNlpyUFpPXjxG13yqRofvWqHKlOEy1jJkjTPB9GvroOcASoXnPIYD4RgAohGQjMkfxRlvebBW6stYfWyPCt13/hj94NQanbxPhcYW8HmK5aSu0uiID6R01aeq9fi3xuhLh1e9tYKLcmHl2OwRQU8BlBLxGDzCscSIRkDSQutaYw5kY5z422qCq5M+nNZfv92gi0+q1rRGJ9I7ooaJY6S6KqMzD07rqUsb9PUFVdpxeoK/VeXAStYxRwY9BlBqxGOwOHyXENEIDJg+oXlHGbc66DmKxbNSLi9l3/yn3FaCPCu5jnTZSTW65ZxaXXh8lZoaOdwUU32V0akHpnXjmbX62em1mt7olOXrLpuXMjn75j+K8bMxrSRnhy1O7xgX9CRAqRGPwWFznBIhGoFNWLNnHFcbqyqMtpnkau/tktpru6TGVBl191u9uj6vO/+W0coNnl5rzsd6U5MtJ7j66I4pnX1IWulUjL/REDJGqq002md2UvcvHaM7Hs/ohnt69dzqeL/mKlNG20x2te/spA7ZOTWwqm2M2no8/e2VnH7+QL+eXZ1Te0/c3nOMXOX2kHRX0JMApcaGOcEgHEuAaAQ2sdQ6dn3rB2XjsxRgrTSvKaHzj6nSvOmuKjcLpt22TmjB7hVa1+7p9sf6ddUfepXJBTRsEdg3/+P8o6t0xAdSmlDnxDpUosAx0jEfTGm/uUk98kJWl97Vq+Vr4xWQ1krTxrn61seqtfusgb93m357k1KODtslpYPmJfX86ry+cVuv/vpyNj4/A+tJRnuKcESZIh5Lj2uHioxoBN5uRltbnWS3CnqOQrGS9to2qZvOqtUHZyXeEY2DEq60xVhHZx5cqTvPrdfkMfGIq+oKo8N3SenZyxr0uQPSmlgfj+8rLhqqjQ7ZJaXffbVei/ZPa1ytE4vnQCZc6aB5KS27oF77zkmoarNo3FQqYTRvekI/XlKjvbZNlnTO4rKStTvOWWpTQU8CBIXLVkuLcCwiohF4F30aI2la0GMUyuQxjv77xGrVVQ39dHzONFc3f75W8+dE93zPMdJH5qX0w9NqdfnJNaqpjEOOxFc6JX39mCr98vO1OvXAykhvUGQkfenwKn335GqlhnHdVF2l0UUfq1JtvF6r03pa1zcEPQQQJOKxdCJ86Ag3ohF4d3nHGS9pStBzFMpln6jR9BFs/LLlBFc/WFSjQ3ZKReok3piBjVi+/fFqXfe5Gu25TWJYJ+8I1qzJrs47amDVe9YkN1KvPUmqSEqXfbJapx2YVt0IAnDria6+cUxVjJ4EZKbafCXhiLJHPJZGxA4Z0UA0Au/NkfdhybhBz1EIsya5+sDMkVdTwpX++8RqHblbRSROZK2VTt4nrd98uV4f26tCCY4gkTVvuqvbv1in846q0oS6aPxBWklLjx34+zIaH9k5pQn10fie359tyNvMtkFPAYQB8Vh8cXnnDA2iEfDnGS82z2+cNz2h5ChX2+qrjC4/uVof3j4Z6p9KY62ju75Sr28srNKM8Rw64qCuyuhz+6f1p6/VDzz/McQvQM9KV3+qRid8qEKJUX7slE4abT0xFp9dDbA6IOgRgLAgHouLo38BEY2Av6nn2EpjtVfQcxRKTfq9N+QYrms/U6M9Z4UvHitTRsftUaG7v1qnedNjdLKNtzTUGN32hTotPbZKjbUmdAHpedJpB6R1yM6FuSfYcaRJY+Jz+mNkDgx6BiBM3i0e5y24ZELQc8VBfN45AzZvwSUTiEbAX76vdTfJ1AQ9R6EUcvfQ+iqjqz9do2RItiS1knr6ra7/TI2+c2J1rE608U6phPSp/dK67/wx2nWr8Kw+5j3p0F1SOm9BlZIF/NwiHH/LCmbbqac1bxH0EECYbB6PRu4y4nH0OBMogHkLLplg5C4jGgF/KWP3jctlqpLU1WcL+t2MrzN68Jv1amoMdmXPGGnf7ZN65rIGzZ+blBOzs2y8OyOpvtroprNq9en5adUHvPuolXTIzild99magr4G8570eku+cF8wBFzH7hv0DEDYEI+FRziOEtEIDNFS61jZDwU9RiG9uCavvFfYrzllrKMfLKpRLh9MYGdyVl85vErf+1xNjDYQwXBUpowuWFilH51Wq3QimI96PCvttlVSl51UXfAPLrJZ6aU1Bf6LGzArd5+gZwDCiHgsLM4KRoFoBIZuQmv3eMnE5jEckvTcqpxe31D4lYvttnD16LcaNKnE4TZ5jKOfLKnT4o+kVVUR7WXGbE5q7rD618qcnnglpz/9K6sb7u3X/c9kC/573fNUVj+5v19/fjarJ17N6bnVebX3WHkRbhMj6QMzE3r0Ww3aY1aypI/tMEY6YG5Kt3+xtijPXLzryX61dkf4D+ddWNl5UxbZqqDnAMKIeCwcnr41QkQjMDzVXvekvNwJcbq7KJOTvnJTj279Qm3Bv/a0cY5uWFSjE67qVFd/cdd8rKTdtkzoOydWa+ak6G6A88ZGT799IqOnXstrbXterV1Wa9s8ZfJSNm9lrfT1o6u075xkQX/ff72W05W/65VjpGTCqDIlTRrjqrHGaFyto/3nJnXgvGQkY7yhxuiGRTX6wT19uvIPvUW/bNlaac9tk7r0pOqifP0N7Z6+eVuPnJh9bG5kxifc9kmSXgl6FiCMBuPx9tuWqaW5fbax7rJ5Cy6Z/687vrQ+6NmihHAcAaIRGD4v50yVMY1Bz1FIxkiPvJTVTQ/162N7VhT8pHrHGQn97rx6HXNZhzZ0FmeFxBhpv9kpXX5ytcZURyNsBjfuae6weq3Z0x2PZ3TP0xm1dHpynIHv6b2+k/G1hS+G9Jsd6lmpP2vVn5XaunNvzXr74/0yRtqiwdHxe6R1wI4Jjatx1FjrKBWBo3B9ldG5R1Rqq4mu/t+t3ersLc4HGY4jzd8+pf9ZUpz9szI56b/u7FVHn43Rx1eD7ARj8oQj4IN4HL0IHLLChWgERsrdU7Ix+5xfch3pirt7NWuiqw/MLPxb6vTxjn6ypFan/bBTr7cUNh5TCaPFB6W1aP+0atLhP5XO5KSHn8/pj09l9Or6vJ55PaeuPivvzY4ZyvP9Jhdhd9ja9Ht/TSO9dZnnmjZPV/y+R9f8aSBg50xLaNspro7fo0LTG53QL8Yf+YGUxtc7+uqN3Vq1sfCXaB+8Y0oXHl+clUZrpev/2Kvf/yMT9h/zSNVYaY6kh4MeBAgz4nF0YncSV0xEIzBy1tgPBz1Dsaxr9/Txqzp171PZgm+WI0lzm1z98uw6TR7jFuwRIElXOueQSn3+4MrQRqOV1Juxeq05r6W39GjXr7Tq5Os7dNNf+vTIi1l19P47GoeqoQgrjsN9VEkuPxCR9zyV0bV/7NWHl7Zp7wvadO/TWW3sssqFdMNP15H23i6hW8+p1XZTCndJs+tIR+6W0tWfrtG42sK/Fnv6rc7/RY8u+12vejPx2dX5HazZO+gRgCjgnseRIxyHiGgERm7iSWurZbRr0HMUUzZvdfZPu3Tl73qVzRX+628x1tFNZ9XogzNHf3/ehDpHl32yRosPSpd005PheGVdXlfe3atPX9elAy5s14//3KeOvtGf9FcW5hnybzOxAJsYvdbi6VPXd+rAi9p17s+79cuH+9VdgO+3GKaMdfS9z9Vq/7mpUT/v0Vrp1AMqddHHqovyWnxlvadzftqtmx7ui+tK41uMLDurAkNEPI5MSE8ZwoVoBEbHqU5+SDKVQc9RbB29Vlf+vlcLLutQc0fhT/q3mujqprNqNH/2yOsn50mXnlStI3dLFWz1spBeXZ/XsZd1aN9vtuvy3/Xq4Zey6i9giKcLuy+OJBVsxdZIau70dMfj/frSjd3a7bw2XfqbcK6SbTlhYPOmg3ca+Q/UGOm6z9ToK0dWqq4Iu6c++FxWR17crj/8M1OUKwHCxjpO04zTWmcEPQcQFcTj8BGO74NoBEYv4egjgTwMLiBPvZbT4Re360f39am5s7DfuOsYXf+5Gp17WOWwN+OZ3ujqji/WaZ/ZRainUejut7r5oX6dcFWnDrioXY+/kivK6pAxA88oLLRirGIaST0Zq6v/2KsPfq1N37q9R397uQhL2aOQcKVLT6rRMR+sGNZfb2ulmRNd3bCoVofsUvgf3j9W5HTOT7t18nWd6ijSRj6hZK3yyh8c9BhAlBCPw0M4+iAagUKwxkgHBvMY8eC80erpwtt7dMCFbXroucKe8FempDMOrtSyC8ZofJ2j3CarKZ7Vu14+6DrS9z5bo92LsIHPaPzioYz2+Hqbzru5Ww+9kFUuX7w9YqpSRhXJwn/1dBHCcVPtPVY33Nun46/o0MH/1aHVG8OzfFZbafTdT1br0/uk3/V/z+Wl7Cb/9GWtDtkppbu+UqeD5iULuhNxJiedeGWnjv1uh25/vL8sVhnfzsq4zkeDngKIGuJx6MJ1BhEiRCNQGFM+3zpNWTUEPUcQrJVau62Ov6pD82cn9an5aX14++SQdv98P0bSjPGO7r+gXnc9kdHDLw482H7aWFc9Gatf/y2jlq6BM+ep41xd/5kazZ4Wjmc09vRb/fGfWV386x6tavWK/mzAQeNqHCWL8CNIJx0lHL0t4Ish50nPrM5p7wva9IkPpbVg95R23jIch/HzFlSqq9/q1kf73/p385oSOmWftOoqjbJ5q6oKo22muJrSUNjPrN9o9XTvU1ldfnePmjttKC/BLhlr5848s6Vu+dXjOoIeBYgSdlsdmnAccUKGaAQKx+3LzZDj1sV+ZwofriM98HxWjy7Pau/tUrrylBrVFuiOz5q00cf2qtDxew68RxkzsOp43B4VOu2HXdrY5enqU6o1b3o4ovHuv2f07V/3as3GvHKeShaNkjS2pji/WWVKqq9y3gr1YjKS8p700wf69KvH+7VDU0Lf/1yN6quC/QtWkTT6zonVGldjdM0f+3TcnhU6/+iqov3MBz3yYk5f/FmX3mj1ZK3KOxolGZnavlx2hqR/BT0LEDXE4/vjUtXNEI1AgTnu1jKmOA9ni5hMTrrnqYx2+Wqr7nw8o64C7pppzL9Pmh0jbT/V1e/Pq9Mvz67TLlsF+xlh3pOeXZXXkh90a8mPuvR6c77oq3Pvphj3Nw4aX1f6Yunqs3r4haz2vqBNtzySKfj9tMPlOtI5h1XqjnPrdPknq4saja+sy+vsn3Rr4eUDl+6OdnfXuLBSnZEzI+g5gKjislV/hOMmiEag8ByZD0iW95o3GSNlclbn/rxLJ13TqX+uKN5D+6oqjGZPDXalMZuTvnFbjz5+VYfu/kf/+/+CIqoo4r2IQT0L05iBeyC/cmOXTry6Qw88G+wGOumkKep9tJ4nXfP7Pp1wVafu/Ft/aB8nExxbIZm5QU8BRBnx+N54y30T0QgUhzXefwQ9Qxhl89LfX83p2Mvb9dM/98du90fPkx5+Iad9lrbpx/f3qa07+O8vXYSNcd762kVczRwKz0rPr87rxGs6dO7PurW+I147w3hWer3Z02e+16WL7+rRmjZWGd+LcZwPBj0DEHXE47sjHEU0AsUy4xSbljE7BD1HmGVy0tJbu/Xp6zr115A9bmGk1rVbnXdztz77/U6tLuHmN+9nbHURw7GIUTocjpFue6xfJ13dqVseyciLSVz96N4+HXVph+57JlPOt0sPibGWD+uAAiAe36nsw5FoBIqosuWjkssmXO/Ds9JfX8np+Cs69MuH+5WJaD96nrSq2dPRl7brFw/3q7s/XNUyqb54h7yqIj+SYzislZ5/I68v/7xL37ytR72ZcP05DMfGLqujLunQN2/vUXNnvFZRi8U6iQlbL2mfGfQcQBwQj29X1uFINALF5RnnGImTvaHKe9JXb+rWOT/tUncBN84pBc+Trv5Dr/a7sE2rQvScwU011BTvkDexPhy71m7KSvrx/X06/opOPfJi9D6N+PMzWZ1wVYeeXJELzap1JFhPeZtdGPQYQFwQj/9WtuFINAKlYA/lRqTh8ax0198zmvflVq1qCWeAba43I33kW+267K5e9Ye4T6qK+BY/cUx4D6f/XJnTCVd36O4nskGPMiTWSjf/JaMTr+nUc6uLt3lUbFkr65ijgx4DiBPicUB4j3RFRDQCxTdl8YZtJaWDniOqcnnpE1d36vHlIS4xDTxHb8GlHXphbT70z9Ar5n2ItSF/pXuedNqPOvW1X/SoM8QbMVkr/fC+fl14ezc7po6YlZXdfovTV40LehIgTojHMgxHohEoDddJbGelZNBzRNmrG/L6xDWd6gnZvYKDfvlwv068ukPPrc5FYsOSiiKGY0UEXumOkW58sE8HXNQe2vse7/p7Rhfe3h26+2MjxzoJ11RtF/QYQNyUezyWVTgSjUDpGC8/28iE78aviOnLWP3Psn6F6TQ6m5Ou/WOvzr+lR/loXE0r15Gqi/h2H/TjOIbKSlrb5unw73ToyVfDdRloX8bqlof7I/EhRPjZpPEs4QgUQTnHY9mEI9EIlJgxO0qWc8BRMkb66ytZZUNyxWo2L53zv1269K5e9WfDlLP+0kmjmnRxH8cR9kt1N/XS2rxOua5Dv/t7JuhR3tLaY0O7sVIEOXmJRyEBRfJWPI4rr3gsi3B8WzSOIxqBUjBGOwY9Q1ysa/PU0RP8CXV7j9VXb+zWb5/IyAt+nGGpSBilEsW8x9Eo5UaoHCW19Vh9+cZu3fVEOOIxm5N6QnoJbRS5sjsFPQMQZ5WVFTp6YXnFY+zD8R3RuJBoBIpt5lW2wlptG/QccfFGq6d1HcGeUK9v97Tohk796rH+QOcYKdeVnCIe8SpTUjoC9zlurrPP6is3dev6P/YFfjn0/c9ktbErYp9IhJiVIRyBIiu3eIz1g7nLIRp3PPryoI/1wDtkHvuNMmP2kWy47qGKqvYeq2Mv69AtX6jTnKluIM+0++vynF5e5wUeFyPlOirqLp0J1yiZMFIEf0Ld/VZ3/yOjQ3dJqWl86T9PzuSkH97bp2//uofnNRaSk6ife9yPrZtrC3oSINYG4/H2W5eppaV9trHusnkLLpn/rzu+tD7o2QottiuO5RCNQFhl0ltKYuWgkHoyVidf26nfPxnMs/gO2SWln59Rq8N3SQXy+4+W60huEW9CLHaYFkt1hdG5h1Xq5rNqA4lGz5P+6/YeXfn7XqKx0KynTOVWQU8BlIVyWXmM5YpjOUTjWeccH/QIwLuyki68pU7KR/OSxjAbuM8xmBUtY6TttnB1xSk1mjG+Tz+6vze0jwl5NxUJo2QRj3hOxMLRGGlMldFPltRppxnBbX7sOFJLl6f+XHReS5FhrVLj5+isz84KehKgLJTDymOEDnNDUw7RCITZulaWDYrlgB1S2nd2sDfSJVzpi4en9ePFtdpxenQ+e0ynjNJFfI5jwjFKROThM9ZKn9g7rd+dVx9oNA4659BKTR0bu9ORELDqzFSqs5f3ZKBU3rHyaBL3xWnlMVbv1PMWXDLBmMR9RCMQnLWtjiz3NhacY6SlC6tVXcRHSgyVMdJ/zErojnPrdMJe6Ug8d68yKVUUsbkrEipqmBZKZcro5s/X6aLjqzSlIRynAFtNdHXS3pVBjxFPnqe1fJgHlNTb4lGaE6d4DMdRowDeikZpDtEIBMNKAycpXkgeOhgTSVe64NgqTRoTrhNA15Eu+liVrji5RlPHubIhvtrQcVTUe+gqksVd0SyEQ3dJ6daza7XXtuFbKf7U/Arts30Et6UNOWuzWtsWm1M9IDLiGo+xeDchGoFw8DypuTPcJ89RNHdaQkd/MJzvaa4jHbV7Svd9vV77z03JC2k8uo6RW8RyTLpSKnw9JknK5qX/PLJS13y6RjuE9PLiVEL62jFVaqjm/aOgrNWGNhPav5dAnMUxHiMfjkQjEB55T2rp4MSvkDxPWnxQpeoqw/1zrUhJN5xao3MPq9KE+vAdWlynuM9xDOOuqsZIOzQldOcX63TqQZWh37V06wmuPrpTKoIPNAm35g6jPJtcA4GIWzyG7DA3PEQjEC69/VJbd8jPTiPEWunAeSl9ZMdoXMKXdKXPH5LWLWfXavIYN1SrHNUVxQ07p8grmsOVyUmf2Cutm8+q1e6zwrnKuLmEK335iCq54fkxxkJLp5FHOAKBiVM8RjYciUYgfF54w5VMZN9WQmdMtdE3j6sKeoxh23KCq0cvqten9k2rMhWOChhb4xR1xc11BsI5DLYY6+iHp9booo9XqTbkK9WbG1tj9J0TqkO3ehtlmbyr1S38QIEgxSUeI/lOQjQC4fT8665CvUNKhFgrHbFrhSaHZOfLYTPS+cdU6SeLa7RFgxPoy8JKaqwt7s/RefO5iEHyPOno3VP6xefrdMjOqUBnGY1Dd01p5xnRWCWNBk/PvR6STzX+P3v3HSdVdf9//HXunbJ9YXfpRUGxASIqlmiiYos1NjTGJBqjJpqfGmtiEr/RGFNMMbFgjT02it1YgRgbKiIIWOiwlK1smT5z7/n9MaKAtN2dO/femc/z8Yjf5nfn7MzdO+d9P+d8jhBFrBDCo+9mJBIahfAmS8PSpgBuHVBfaEwDzj0s7OvKS9CEA3YJ8sI11RwxOujq7+J05VMpqKty7xesLlNcflwpf/thBUPrDJS/Co0bKQ8rvntQiezLyxWt+azexxeEEAXE7+HRV1MSCY1CeNeqZgN8caKf99kaLj+ujOH9CqNK0Ltcccd5Ffz5e+X0cbjyt1na2TMc16sqVXl/bKI17D0swEMXVfLz47zfAGd7nbBPkF0HmPIYKkciqSDrZP+5EJ7g5/Dom+AooVEIb6tvUaClRJALQ2oN/t8xJW4PI6fCQcWEA8M894sq6iqVox1ONycfey1L8ryfMxRQnLpfmKlXVLHXsICvq4ybKgkq/vmjcnkUlSNa6y8e7gkhvMCv4dEXdxEJjUJ4m61hTashwTEHFDDhgHDBTpgH9Db43/W9+PkxpXnd91hZ4vw7Gg6Sl5XaGhjY2+D2c8v529nlBRUYNzRqSIBD9/BHR2HP0zYrmwv0QhHCp/wYHj0fHCU0CuF9qTSsi7g9isJgmnDiPv5tbLI9ysKKS48t5f0/9Ha8ac16+ThbsjTo/MRcKfj2mBDv/L4XR40JFczS1C05db9wwQbj/NI0dyjSGbfHIYTYkN/Co6eDo4RGIfwhkVa0y/6ZHtMavrNPmJ36O7u3cW2bNyrD/Xopnrmqih9809lwkI+uquThNQb2NvjNyWXc+qMKR19ne9kaWjqdLbGOHxVkUO/C2OvrtvaYIpmW+7QQXuOn8OjZ4CihUQj/iCQUkYRMSHrKUHDjd509tzGegiNuaGf1Om+0HRlca3DDd8u594JKwg5W7Mry8PXRt9qZ5jhaw6Bag6lXVHHe4SV5afSzPW57KcHP/uXsUoOKUsU1J5VKh9UcaI8qkmm3RyGE2By/hEdPBkcJjUL4y+I1Cumo2nMn7xemNOzc+5jKwHf/0UFHXHPgb9bx4uyUJybkCjhizyAv/LKKg3cNEnDgm6kkH11Vy3I/8KpSxQWHlzL92mrPnOkZS2p+NyXGTc/GeOuzNC9+mHL09Y7fJ8QIh6vwxSBjKVa1euMaEkJ8nR/Co+fuIBIahfCfxWtM5PzGnikJKk7c19m9jc9+kGTW0syXy0IvezDK428lHX3NrhjR3+RfP63gFyeWkUzn7nqy7WwHUqeV5LBiqjVUlRo8eVkV15xc6mg1tqt+ck+EB2YkMA0wDLjoXxFWtzr7BOLU/WUekAuLVntu2ieE2IDXw6On7iASGoXwn1RGsbLFO5NavxpcYzBup4BjPz+REF0JewAAIABJREFU0vz7zSTmBnf9RFrzi0ej/O25OPGUN4J/SUhxwZElvPqbXuwywOxx51UNHDk6SGWp89doTYUinKOAetK4MG/9rprdB5kbfWZuami3OePmTv67IL1RpdrWcP+MJLaDl9BhI4NU5eEzLGyapQ0qr92MhRBd5+Xw6JGvIwmNQvjViiYFWiZ0PaE1TDighAoHj4x44cM0s5d9vaWiacCdr8X59WMxx167O0YPNXn0kkquOL6MjNWDH6Rh72HOBfINhQL0OPz3KjO478JK/vqDcqrKvPN31diuOeuWTmYuTn+tkZFSMGVmkvaYc4lk90Em+wwLyrqGHookDZo7vHNdCSE2z6vh0RObBiQ0CuFfs5cYrGjyzDMoXyoLKe48v4KAQ3fk9pjmjH90ktnCakLLhvn1FrOXZjhsZIjSPB9kvyXlYcUBIwIM72vywZIM0ZTu8k7acBB+fUo5faryc43WVpg892Gyy1Ud04Ad6kwmXVbF2GEBz1QZAeavtDjjHx2saNnyctRYUtPSqTl6jDPLrZXKVnSnvpeS4zl6RNGnWjOoViK4EF4XDAYYscsQli9dQzye7KuUcWy/3Y6Y3PDpq1G3xuT6V5OERiH8y7JhtTRb6LHvHVxCiUPbG7WG+6YlSGxjz6Ch4M1P0/z4zk46496aVJ68X4gpV1Rx4t5df5MO2T3E8H75u0bH7ZytjHWFoeDqE8p49TfVDO3jrb+nV+emOf/uThrat76HUSmYPDPJR8t6Uh7euoN3C7LrQE887/YxzfJGb11jQogt81rl0dU7sIRGIfwtmlC8v9AklpQSQHeVBBWXHVvC0DpnbsctEc1Nz8ZoiWw7DGpgzTqbR99McdzeIao9tFSyV7ni2L1DoGHOCmu7lq+WhxWPXFxJtQPdTrckFFCMGRpgyswU6W2MUSnoU2Xw2m+qOWxU0FNVRoAXZqf42X2RLi1BTWXgyD1DGA5cOkqBbSv+u0DOlOiJoAkjh1qOrXAQQuSWlyqPrn1NSWgUwv+iCYgk3B6Fvw3sbTBigHMzuP99kmbh2q5VgdpiNufe0cl7i76+J9Jtlx1fyqMXV3L0nqEt7nfTGg7dI8irv6nO2xLVDe06yOT5X1QzfmRwi0tWayoMfnVSGc9dXcXAGm8lRtuG219K8It/R7u8v/TNz9LUb2VJa0+NHWbSq9w7DzT8KJKAqDzsE8JXvFJ5dOV5k4RGIQpDfYvBR0vksXVPHLtXmBPHObNOVWu4+P4IzZ1dX3raGtE8+W6SMUMDDOvnrc94QG+D4/cNceToIO8uyhBLgWkoAqZihzqTxy+t4vzDS1xtLlNTofjOuDDf/UaY5Y0Wq9dpTFNRElRcd1o5f/thBQeMCOSl22tX2BpuejbGP/8TJ9WN5waRpKZvpcl+OzvTkKiqVPHy3DSN21g6K7YsYyl2H2zTq9xbS9KFEFvnhcpj3r+xJDQKUThemR3gnU+9FSr85rFLq/jGLs5Msl+Zk+a8uzp71EykpsLg6hNL+e43wp5sSqJ1dq9tIp1thBMw8OQ4bQ3o7Ni8OD7INlH663NxHn4j0aPupX2rDF67ttqxpc7/eCHOzS/GHfnZxeKosRkO3M25/ahCCOfE40mmTppOS0s7wHytM+PnPnVVYz5eO6/rYyQ0ClFYljV4a4md3+wyIMCBDoXGZAb+NSPR45DSGrH55aNR/vps3JNHISgFARMqSrJ7t7waygwFhkdDLUAyrbn4vggP9TA0AjR02DzxdjIn49qc0w8My1mEPSQNcoTwLzeXrebtziGhUYjCkkgp1rZ5dBbsE0eMDjq27GPhGovPV+euojDx1Th/ey5OPCkz9kKzpMHi3IkRZuSo6YwCnvkgRVvUmWtlYI3B/jt3rXOt2NjKJiNbBRdC+JJb4TEvwVFCoxCFZ+lahdYSHLurJKg4ak/nJr/vLcywLpK7fWC2hltfinPxAxHiKZlxFooVzTY/vjPCm5+nc1oNXdZosbTRuaWQp+wf9mQF3C9iKcXadVJ1FMLP3AiPjt81JDQKUZgWrzVApm7dNqjGoH8vZ27BaQsefavnSw4355U5aS59IMqaddKcxM+0hllLMkz4eweLHQh4kaTm9Y+dOzZjzFCDqhJ5cNV9msVr5P0Twu/yHR4dDY4SGoUoTBkLVrXI0+qeGFJrUFfpzHv4+sepLh/Bsb2UgpfnpDjvrggrmiU8+tWMBRnOvaOTte22Y8ulH3wjQTzlzM/u39tkxz7SmKsnFq+V90+IQpDP8OjYzE9CoxCFqzOuiDk0ISwGWsM3dw8SdKAvjtbw/IfOH5D+8coMZ93SybJGCY9+krHgtY/T/ODWdtpizq4YaI9rXpvrzI2iukwxuFYeXvVERwyiCak6ClEI8hUeHbnrSmgUorC1RxWJlEw4usvWcNCuzuxvrG+1mbXE+eCogBUtFhNu7mDGfOdfT+TGHa8kuOjeTkzT+b9fBTz6dpKMA8Vv04CDdglKd9UeSKShPeb2KIQQuZKP8Jjz4CihUYjC1xpR3TocXGTVVSh2HejMMrElDRbrIvmbTTd22Pzg9k7m1VvSpdHD0hZc+0SMPz0bI5nHv90lDRb1Lc5UpY/cMyi7rHsgmVK0R+UBoBCFxOnwmNPgKKFRiOKwslkmG92lNRw+OoTh0Fv45mcZ4un8TqcNBSf8qZ37ZyTy+rpi+6QtuOrhKA+9kSCQ59WdrRGbT1c7k1T79jLYuZ/s0+suW8PqdXIvF6LQOBkec/YVIqFRiOJR3yR7i3rixH1Djv3stz9zZ9moreG6STFufj4uVSAPiSc1h13XxtT3k668fioDc5Y706jJUHDACFmu2hP1zRK8hShEToXHnMz+JDQKUTziSWjulODYXZWlimF9nZms1bfYfLzCvTXEhoKbX4zzq0ejctajB6xssfnuPztZ2epc59Tt8dJHznXSOmGfkDyo6IHVLVJxFKJQOREeezz7k9AoRHFZuNogpyeFF5m+1QaVpc68f4++lXR9Eq1Udhzf/Uen7Hl00fImm0Ovb+Oj5e5vRl641mJ1qzMXw079DWor5H7UXSnLZIWsIBGiYOU6PPbobiGhUYjis6DeRNaGdd+wPiZl4dxPdLWGtz5NeybTz16e4fS/dzjWGEVs2Yz5ac68pcORbqbdoRRMfteZpbLhoKJftQSf7tN8Wi/vnxCFLJfhsdt3CwmNQhSftAUrmwxwva7lX/2rFSEHVqq2dGqWNFquLknckALeX5LhxL+009Au4TFfnng7xU/vjbCq1TvvuaHg2Q9Sjtw2ykKKIXWyT6/btM0nKyU4ClHochUeu3W3kNAoRHFq7VSeqWL4kWXDqKEBR6qCn6zKkPDgcYotnZoTb+rg/cXuL5ksZLaGh99I8ttJ3txfurbdoqE99+MKmtC/2pBHWT0QTynaY1555CSEcEouwmOXg6OERiGKV2unIuOdQobvaA1Da515ur+k0SZteXP6vLbN5oK7OrNVJ5FzWsMvHonyuykxT4ZGgJQFixtz/9RJKdh9kIkt96Vus+zsvV0IUfh6Gh67NIOR0ChEcWtqVzJB6wFLa3Yf7MyyuuVNlqe3nrZGNVc8FGHqTAmPuZTKwA1T4zzxbpJUxrsXQNrSrGxxZrnCoBrD09e+11k2NHdIcBSiWPQkPG53cJTQKIRYs072wvREecigV7kz7+G8ld5fQ5yy4NdPRLlxalwm+jnQFtX8+M5O7p0W98ze1i2xbVjS4MxTpz0GB7Dlguo2raGhzetXkBAil7obHrdrBiOhUQgBsHadTC66S2vYf0QA06HsvXqdP0rBsaTmnmlxnpsllcee0BpufCrGG5+kPR8a1/toqTP7XHtXKAyvtBP2qTWt8v4JUWy6Ex63OYWR0CiEAIglFW0xqTj2xKAaZ96/aBLHlgE6QWu4blKMNT4Ju1700BtJnnzHmSMunNLY4cznHTRhv50CUsXugYY2ubcLUYy6Gh4DW/thEhqFEOvNX26QPWRBZmfdoYH9hgcd+dlLGywsG8eqmU5o7rS58N4IT19V5doY2mOa3S5bR2ir34Qb00BNueK9P/QiFHCnStMa0Vz1SITSkL+qRIsbLCwLTAe2+e7Qx2SWQxXNYmBpk8VrFTv1l/u7EMVmfXicOmk6LS3t68Pj+LlPXdW46b+7xWmGhEYhxIbmLjeQR/rdpzXsMcSZxjgvzk47csSHk5SCmYvSzHdpb2Y8rbn8oSjBLoRGyD46aY1orn0iRsqlnPL6x2nXQmtP2BoWNzpTdRw1xJRHWj2imbusi38MQoiCsbnK49gJt/TZ9N/bbHAcO+GWPhIahRDrpTOwqjWMVBt7pq7SmZLgsqaMb/a5bcg0FAtWuZO+bno6zmsfp7r1vikFj7+d5HkXjhfRGuasyPiquryeUjBjgTPv2d7DgvJcqye0zcfL/HgXEULkyqbh0bas6ZuGx6999YydcEsf27KmI6FRCPGFtW0KLaGxR6pLFb3KnJmYfbLKxo/JUQHxPG/Ts2349/+S3Dst0eOfdemDEabPT+c1sGgglfbv3+Jnq5ypMNdWOvJji4sK0SLnOQpR1LYVHjcKjhIahRCb09BmgPZP8xUv6l1hEHBgJVgyo/l8jT8rjhq6tL8wFz5dbfGnZ2IYOajYGQZc+0Q0r01+lIJeZcqXj3EUsLLFmfeqpsIkLCste0RrS47lEEJsNTx++dUpoVEIsTkaaGxTsr+xh0qc6YtDLOnfBcS2zjY1yZf6Fpv/d1+Ejnju3rEVLTY/fzBKWzQ/n4IC9h4ewPLhcxylYNaSDLYDb1VZGHo7dEZq0dC2dFcVQgBbDo8GSGgUQmyZtqG5Q55C91Q4qBypCsaS/oyNGhjWx2D/nfNTJmqPaa58OMrihtwmLkW2yc81j0VJ5ynMfWv3IGVBf/5NxlOaeMqZa7aixJ/viZc0tStHgr0Qwn82Fx4NACuTVChsAFtrtNw1hBBfsHV2MiF6pjyMI/sQG9tt33VUBQgH4J6fVOZkyei2aA33TU/w9udpx17jlTkpJufpXMWysOLhiyt92VkVBQkH+uMoIORQVb+YNLUrWVwihPiStjX2+puCwjYA5j51VWMgZY1H8fG61g6mTplOLNbzxgFCCP9bF1FEkrJ8qaeqy5ypOLZGte/2N2rg58eWscfg/CxTfWBGktteijsasDM23Ph0jFfm5KfT6gG7BLji+FLfTfIV0B5zZp9j0PTbX4L3tHYq146ZEUJ4SyyWYOqU6axr7QDFx4GUNf7L2eCs565sXh8eW1s6mDpZwqMQAj5bZeLLlp0eU1HiTPhOZ/wTHBXZ5YTXnlzOz44uyctrvvN5mpuei5HJQ/+azrjm6n/nfjnslvz0yBIeuLCKXuUKwycXgVLZczCdUBZy5McWFRuDxWvlQaEQxS4WSzB18nRaW74KjbOeu7J5o7uDhEchxKbmL5fGOLkQdKi4lrHxdK7XOvuf4X1N/nBmOc9dXc35R+RvD/3fnk/kdR/ouqjmny/G8/Z640cHmHZtL/70vXKO3jNEwPD+n2vEic9DQVnIw38IvqFZsCJ/DauEEN6zpdAI8LWuBLOeu7J5nxP+Oj4TMqe1tnSMnjp5OqecdhhlZfl5OiyE8I5kGho6S4E8H7ZXgJzay+fF7poKME0oCSp+dlQpPx5fQtil/WduRIlwnvce1lYqzvhGmDO+kQ3ks5ZYXPNohKVNFhkLzzU7STu0FLIkLMGxx7Tmk3oTcG4/sBDCu7YWGmEzwREkPAohsla1yPmNueLU/jqvhAKlYHgfkyP2DDGgl+Lw0SGG1rm/5G3cTgHeW5y/SbBSMHqouwcK7jPc5JXfVBNPaWbMz/DZmgyf1lu8PDfl+vWigIyV+0EoICR7HHNCqQANbQb9euXvfFIhhPu2FRphC8ERJDwKIaC+xUBrmTzkgvryH4VB62xoLQnBFceVce5hJRgGBExv/Zq7DTIxDbDydBmXhRQjBnhjqV9pSHHM2CDHjA1i25CxNUsbNJc+EGF+fbbsl4+utptyKru68bsUIq1t6psV/Xq5PRIhRL5sT2iErQRHkPAoRDGzbWhYp7IHOYrc0HgrVXWRAnbsa7Lv8ACDehtMODDM4Fpvz9aH1hmUhxUd8fyU2srCioG9vfeeGAaEDMWugxQv/bqKVAbe+jTDa/OSrG3TvPlpmkTaI+XrblKORdIioy1Wtyr21s6tlBBCeMf2hkbYRnAECY9CFKtkBtqibo+icDi1RNDJiZ3WkLY0pqH405nlHD46SHmJoqLEP108d+xjUlmax+AYggEeDI6bCgXgsFEBDhsVIJWBjrjNqhbNn5+OMf2TFEopxxo6OcWWZ1w509qpSFvZ60QIUbi6EhphO4IjSHgUohil0oq2iE/SgQ841ekykOOMohTs1M9kaK3BDnUmFx1dSt9q/14HVWWKwTUmq1qdTxUaOHRkyHeT7VAA6ioN6irh0Z9XAvDRUot7psVp7tQsqM/kNHg7taQ0H0euFIu2qCKZVoQCUsUVolB1NTTCdgZHkPAoRLFpjShiKf8GBq/JONRjKBj4IpR286OybLBsTV2FwdUnljF2WID+vRQ1lYZvqopbYyg4YESAdxemnV92p+HwkYVxmOBew0xu/3EFiTSsbrVoatc8/naSyTOTWPYXe1m78X5qIODQheX3pbZe0h5TJFKKylJ5T4UoRN0JjQBdeu4n5zwKUTwWrTHw9YY8j4mnnJmABbvRSdI0YEitwZ5DTa44tpRPb67h47/15geHhBk11KSuqjBC43on7BvKy+63gAljh/ms3LgNJUEY3s9k/10C3HxOOSvvqOGFX1ZzxOgguw0yqSzp+oUScmAJrAZiqdz/3GKltWJpQwHdBIQQX+puaIQuVBzXk8qjEMVh0WoD5/ofFp+OuHakN05V6bZ/om2DDexYZ3DhUaXsUGewy0CTvlVGUTS/GN7XpH+1QWOHs2sZRw8JUFXm6Et4wthhJvddWEkirflstUVrRPP8rDRTZiZI29kHE1u6rDTZ5cNOiCflfpVLC1cb7LeLHMckRCHpSWiEbgRHkPAoRKGLJaGxIwDIpCFX2mPOTGr79zKwNWxaxDENqCxRVJUpJhxQwv87uqRojyswDRg1JMC0+c6WpPbdqbCqjdtSElSM2SH7Ox82MsjffljGp6ssrn0iyvIWm46Y/lqlXWvoU+XAhaizDb1ErmiWNBho6awqRMHoaWiEbgZHkPAoRCFb3miQrVGJXElldI/2Im5JxRdLBdf/7BH9TE7dP8ygWoO9dwwwpK5I0+ImvrGrs8HRUDB2WNCxn+8Xuw0ymXR5FYk0zF2eYeFai4+WWkyemcCys9dpWSj3SUQD6YxUHHPJ1gb1zYohfeR9FcLvchEaoQfBESQ8ClGoljcZzrUBLVLJtDM/tzSkKA0qLj+uhJ99u9SZFykAuw8yCQUUKYfCRe9yg2F9JaSvVxKE/XYOsN/OAc46GP7ygzJWtmh+cncnYQeCI0BCgmNuac3yJpMhfaSUK4Sf5So0Qheb42yONMwRorBkLGhok7VJudYe145k8XAQFt/aW0LjNuwy0OT4vUOONP0xDTh2bIiBPji/0U1DahUvXlNFmQONZzMWtEYkOOaWZlWLc2fQCiGcl8vQCDkIjiDhUYhCEk0qOuMSHHOtpdOmM0+H0Iuv61tl8LcflPO/63sxakggJyFeaxg3PMC7v+/F784oo3e5/N24pT2m5e/LAW1Rg7gcyySEL+U6NEKOgiNIeBSiUMQSEJHgmHO2hpaI7Bt1k2HA4FqDF35ZxeTLqzhpXBizG9+C4YBiwgFhnr26islXVNG3urCOL/Gjlk7523JCJJ79ThBC+IsToRFyGBxBwqMQhaC5Qzm2H6/YrV4nFRGv2G/nAH//YTkzb+zFyePCpLexjUsDaQvOOaSEt39fzZ/PKmevHYuri6qXrWix5dRZB0QTikhC3lkh/MSp0Ahf7+DeY2s+fyU2eOcjJ9kB45h4LNlv2bI17DxiCMGgfMEK4QfvLzRZ0yp7tZzQp1LxrT2k86ZXGArKw4pv7xXih4eUsKZN09xhE9/kwUm/aoNj9grx5M+rOGZsiLKwkgqjxzz0RpKPlmfk6AgH9CrX7NhPHnoJ4QdOhkbIccVxPak8CuFfy9ZKaHSCbcOiBjkX06v6VClu+VE5z1xdza9OLiNgQklAcf2Ecp66soq//qCcXrKH0bNWNltkLI3Em9xb1iDfCUL4gdOhEXJ+otjG9jnhr3WZkDkNzeia2io5qkMIj+uMKf7+TBhk+pUTSsGAXgYDa0yOGBXkvPFhggEJH34QT0IwAIGcr8sRTvl8jc3vp0ZZ1WqzpMGSbqA5YhhwzWlJ+VsQwsPyERrB4eAIXw+Pp552GKUSHoXwpDlLTZ5+V5aV50rfKoPJl1exQx95Yi9EvjS02xz3xw6apGFOznz/sDQ79Zf3UwgvyldoBIeWqm5o02WrUyZPJy7LVoXwpMWyTDVnykKK566W0ChEvvWrNnji51WUBKW6nyvy3SCEN8XzGBohD8ERJDwK4QepDDS2yUQrF3qXK279UTn95UB4IVyxU3+D286toLZC5eTMzmJX36SwpeAohKfEYwmm5DE0ggNdVbdkc91WR0i3VSE8oy2imLXYJJmW8NgdhsruiRvQy+DFX/Zi9A5ybxPCTTv1Mznv8FJaI5oljdk9j5Ihu8c0YI+hNmFpCi2EJ7gRGiEPexw3JXsehfCmpQ0Gj70R3OZ5dgICRjYojh4aYPTQAP16KQbVmBy8a5DaSgneQniNbcOyJpt3FqZpj2rWttssXmsxe1mGVEZj2Ugzna0oCcFZh6QZXCdlRyHc5lZoBBeCI0h4FMKL3vvc4D+z5HHyegoIBhQBE8IBxeEjg3x7rzC7DzbpU5X9F0ylMA3k7Lgc0Frex62x7Gz4USrb5VLOkewZrbNB0bJBo0mkYeFqi/krbZ7/MMGCVRaWDZatyVgSKgFOPSjNqKESHIVwk5uhEVwKjiDhUQivmfJWgHkrCrvfumFAdali3+FBBvQ2CAezE/HeZQYDehv0rTKoKlNUlChqKhRVpUrCTA7YGjIWNHXYLF5rs7gxQyoDq1tsljRaLGm0iCZgzx0C7LuTyUG7Btl7eMC9LyiPaI9ppsxMMm1emv99mv7yfx80FQeOCLDLQDN7HQcUuw00GVJnUFupCBhy3eZSIg3xlCaehGjSpi2q+Wh5hsYOm1hCs7jBZu6KDLFkYZ8jud8uNsfsk972vyiEcITboRFcDI4g4VEIL7n56RAd8cKbbWqdPYvv8uPKOGlciLJwNhgGAy7fAAtcIgUfLcvw9PspXp+XwtaQtrKVnWR669PrspDimL1C3PT98qI9O27RWosL7o6wpNHaZnMXBZSEFOFgNlSGAnD82DBH7xVk5BBTuos6SGtIpDWxJCxtsLjykSiLGyyMAuyLNaC35oJvp9wehhBFyQuhETwwb5LwKIT7OqKKm58rBW25PZSc6lNp8O0xIX51SillYddvdwUjW0HUrIto6ltsGjpsEilYuMbif5+m+Wh5dqOsUtkvme5Uv5SCc75Vwm8nlBVd9aypw+Z7t3Ty+Zru/z3qLxrBrA+d++0U5Bu7BBjWzyAcVAzsbTC4xqR3eXY5drG9x056YHqC+2YkWd5cWPdTpeCaCUmCRfowRwi3eCU0ggeCI8DYCbf0sW3rdQmPQrjj/c9NXvwwBLpw9q+YBjx9ZTV77iCznFyIJjQfr7B4/sMUHyxJk7ayy/fao5pI0pkFeoaCX59cznmHhx35+V5kazj5Lx3MXp5x9Au6okTRq0xRGlIYRjZYnrhviDE7BKRzZg6saLY55o8dRBKFc09FGZx+cIrdBxdWIBbCy7wUGsEjwREkPArhpkemh7444Lkwduj0Lle8eE0vBvb2zC3O0/QXy0gjiWy1qyOeDYTzVlq88GGKefXZCqLhQmOWkqDind/3oqaiOD7Ldz5P84PbOknneW5u62zzneyRFZq9hgY5du8Qew41qShVVJcq6qoMKsJSodxesaTmW9e10dRRGPdVUOw1PMN39pfW20Lkw6ah0TDMw2dPuqTJzTF55qCx2ZMuaRo74ZbDbdt6vbWlY/SUydMlPAqRB8k0NLRBoYTGUEDx65PLJDRuQ3vMZt5KmxdnJVneYpPKaNpimlWtNp2J7LWw/h0MufhNkbE1Hy3LMH5UcZTBZi+1yLhQ0DEUGF8W5xWfrM7wyeoMmux1UF2qGNDbpLpcEQ7AiH4mR40JsvvgANVl8re2OWVhxbWnlHPVI1GSmUK4v2qWNRhYdnZFhxDCOV4MjeCh4AgSHoVwQ2unIm0VzsRvcI3BcXuH3B6G6zIWpDKazrgmkdY0dmjeW5jh3mkJVq2zUOuPEzG/XkH00tVg2bCsyQKKIzg2dlieeoSz/lpoj2va419VmmYsSHPHawlsrdEadukf4MxvhNlnpwD9exuUBqGi9IulsF66oPLsyD2zHZyz17D/JdKKtqiittJLV6kQhcWroRE8FhxBwqMQ+dYaUXlfFucUreE7+4aKvhGOreGaR7PdHT9bY9EZ16C+CgGlIf+8P1pDJFE8k1St/fHZGGp9JTo73pWtFjc9H/sy9FaWKEb0N7nvwsqiWWa8OWVhxVFjgtz1qlUQy3szVvZhowRHIZzh5dAI4MnFBrMnXdJkGObhKD5ubelgyuTpxGMJt4clREFqajOwC6R/gwZO2q94GqlsiaEgY8OspRkiCf1ld1M/MhT0r/bkV5UjKkr8+kllqS/+E0loysOqqEPjeieMDXuqitwTGQtaOuUzFcIJXg+N4NHgCBIehciXVesKaxLQq9wbv49lQ0dME03qbZ7D54TT9i+MymvAVIwYWDydcUcNMQti/5hpwGkH5PchjtbQ2K75YHGGj5ZlaO60sTzwUKxXgYXnNa0FcIEK4TF+CI3gwaWqG5Jlq0Iyg81JAAAgAElEQVQ4b01rYU1qbHt9O4/8Wr+kcuaiDHe8HGfuysyXVYaKsOLfF1cxckj+AtBug0x2qDP4ZJW/1yGbBgytLZ7guO9OQUIBRTzl7xpVv2qDMQ4ehWNpMDf4M89YcOXDUZ7/MImtvzo/VCk4dI8wlx5Twq6DTFfOIEwVWBPS1S2F9Z0hhNv8EhrB48ERJDwK4aR1EUU0FQQKZ2azoN7m4N2cfyJua2jt1Lw+L8XyZptX5qRYuHbzIW1dRnPsH9s5fp8wew83sSxYvc5m4RqLf5xdQZ/q3E/EaioMDt0jxCer4jn/2fmiNZy0b5jayuKZqPapUnxn3xCPvZX09Z64A0YEGVrnTErriGuOuKGdHfuY7DHYpK7S4OH/JVjbtvny4itzk7wyN0kooBg/Msi4nQOMGRpgr2GBvATJNz5J+Xap+OY0dypSGXe7LQtRKPwUGsFH217knEchcu+NBSbT54ZAe2A9Vw5o4MxvhPnzWeWOvs6sxRaXPdSZPe8wprF7UBz6zSllnH+4M/ey5g6bcde04edP98M/96a2wJb6bUtrRDP2F+vcHka32RpevqaaPRyqsP/7zSS/eizao59RFlKUhuCMb5Rw8TEllDnUMCpjwbF/auez1f6u/G9EmZx8QJI9dyyg30kIF/gtNAL4Zv3P2gX/iQ0cddxkjf52PJbst2zZGkaMGEIwKI+8hOiu/3wQIJoonEm5Atas0xw1JkTvHO111BraYpp3Ps/w9PtpzpnYycNvJuiIaxLpnp9+GU9qThwXImDm/nMoCys6E5oPl/qzonzCPiFO27/4mh2VhhSLGyw+X+PPifm3dg/ykyOdeRiStuDW/yRY0tiz9yZtQTwF7y3KcMt/EsxZliFjQ9BUVJcZGDlatPDfBWkeeytZMJ2rgeyNVmtG7eDnR1JCuMuPoRE83Bxnc6RhjhC5k8pAY5tBz6OPt7RGbW57KTfLM9uiml8/FuXEm9q54O4I/3gxRiKtc3ou3fJmm+VNzk3AzvpmmLpKX93qASgJKk4aV3yhcb2TxoUpCfrvoU7IVFxyTKljP39Fk8X8+tw9CFEqu492xidprnw4ynf/0clJf+ngwyW5SXp/eiZOzOf7Vb9Gaxat8U3dQQjP8WtoBJ8FR5DwKESutMcU2j+r1beb1vD4O0n+8kw8e35hF3XEs10Zr34kyp5XrePhN5OsaLZJW85M/ho7bN5f7FxFcEitycG7Bh37+U7pW22wl4PNVbxurx1M+vnwGJIxO5rsNsi5z21+vUVjh3MPWloiNh+vzHDCTe18+8YOXv84zapWu8udkVc02xx1YzufrPJntX9bMrYqqNUqQuSLn0Mj+Gip6oZk2aoQPdfUbjBnqf8mptvDUPDe4gyzllh8Y9cgVaXbnuAsbbS57skY97yeYOIrceattL7syui0SBxOP9CZ6pppwIDeJg+/kfTNMQ8aOP2AMMeMDbk9FNeUhRX1rTazlmZ883jHsuHiY0oZt5Nz38U3PRtncYPz6z4NA5o7bZ75IMXLc1O89nEaUyl2HrD141IyFtz5aoLfToqytNH2dYOjrVPsuaNFhXPFZSEKjt9DI/ioOc7mjJ1wSx/bsqYBo6RhjhBd82m9wRP/818lqis0kExrDh8Z4vITyuhTqVj/fCmV0TS2a16cneLu1+LYZJfZuTHRy9jw2q+r2X2wc8/yfnpPlBdn+6NTZygAH/yxN9Vl+R2s1hBPa1o6NclMth5fGsoeYu/GstH2mGbfa9b55jiHftUG797YK6dLuTe0qtVmv1+1EXDpkXfGgoytGdTL5MfjSzhwlwBVX1yj6yKaGQvSTHwlTtrCNw9peuKcw9Ps0Ff2OQqxPQohNILPgyNIeBSiu+YtN5jydmEHxw1pna0ehgIK0CTTX/wflPs3Qg2M3yPI/RdVOhbsVq+zOeHPHTR3en+id84hJVx/elneX3fiywmmzU8xe2nmy2YmZWHFPsMCnLhviDO+kf89l799MsYD//X+doygqXj04kr2G+FctfHqf0d53CPHlOgv/7EBD9xL8un7h6XZqb/37ydCuG2j0AjzDNMc78fQCD7c47ip2ZMuaTJMczwwT/Y8CrH9Cqxdwzatn2ymMppU5qvDwb0w0VPA7OWZHneK3Jr+vQyO2cv7Sz/LQorj9s7vOCNxzYG/bucPT8d4f3G2u+b66yOe0rz5WZrLHopy1i2dea/+Hb9PiLKwF67SrTt4tyBjhzsXGhvbbV77OO2J0AjZv9kv7yEeupfkVbF9iQjRDYUUGqEAgiNIeBSiO4IF8ddfODrj2YDiFEPB2YeEPT/XG9bPYMSA/K1F1BoufTDK6jZrq8sLgya8+Vmaa5/o2fmBXbVzf5Phfb39x5q24NzDwgQd/Nje+CRDe0yqW17i1pJhIfyi0EIjFEhwBAmPQnRVKARF+Izcsywbnnw75ehrjBhgcu1JZdgeTo/H7x3O2Rmc2+OR/yV5Ze72v++PvpXk5Y+cC/ib6l2uOG5v7x5LojV8Z58w39rd2WXvT76TJFNIZyH6nVKUBD18IxHCZYUYGqGAgiNIeBSiKyq8OxctWnOWZ3h1rrOh5PwjSzhghDf3ttZUGJx5UP4uzIVrLH7zRLRLzVwMBeff3clnq/OXYs48KExNhTe/rgf0Nrj5HGf3o360zGLmovyFdbEdNEg7CSE2r1BDIxRYcAQJj0Jsr+pyeVrsNaYBVz0ScXwf3QWHl3humZkGJhyQv2qjZcM907r33aAU3DstgZWnlZO9yxUTDvDeMmNDwfnjSxztOKuBXz4S8dzvXuwMQ1NZKp+KEJsq5NAIBbxOrdC7rd5y8xNuD0EUgI4+J2OZVUiXA+9QCm79UQUn7ONcgxhbw0X3RHjxo5Rnmo1Uliie+HkVI4fkJ9EubbQ55W/ttEa6d+3XVCimXF7N8H75ef66oN7i9H900Bn3xt+qBkYOMnnysioqt+Oc1O56d2GaM//Z6enl1UVHKYKJlVSsm+b2SEQBuOSyM9weQs4UemiEAqw4rrdp5XHq5BlSeRRiE8H4kvyccC+2m9bw1HtJR1/DUPCPH1XktQnNtoweGmBYnkIYwI1TY7R0dj+NtHRqbpgSy+GItm5YX4PRQ5zrWtpVQUNx908qHQ2NAE+9l5LQ6DkG4fhStwchhKcUQ2gE8M63kANmT7qkaeyEW8bbljWtpaV91NTJMzjltEMLqvI4Z+plMusX3Tbw0tahgbS93O1xiI1Nm5fms9UWuw50LtiVBOHK48u49MEIybS7M3Nbw0njQpSF8nM7mz4vzX/mpAj0IKcqBa9+nOKVuWmO2tP5PaOlIcVJ40K8+Vm6S3synRAw4MoTShlS62zQb+7UvDjb2YZRohtsK7Vgl++Ucp2SNrei28accnPBPBIqltAIBVxxXG/DymNLS7tUHoXYwOp/1qxQmjluj0NszAbOuzOC7fC07PDRQU4eF0K7/PVdVWLk7ezG9pjmjlcTPQqN65kG3PVqnLZoft7A4/cJUV3q/tf2boMCnPVN55sY/eLhKO2xgplbFgytmCahUYiseCzB1MkziiI0QhEER5DwKMTWaMVTyCZHT1HAkiaLqQ4vWQ0F4I9nljOiv3tLVrWG8w4PU1GSnzLae4syvL84dx06Zy3J8PbnDncz+kJ5WHHe+LCrQb+8RHHPBRVUObxEdeaiDC/MScpKeu+x0eoZtwchhBesD40tLe1QBKERiiQ4goRHIbbENgP/AfJ7qrnYpoABj7+dJJZyNiUYBtz0/XJqXTruoU+VwfcOzs8RHJGE5rpJ0ZzumdPADVOidOSpac2ZB4fpU+XOZ1UWUtxwejkDa5x9/VQG7p+eIByQ1Og5ig5tZ153exhCuK0YQyMUUXAECY9CbE79rdXvKZjn9jjE1727MMP7C52vZu0zPMDPji5xpc32QbsG8xJaNTDx5QT1rblfYbd6nc0dryTyUravrTA4aFd3zuE8dGSQk8Y5v6R4cYPFy3Nkb6P3KND6+fq7+i50eyRCuKlYQyMUWXAECY9CbI7K6B+Bjrs9DrEx04BfPBrtUffP7XXOoSWcfUhJXpcGZmw4cs9gXs6UXNFk8+ws55b+PvtBkmWNzm/7Cphw1J5BMpbjL7WRccOD/PHMckyHZw2JFFz6QEQ6qXqSXpMy05e7PQoh3FTMoRGKMDiChEchNrXs7rpP0fYtbo9DfN3qNpvbXoo7vq/NNOCKE0oZNzx/zbZDBhw9Jj9NcZ5+P8nKFueCXX2rzdSZzu5JXe+oMSFCeSw6Dqk1+eePyulV7vxThYfeSPDpqjynYrFdtFI3rL11QNFMkIXYVLGHRijS4AgSHoXYlDJDd4Fe5PY4xMYU8NyHqbxMpqtKFX84s5yd+jpfArQ13HBGOaE85NRFay3uneb8/f2+GfkJPaEA/P708rxU5cIBxfUTyhzf1wjZJb9PvC0NcbxJfxBIpqe6PQoh3CKhMatogyNIeBRiQ8tv67UUDFmG5EFNHTZ/eS6elz10IwaY3HdhpeMNWAbXGHz/W843xbFs+PVjsbw0r4kkNL96PJqXZaRnfTPs+DmKhoK7z6/g8NHBvOx//dfrSRY3SrXRa7Qigwqfs/Tefg1uj0UIN0ho/EpRB0eQ8CjEhlZMrHkOzW9RSjpTeMxr81JMeTeVl6MYduhrcP2EMoIOFh6PGJ2fJapvfJJm7sr8HJcBsKDe4r8Lcnfcx9YcPsq591ADPz+2jG/ukZ81se8uzPCvGc4vyRZdFjVsLlxxe+V8twcihBskNG6s6IMjSHgUYkPJSPpvSutpbo9DbEwBt/wnzvIm5ysyCjh27xCPXVLlyLJB04Dxo/ITSO6bniCWzF8aiac0/5qen++P8aOCjjSrsWw477BSLjq6xPFmOADropo/PR2T0Og5CqV4sqK55iG3RyKEGyQ0fp0Exy9IeBQiq+Hh/tGkGfohIC3XPWZ5s8WD/03mZYKtgHE7B/jd6WU573rav1d+jpT474I00+blp/q30et+kua1uc6/7kG7BhnQK7df40rBmQeF+b/TSh2tOG9o6swUc5bnryosto+Gd4fNn3vB/EmyAkUUHwmNmyfBcQMSHoXIWntrZZNtqFOBlW6PRWzs4f8lmPxufrp3Apx1cAk3/7AiZ2HVsuH/Ti1zvCnOuojm6keieTnqY1MBA655PEqzw8eohALwf6eVYeWoWaxlw3f2CfPb08py8wO3w6erLP7+QkyO3/AaxQIryBkzZhwmiV4UHQmNWybBcRMSHoXIqr+t5mOtuA7y0pNFbKe0BX98Js6KZufPDITsstIT9w3xh++WEwr0fN3qDnUG397L+f2NT72XoqEjP+/R5jR15Od4jqPHhNixrufp2FBw6n4h/vmjcipK8tPWtCOuufDeCJGE3GK8REPGNLhs9T9rVrg9FiHyTULj1klw3AwJj0Jkrby99j6l7V+Ql56KYnu1RmxuejaW19f87kFh/vy9cgJmz66Fk/dzvpOqbcP9/024umdOa7h/RiIvHVZP3q9nQdzWcPqBYX53RnmORrR97p+eYHmzdFH1Eg0ZpThr6a21r7g9FiHyTULjtklw3AIJj0JkLZ9Y91fQT7g9DvEVrbMVtcfezN+S1YAJp+wf4p4LKigNdS88VpYqDs9DU5zrnoyxLA9NhLalvtXmV49GHX+dw0cHqSzt3mdiGHDB4SX8+axyqsvy94BocaPFTc/GcrbMVuSGgttX3F4zye1xCJFvEhq3jwTHrZDwKASglM7AVSi9WCqP3hEw4dono7zzeX6bvxw6Msg/zq5gcDcOhN9jUICRQ5zd3DhnefZYB8MDl6qh4JG3Eny41NltYiOHBBg5uOvva8CEq44v44rjSx0Y1ZYtabD4/i2dPa5eixzKtk9+ww4HfgdK1g6LoiKhcftJcNwGCY9CwOqJtStX3F63s0J3uD0W8ZW0Bdc9Gc/raxoKvr1XkEcvqerSAfS2hnMPLXG0KY5lw/3Tk54KJEFT8cCMpKOVtaAJ548v6VKDmVBAcc9PKrno6BLKwvl9v259KcHqdVJq9BTNohUTaw+pv7m61e2hCJFPEhq7RoLjdpDwKESW1pwHyMXvIZ+szvDjOyJ5PasQYIc+Bg9cWMkRo0LbVd0b0d/kyDHOLlNduMbi9XneOzlg2rwUn6xydunsYaOC7Dpg+5rk7NjH5LYfVXDoHvk5S3M9reGe1xNMeS9/S6zFtinoVFgXuD0OIfJNQmPXSXDcThIehYAV/WqmKPgDSm4dXqEUvPJxiokvJ/J+pMHOA0xuPbecsw7edrXr7EOcP0z+V49FaY97b5VdR0Lzy39HHW1PbBrww0NKtrmYfJ9hAZ74eSVH7xXM+3LeF2an+f3UmCx49xKlsLF/snxi3Qy3hyJEPklo7B6Z/XWBhEdR9K5T9vKJtTeA/SAo97uPCCC7fPSB/yZ4/eP8H3ZfFlbccEYZvz+9fIuH0Q/oZXDQrs6tUdU6e4j8+4szngwlCpizIsPjbyUd7fR60K4B+vfe/GdQGlJ8Z1yI+y6spP8WPicnLWu0+EueOwGLbUqD8ceVE/s8JvsaRTGR0Nh9Ehy7SMKjEJC00leD/tztcYivdCY0F98fYebC/J/XrRScfWiYf1+cDSWbVh9HDg6wY5+enzW4JW1Rzf0zEhge/kYzFDzyvyTros7Nz3eoMxm1mSY5pqH4y1nl3PzDCnqV5z9at8c0Z93a6YlOt2IDmvfiOvUHt4chRD5JaOwZD3/NepeER1HsGu7s32hkgqcAq90ei/hKPKX59eNRlje703hkp/4mM2/sxQ++WfLlkR1KwfcODhNwLjcybX6KuSvyH5i7at7KDK/OdW4PZsCEs74Z/qJBZnb56thhAd75fTUn7BtyfKnw5nQmNFc+HGVlqzTD8RIFn9slgRObJvaNuD0WIfJFQmPPSXDsJgmPotgtu7vqU6XU+UC722MRX1m41uLCezppd7CytS3Xn17GQz+rZKd+JqOHBDjEwSYs66KaG6b4ZwnkH56K0dzh3Gfzzd2CjBkaIGDA788o58GLKulX7d5X/Z+ejjNtfsqTS4iL2FoU50gHVVFMJDTmhgTHHpDwKIrd8ttrXgR1B9rRvh+ii+bXW/z0ngjtMXc+lqAJ++0c4LlfVHHz2RWOVRttG/75YtzR5Z+51hbT3PJi3LHjOQImXHtqGS/8sprvHRymusydyJa24Obn4zz03wQZWaHqISqjtbp++e2177g9EiHyRUJj7khw7CEJj6LYVTat+S0G97g9DrGxmYvTXDcp5uj5gdtSHlbs3N+5r5kljRb/+ch7x29sy0tzUyxa61ya2nenALsNcnBt8HaY/G6Su6d5e99pEdJKq+tX3lFzp9sDESJfJDTmltzSc0DCoyhm8yeNTAXS6moF77o9FvEVy4bJM5Nc+kCEdIFWfB57M8maNv/tnVvbbvPQfwv3O+K1j1Nc8VA072eLim36T9qK/93tQQiRLxIac0+CY45IeBTFbMndNe2GVj9BIXtmPMRQ8NJHKW6c6p89gNtr1pIMj7yZ9OXeOQU8+U6Kdz73fkOfrnr5ozSXPhAl6NzpK6LLFAo+M5Vx0eq7BxbezUCIzZDQ6AwJjjkk4VEUs6V31MwNmIEDgMKbDftY2oL7pif4+f1Rt4eSM6kM/N+TMRJp/1a0UpbmuklRkj7+HTY1b4XFeXd1EkkUzu9UGHS7rjIPXHp77+Vuj0SIfJDQ6BwJjjkm4VEUsyU1VYttbf8K5e7+KrExpeCZWUl++2TM0QPo82XavLSjewTzZVmTzatz024PIyde/ijNKX9vlz2NHqOUAVpfuuJP1W1uj0WIfJDQ6Cy5xTtAwqMoWtcpu7657u8G1uNfHiYnPMHW8NAbCc67y/97Hu9+Le7rauN6ibTmrtf8/93w7ucZLr4/QrIwMnDhUAZa29etmFj7ECj//8EIsQ0SGp0nwdEhEh5F0ZqkrGW3156Jtqe7PRSxMVvDq3NTXP5g1LWjOnrqybdTvL+kcFZDf7Q8wyNvJN0eRrdYNkx6J8mpf+8gmfHn9VTAtMZ+fMXE2utREhpF4ZPQmB8SHB0k4VEUM8PgIo0unI11BUIpeP7DJBP+3klrxF/zyTXrbP70bAyjgIrZhoK/PR9jZYv/usPe/VqC3zwRc+ycTtF9CppMbV3m9jiEyAcJjfkjwdFhEh5FsVp2W92npq2PB9rdHovYmK3hszUZvn9bp6/2Cn64NIMBBRVUDAUZG95b6J8qajSp+cNTcW58yt8NigrY2kza/uayiX3Xuj0QIZwmoTG/JDjmgYRHUayW3dlnBqhfoJT/TmkvAvNXZjj79k5e/9gfm9OO3DPEY5dWcs8FlRw3NkRlqSJj46uGP1pDxoKSkOKAnYPcdm4Fj11axTFjg24PbbtEE5pL749y3/Q4pswgvCgGXLzqnj6fuz0QIZwmoTH/5KSlPJk96ZKmsRNuGW9b1rSWlvZRUyfP4JTTDqW0rMTtoQnhqBV9e98ztKH1SBSnuj0W8XX1rTYX3x/hz2eVc8xeIU9X80IBGDHAZMQAk/GjskFr9lKLe16Ps6TRoqlD0xHXpC3tmTCpFAQMRWWporZCMaTW4JxDSvnWHgHf9Y9a2WJz4T0R5q7I+G7sxUHZaPtfK+6om+z2SIRwmoRGd0hwzCMJj6IoXafs0qubfhSPGCXAcW4PR3xdNKm54qEo7y5M86uTyigv8U8qGDvMZOJ5FWQsWL3OZmmjRUunzccrLKYvSNES0bRFNDbZZaEKYP1/zQH9xT802SXACuhVpqguU4wfGWLMjiY1FQY79DEYUmsS8um37mtz0/zx6RiLGiwJjR6ltX5wZb/ay90ehxBOk9DoHrn9u2DshFv62JY1DRhVW1vdrfB4y81PADBn6mXyGQpfGHphw3BU4FVguNtjEZtna/jmbkHu/UklZWG3R5M7nXHN/JUWz3yQYkF9hmhK09yhiac0muzyUVtnq5RbqlQqlf2PoVT2vwdKQ4q6SkV5WLHboAAn7hNi5BCTXuWFc1vWGibPTHLNo1HfH+NSyLRSc5KB9NGN/+zX4PZYhNgeY065WQNcctkZXfr/k9DorsL5dvOZnoZHCY7Cj4Zc1HCUIvAUUOb2WMTmaQ079DH5zSllHD3GH/vuusOyIZLQxJIQSdg0dejs/5zaJECqbKWyNASVJQZ9qxVl4WxYrChRBb3Pb22b5u/Px5j0bhLbI0t/xeboRqX0Mctv7/Oh2yMRYnt1JzhKaHSfhA4X9SQ8SnAUfjX0Z42nowOPgS7gKbf/WTZcekwpV51Y6vZQhAs6Yprj/tzBimYpM3qbSiqlD1t+e+07bo9EiK7oanCU0OgNMnFzkXRbFcXIDiWfU9h3ykYpbzMNuPWlOGfd2smClRIeikUqo7lvepKxv2yT0Oh5CrD+WJeu+cDtkQjhJAmN3iHB0WUSHkWxqb95SLwuU/tztH5fFj14m1Lw5qdpTr25gzteSZDx3xn1ogvWttmc+OdOfj81SsaStaneplDaenxFU93vZ92t/HGejhDdIKHRWyQ4eoCER1FsZt2t0kE7fTxKL3B7LGLbYknNn56JcdkDUWYvs7AkQBaUSELz+FtJTv5rB5+szsjn6wv67ZjS5zNJSVlYFCwJjd4jwdEjJDyKYrP4zn5NhrJ/pszCbcBSaJ6dleSc2zu44+UEtoSLgrC0webcOyL8+okoq9fJh+oLygCVuqBpYt+I20MRwikSGr1JgqOHSHgUxUXpZbf1mZGxU+eAlgvdJ9pimpuei3HCTR3MXJhxeziim5o6NA/OSPLtP7Qxc1GajNStfEFBh9KMX3H7gPluj0UIp0ho9C4Jjh6z2fAYT7o9LCEcs+r2ugc16ja3xyG2n1Iwb2WGx96SvO9Xd70a57opURKS/f1Ea/SNyyf2nu72QIRwioRGb5Pg6EEbhMf5LS3tTJ00XcKjKGg6HPs/pdQct8chtl8oAMfuHXZ7GKKb9h4ewJDeVD6jp62YWHeT26MQwinxeFJCo8dJcPSoL8LjYUh4FEWg/uYh8XQ6cQRKyQHWPjG4xmTsjgG3hyG6aa8dAwzsbbo9DLH9XrfD8RPcHoQQTonHk0ydNH19aJwvodGbJDh6mIRHUUxW3z2wWWl9MdDu9ljEth02MkifKilZ+dXA3gbf2k0aU/lEIxaX1N88JO72QIRwwmZC42ESGr1JgqPHbTY8SsMcUaCWT6x929BcBtJi3uvm1Vsk5PQ434olNZ+ulg2OXqchZhM4e8VdtXJ0kShI8VhCQqOPSHD0ga+Fx8kz3B6SEI5Zdkft/Urb14GSE8g9bGmjxYpmyfd+taTRZkmjfH4eZ6Osi+snVr/k9kCEcMoGexolNPqABEef2DQ8ClHIrFRwIooX3B6H2LJYUtMWlWzvV82dNhFZvOJ1DyU0T7o9CCGcJKHRXyQ4+sjsSZc0aZ0ZD8j5TaKg1f+rujVk9D5LwTK3xyI2L52BZEaCo18FDIXsUPUujX7XiNVc2DSxb8TtsQjhMAmNPiLB0WfmPnVVo4RHUQwW3ao6bMOeAKxyeyzi66rLFH2rev4Vct/0BH9/Ps70eWnaohotWXSzLBvqW2ymzEwydWaqxz+vX7WiV7lER2/Si7QV/OGyB5TUhEWhk9DoM9JL3YfmPnVV49gJtxxmW5YcAiwK2sq6ug+HNrb8ChV4EC37sbxkRH+TYX17Fhw74pqbno0TT2lKQ4o+VYrD9ghx9iFhhvczUZJrSKbhnc/T3DstycK1GZo6bAImHDqyNzUV3X+DduxrsssAk4Z2O4ejFT2nQHFR/Z1Vi7jL7bEI4SgJjT4kX8s+NnbCLX3kD04UgyE/a/4DWl2l5GGXJ5gG/OsnlRw2qvvHOWQs+MFtnbz1WXqjgKgBrWHXASZnHBhm98EmIwaY1FYYBIrg2MF4StPUofl0lcXbn6eZMjNJe0xv/DPUC7kAAB0BSURBVB5pGLdTgMcvrSLYg7+IGfPTnHtnJ5ZkR4/QCa2My1feXnOH2yMRwmkyh/UnCY5CCM/b8TpdoptaH9VanZyNFsJN39o9yAMXVWJ2s+C4stnmsbeS3PZyfKtVRQ0EDRhaZ1JdrjhpnxBHjQkxoLdRUNXIZAYWrMzw7AcpPliSoSVis2adjb2VS11r+MkRpZx9SJjBtd37ICwbzpnYyRufyLkqrlMKbH1vH6vmoll3K/lAhBCeVEBfvUKIQrbjRY39bczZQH+3x1LMSkOKB39Wyf47d73UtbTR5vrJMV6Zk8I0wejiN5Btg6WhT6XipHFhDh0ZZFCNQV2lQVkYQgHV5Z+ZT5adrShGEprGds3itRYvzE7xwuwkhlKYBl0KxLbOVm6P3SvEtaeVsWOfrgfImQsznD2xk3hKHsi4SSk+t0I1e9XfrOJuj0UIIbbEw1+xQgixseE/aRyRMY1poAa7PZZi9a3dg9x5fgXl4a59fSxaa/HD2zqpb7VzUi1c30SnJKTYoc6kb7WiqlQxZmiAkUNMdh1oUuPy8tZESrN6nWZxg8X7izIsabJojdisbbNZvc7GtvliS1vPaA1Dag3uOK+SPXfo2i8cTWp+ek9Eqo7umm8QPmLZxIq1bg9ECCG2RoKjEMJXdrio9SyNfgjpCp13Cph0eRXjdupatTGW1JwzMcLMRc6HE8vOVuIsO9uhdZf+Jt/aI8QuA0xGDQlQV5kNm+VhRTAASmWPpVAbBLhNg63+4h8b/letNbaGeCpbRYwmNCtbbObXW3yyKsMrH6XpTNoYCgwjW010uhq6384BHvpZJaWhrr3Q/2/vzqP9rus7j78/v99dkkwSknuTQEFQCmirMzqOioobTIsz6vG0UtQet46dcSFgp+JypjOtOnXOaD2uJLlIBisdPTptBBSnLlgWoVVBkEE2hURybxISzGrIcpff7/eZPwKWQPiSu35/v+/v8fgnh5zDzevcm9z7e/6+2y0bGnHup/c6CbwczVyL12xaPfjdsocAPBk3mgA6yvCKi7560i/fc1pE+rDrHedOzhErXzl/0tEYEXHjPY24fbgxC6ser16LqEdEb/1QPG3a1Yov33joqQa//tuSIxbNT3HsMbVY0Jeirzeiv+dQSPbUHv61figkG61Dp8g2mjnGmxHjE4eeXzneiNizvxW/3NuKiUfd8PfR8TnZgJuuO0aacfP6RrzimZO7adHzT+mJ886eH2uuLr7mlBnXilact2lINAKdwY8IoCOddN6u/x0pv7XsHd3ilGPrcfn7FsfSST77r5UjXvk/9sZ92+YmHLvd6af0xLoLF0/6/9u9P8e5n94b67d57M1cyRGf3DQ0+IGydwAcLad6AR2ppxl/HhF3lr2jGzRbEW99WX8sWTD59xq/fvO4aJxDN21oxLV3Tv6U4CULUrzt5fM8mmNOpMgRN/TX+z5R9hKAyRCOQEf6xdqBkVo0z04Re8veUmU5Iv7liT3x1pfPm/RpjAfHc3zx+tFZ2cWRpYi4+HujMT7JVk8p4i0v64/nndzz6xsPMTtSjpHxBROvXr9qkWfYAR1FOAIda+PQim0R+e0R8auyt1TVskW1uPRdC6d0d9J7tjRjZIdTH+fahm3N+PkDk/+812sRn3/HwlhxjJcGsyVH3t6M9LYHP3nc/rK3AEyWnw5ARzt5xeBVkeJzZe+oqje9pD9OGJjaj4pbNjTiVwcdvppru/a34kf3Tu0OtsctqcWbX9rvtlOzJOXan2/eseQfy94BMBXCEeho138kNUbWDH44p/SViOTw1gzJEXH80lq8/cz+Kd9p88qbx5z2WIKcI9bdNLXPfUoRf3zWvHjaspp4nEE5opFTfHrk4oG1sc73KaAzCUegEuq58b6I1m1l76iKBX0pvnTBohhcNLUfE3dvbsbdW7w+LsvPtjTjx+undlOiYxak+PJ7FsfieW68PlNSyjfUe2sfLXsHwHQIR6ASNg6t2Naq1f44InaXvaXT1WoRf/Kq+XHqcVO4sPFhl1476mhjmdL0vgYnLavFha+ZH3WvEmZA2tw3lv5o42eX7il7CcB0+JEAVMbm1QN3RM5vCDfLmbKcI577tJ54y0v7p/wxtu9txQ33THiYfIlSRNy0YSI27Zz68zXecEZ/nPH0Pm8ATM/WHPVz1l86uLnsIQDTJRyBShm5ePCaSLXPHXrpzGQds6AWX75gUSyewjMbH3HHSDP2uilO6faPRty5aeqnCy+cl+IL71445dOVSdHK+WObho75cdlLAGaCnwZAxaRc27/nYznyZZF8i5uM/t4Uf3HO/FjQP73ovv6uiRibEI5lm2jmuPbO8Wl9jP7eiA+fuyDm93kjZgo+vnlocHXZIwBmildVQOVsvOzk0U1Dg2+P3PpB2Vs6yWnH1eP3XjD1U1QfcfVPp/YoCGbe9++Z/tfi1c/ti2ccP/XrXbtSTleNDA38WaTkHRSgMoQjUFmp1bwgud7xqPTWIz507vzo753ex7nmjonYvMvdVNvF1t2t+P5dU7u76iP6eg4ddezrcdTxyaWIFJtzT+3CspcAzDThCFTW8OdX3Nab4iU5YnqvnLvA2c/uixeeOs1qjIgv3zgWNX3RNmop4ss3jk774/ybk3viNc/tm4FF1ZYj72tG77/etGrJhrK3AMw04QhU2vo1g3dFtD4YkZw/+QQWzkvxR6+YN+2Ps3tfjuvuHnc31TaSUsT37hyPPfunf8bkW17WH4vm++I+sTyWIp+/Zc3inWUvAZgNwhGovP76nqGIfIU7rR7ZacfV41lPmf41bD8daUS4oqv95Ie/NtP0WyfU47RpPNuz0lKKFGn18sbGr5Y9BWC2CEeg8tavOm1sZGjgTRH5hpA2j3P6Kb0zciTp9uGGT24byhHx/zZOPxwXzkvxglOmfzpzBbVSbl05PDT4/lvXPt+ZDUBlCUegS6RWivzuiORB3I+Sc8Sznzr9o0g5Im5a71LSdvWj+2Ym6p9xfD2ydwcOkyOvn2jU/rTsHQCzTTgCXWN4aNk9rcjvjIh9ZW9pJ0+fgUct7Nmf47b7hWO7+sn9jdj1UGvaH+eUFU5VPVzamXJ+0wNrB0bKXgIw24Qj0FU2Dw1+JyIujMhjZW+pks9/bzQeGnUoql3tH8ux+jvTv7vqeMPX+BEp4qGI/O6Ri5ffWvYWgLkgHIGus7wxcFmK2hVl72gXG7ZN77mLO/bm+Ny3DngMRxurpYg1Vx+Mrbund9Tx3mn+XamQ3KqlvxlZM3B52UMA5opwBLrOrWvTRM618yPi6m6/02pKEbcPTz0GWjnii9ePejh8B5jXm+Ky749Fa4oHDVs54o6RhsetRIqUW3+be/d/MFJyCBboGsIR6EojFy/ZPV7ve0vkvLHsLWX74b0TsW+Kp5nuPZDjqls9u7ETpBTxzVvGpvxMx50PtWbk7qydLuV8e+rvOW/zZ048WPYWgLkkHIGutW3Vou2pls6PiK6+hf6925rxw3snHwSNVsQnvnEwhrc7fbFTbN7Vio+sOxCjU/gbf80djfjFL6d/g52OluOhSLFy42eX7il7CsBcE45AVxteM/CtWq69oewdZTowluMj6w7EQweP/khUzhEXfftgfOWfRh1t7CApRXzjlrH4+NcPRGMSvX/f1mZ8eN2+br85TqNW6zl7eGjwB2UPASiD+2oDXW/PyR+/75iFo0sj1V4YXfoI+70Hc9y8vhHPPbknBhcVv6e4a1+Otf8wGpf8w2hMONjYke7a1Iyd+3I84/h6LJqfnvBK35wjfvDzRlzwxX2xa193/tuIiIhUi4j80eEVS74a1//3Lv5EAN3M+8QAEbF85S8Xzo/6jyLSs7o1HlOKWLaoFv/5VfPj3Bf1xfy+w39ETDQjrrtzPD7z9wfj51ub0ezysxY7XYqIE5fV460v6483ntEfxyw4/Os9sqMVF337YFz90/H41YHu/DcREREpRc75O/31gd9fvyp5jA/QtYQjwCP+w/3zTlqw+CcR8dtlTynbcUtq8ZJn9MYpx9ajpxax4cFm3PizRjyw2yHGKuqtRzz/N3vj+KW1aOaIrbtbcfOGichd3IuPSCluGl4z+KKydwCUTTgCPMpTV24/K0f6dkTqL3sLUK4csa+WWq8YXrP8J2VvASibm+MAPMrw0PLrUsSFkdJ42VuAMuWDkWtvFo0AhwhHgMcYHlo2FBGfighX8UF3mkiRPrTp4qVXlT0EoF0IR4AjmH+w+bGU4+aydwAlyHHtwu3bLip7BkA7cY0jwBM4ZeXOExsR/zdHPLvsLcDcyJFuaKWec7asWbyz7C0A7UQ4AhQ44T0PPqfe7LkuIpaWvQWYdQ+0enrO3HzRMfeVPQSg3ThVFaDAlotW/DQi/VlE8hwKqLbRyPGnohHgyIQjQJGU8siapWtTtD7sJA2orByt+JORiwe+VvYQgHYlHAGeTEq5t55WRYqrxCNUTYqI9KWx/RNfiUi57DUA7corIICjdPJ/evDYZm/PbZHiN8reAsyEFJHz3ft64sW7Vg3uLXsNQDtzxBHgKN1/6bEPRk/8bkQ8UPYWYAak2NDsiX8nGgGenHAEmISRiwbuiZz/a6r1lj0FmIZU74vI8d4tqwa2lL0FoBMIR4DJSCmPXLzsb1Jr4nPutAqdKk1Ec/z9I0MD33RdI8DRcY0jwNSkp5638ys5xR+WPQSYlByRLxkZWnZe2UMAOokjjgBTk1v11vsixbayhwCTkOP+nkbtv5Q9A6DTCEeAKdq0evkD0YjfCTfLgY6Qcvy8keLMX6wd+FXZWwA6jXAEmIaRSwbvzrl2XkQaK3sLUOhAI7XOe2BocFPZQwA6kXAEmKZTjl3yrZTjU2XvAJ5QK0V8aMuaZdeXPQSgU7k5DsCMyOmklbsvi8hvK3sJcLgU8anhoYEPuIMqwNQ54ggwI1Ju1vN/i8i3lL0EeLR8XU9r4hOiEWB6HHEEmEFPXbnjt3OkH0XE4rK3ALG1N+KFG1zXCDBtjjgCzKDhoWX3REpvjgh3bYQSpUjbc26+UTQCzAzhCDDDlk8s/W6K1kWRfIuFUqRa5Fr66KZj7/ph2VMAqsKpqgCz5MSVO65MkX4vfK+FudSKaH1hZGj5O8seAlAl3g4HmCV57OB/jBQ/KHsHdJMUcfXByBeWvQOgarwLDjCLTn7Xg89p1ntuiYiesrdAFzhQ61vwrI2fnb+x7CEAVeOII8Asuv+SY29P0XplROwtewtUWY68PbWaLxWNALNDOALMsuGh5ddFTv+z7B1QYTlF/ovhz6+4rewhAFUlHAHmQGve0osi4m/daRVmWEqRUhpa3hj+67KnAFSZaxwB5tBJK3fdGJFfWvYOqI78jZGhZb9f9gqAqvPWN8AcajYnLoiILWXvgGpI61s9vR8oewVAN3DEEWCOnXj+7pennK+JyO60ClOVYn9rIr1489qBO8qeAtANHHEEmGOb1iy9IXLrwog8WvYW6FD7I2rniUaAuSMcAUrQaI5/IXJtXdk7oENd2ldb8ndljwDoJk5VBSjJU967aX5tfME1keNF4fsxHIXUyhHffdH2pa9dty41y14D0E28UAEo0dMu2PFbrVa6KiJOK3sLdIA76qn22vvXLB0uewhAtxGOACU7aeX210bULo+I3rK3QBsbjVb63ZHPD/xT2UMAupFrHAFKNjK0/JsRcX7kGC97C7Sp/RHxVtEIUB7hCNAGRlb89IuR4itl74D2kyJS/K+RFQNXlL0EoJs5VRWgTZxw/ubBep5/VaR0RuRc9hwoX6pF5NbfH4zmH24fWrGv7DkA3Uw4ArSRU9+T+8dbO++KnE4pewuULqfbljeXvvDWtWmi7CkA3c6pqgBtZP2qNNbM+R0RsafsLVCeFBGxNafWu0QjQHtwxBGgDZ30np3PjFbcGDkGyt4Ccy2n2NyqxYu3rBrcXPYWAA5xxBGgDY2sGrw75da5EfGLsrfA3EkREXdFzueIRoD2IhwB2tTw0LLrc73+ykhxbUS4Ww4Vl1op8hWNRnr1pqFlPy57DQCHc6oqQJv7zXfuOqbRk/8qIt4QEUvL3gMzLUfeniK+OPZQ4y8f/NJx+8veA8DjCUeATvD6v6s/dflZL4+UPpSj58zIzbIXwfSleqTc+nrK+a82XjxwU0RyZB2gTQlHgA5z8vl73tDKzb/MkZ8WkfrL3gNTcCDnuC/V6h8YWbPke2WPAeDJCUeADnTo9NV4eUS8OiJem2r1E3JuReRW2dPgMVJESod+bTU25JSuTDl/d2xf44dOSwXoHMIRoAJOXLnjBamW3hE5XhM5fuPh3/Y9nrI8fMppaqUU9+UUX8/jtUs3rV2yodxZAEyVFxUAFXP8+/Yu6zvYfEorN5flqC9MMdEbtdn5fr9w1z/+n0iRXvWaM2bjw8+ZlCJSqv6PxG996wfRarZi/9Iz3tiKeRMRM3mtbD1SNFs5p7FapH2NWmvH+IG8ZcdfL39oBv8QAErSU/YAAGbWA59avCMidszFn/Wccz7z1YhIzzzpRXPxxzFN14xtimajGQf333HVyGUfGS17DwCdw3McAQAAKCQcAQAAKCQcAQAAKCQcAQAAKCQcAQAAKCQcAQAAKCQcAQAAKCQcAQAAKCQcAQAAKCQcAQAAKCQcAQAAKCQcAQAAKCQcAQAAKCQcAQAAKCQcAQAAKCQcAQAAKCQcAQAAKCQcAQAAKCQcAQAAKCQcAQAAKCQcAQAAKCQcAQAAKCQcAQAAKCQcAQAAKCQcAQAAKCQcAQAAKCQcAQAAKCQcAQAAKCQcAQAAKCQcAQAAKCQcAQAAKCQcAQAAKCQcAQAAKCQcAQAAKCQcAQAAKCQcAQAAKCQcAQAAKCQcAQAAKCQcAQAAKCQcAQAAKCQcAQAAKCQcAQAAKCQcAQAAKCQcAQAAKCQcAQAAKCQcAQAAKCQcAQAAKCQcAQAAKCQcAQAAKCQcAQAAKCQcAQAAKCQcAQAAKCQcAQAAKCQcAQAAKCQcAQAAKCQcAQAAKCQcAQAAKCQcAQAAKCQcAQAAKCQcAQAAKCQcAQAAKCQcAQAAKCQcAQAAKCQcAQAAKCQcAQAAKCQcAQAAKCQcAQAAKCQcAQAAKCQcAQAAKCQcAQAAKCQcAQAAKCQcAQAAKCQcAQAAKCQcAQAAKCQcAQAAKCQcAQAAKCQcAQAAKCQcAQAAKCQcAQAAKCQcAQAAKCQcAQAAKCQcAQAAKCQcAQAAKCQcAQAAKCQcAQAAKCQcAQAAKCQcAQAAKCQcAQAAKCQcAQAAKCQcAQAAKCQcAQAAKCQcAQAAKCQcAQAAKCQcAQAAKCQcAQAAKCQcAQAAKCQcAQAAKCQcAQAAKCQcAQAAKCQcAQAAKCQcAQAAKCQcAQAAKCQcAQAAKCQcAQAAKCQcAQAAKCQcAQAAKCQcAQAAKCQcAQAAKCQcAQAAKCQcAQAAKCQcAQAAKCQcAQAAKCQcAQAAKCQcAQAAKCQcAQAAKCQcAQAAKCQcAQAAKCQcAQAAKCQcAQAAKCQcAQAAKCQcAQAAKCQcAQAAKCQcAQAAKCQcAQAAKCQcAQAAKCQcAQAAKCQcAQAAKCQcAQAAKCQcAQAAKCQcAQAAKCQcAQAAKCQcAQAAKCQcAQAAKCQcAQAAKCQcAQAAKCQcAQAAKNRT9gCAqnveOy/pLXvDbGnsOFD2BKagf9f83ue985Jm2Ttmw61r3zVR9gaAKhKOALPo9NetHhzbceCaiHhO2VvgEfN6+vZWM/rTz571+k+cdde6D24rewlA1QhHgFl085UX7Dz9dat/ZyxN/DoeU0qRUip5Gd2oXkuRa9W5SiXnHDnnh/8r/axRHxeNALPEKxeAOfC8135yWaOvfm3k+FcDg4vjD849K+YvmFf2LOhYo6PjceXl18f2X+6OiLi3J+LMW69479aydwFUVb3sAQDdYOu9Vx94yqlnr2v11F518MDYsRs3bo1TTzsxenud+AGTJRoB5p5wBJgj4hGmTzQClEM4Aswh8QhTJxoByiMcAeaYeITJE40A5RKOACUQj3D0RCNA+YQjQEnEIzw50QjQHoQjQInEIzwx0QjQPoQjQMnEIzyeaARoL8IRoA2IR/hnohGg/QhHgDYhHkE0ArQr4QjQRsQj3Uw0ArQv4QjQZsQj3Ug0ArQ34QjQhsQj3UQ0ArQ/4QjQpsQj3UA0AnQG4QjQxsQjVSYaATqHcARoc+KRKhKNAJ1FOAJ0APFIlYhGgM4jHAE6hHikCkQjQGcSjgAdRDzSyQ6Lxhw/70lxlmgE6AzCEaDDiEc6kWgE6GzCEaADiUc6iWgE6HzCEaBDiUc6gWgEqAbhCNDBxCPtbHR0PK782nWxffse0QjQ4YQjQIcTj7Qj0QhQLcIRoAIeF4/3b41Tny4eKYdoBKge4QhQEYfF40HxSDlEI0A1CUeAChGPlEk0AlSXcASoGPFIGUQjQLUJR4AKEo/MJdEIUH3CEaCixCNzQTQCdAfhCFBh4pHZJBoBuodwBKg48chsEI0A3UU4AnQB8chMEo0A3Uc4AnSJR+Ix12v/XjwyVaIRoDsJR4AusvXeqw+ccOrZXxOPTIVoBOhewhGgy4hHpkI0AnQ34QjQhcQjkyEaARCOAF1KPHI0RCMAEcIRoKuJR4qIRgAeIRwBupx45EhEIwCPJhwBEI8cRjQC8FjCEYCIEI8cIhoBOBLhCMCvicfuJhoBeCLCEYDDiMfuJBoBKCIcAXgc8dhdRCMAT0Y4AnBE4rE7iEYAjoZwBOAJicdqE40AHC3hCEAh8VhNohGAyRCOADwp8VgtohGAyRKOABwV8VgNohGAqRCOABw18djZRCMAUyUcAZgU8diZRCMA0yEcAZg08dhZRCMA0yUcAZgS8dgZRCMAM0E4AjBl4rG9iUYAZopwBGBaxGN7Eo0AzCThCMC0icf2IhoBmGnCEYAZIR7bg2gEYDYIRwBmjHgsl2gEYLYIRwBmlHgsh2gEYDYJRwBmnHicW6IRgNkmHAGYFeJxbohGAOaCcARg1ojH2SUaAZgrwhGAWSUeZ4doBGAuCUcAZp14nFmiEYC5JhwBmBPicWaIRgDKIBwBmDPicXpEIwBlEY4AzCnxODWPjcZGz8SZt1/+/m1l7wKgOwhHAOaceJycI0XjXes+KBoBmDPCEYBSiMejIxoBaAfCEYDSiMdiohGAdiEcASiVeDwy0QhAOxGOAJROPB5ONALQboQjAG3hiPF42onR29dd8SgaAWhHwhGAttHt8SgaAWhXqewBAPBYp79u9eB4mrg2Rzx7YGBxnHPuWbHgX8wre9asGh0djyu+dl3s2L4nItLPGvXxs0QjAO1COALQlropHkUjAO1OOALQtrohHkUjAJ1AOALQ1qocj6IRgE4hHAFoe1WMR9EIQCcRjgB0hCrFo2gEoNMIRwA6xqPjcenA4viDDoxH0QhAJxKOAHSUTo5H0QhApxKOAHScToxH0QhAJxOOAHSkTopH0QhApxOOAHSsTohH0QhAFdTKHgAAU3XzlRfs7Mu9/zYibt+9a29c/rXr4sD+0bJn/ZpoBKAqHHEEoOOd/rrVg2Np4pqIeE67HHkUjQBUiXAEoBLaKR5FIwBVIxwBqIx2iEfRCEAVCUcAKqXMeBSNAFSVcASgcsqIR9EIQJUJRwAqaS7jUTQCUHXCEYDKmot4FI0AdAPhCEClzWY8ikYAuoVwBKDyZiMeRSMA3UQ4AtAVZjIeRSMA3UY4AtA1ZiIeRSMA3Ug4AtBVphOPohGAbiUcAeg6U4lH0QhANxOOAHSlycSjaASg2wlHALrW0cSjaAQA4QhAlyuKR9EIAIcIRwC63pHisVaviUYAeJhwBIB4fDzW6zXRCAAPE44A8LBHx+Oh3xGNABAhHAHgMP8cj6lfNAIAAHBEp79u9eCzXv+J48reAQDt4v8DHkxnV4xX7OsAAAAASUVORK5CYII=;" vertex="1" parent="1">
                    <mxGeometry x="636" y="59.999999999999986" width="75" height="75.16" as="geometry"/>
                </mxCell>
                <mxCell id="332" value="" style="endArrow=classic;html=1;entryX=1.007;entryY=0.381;entryDx=0;entryDy=0;exitX=1;exitY=0;exitDx=0;exitDy=0;entryPerimeter=0;rounded=1;" parent="1" source="277" target="268" edge="1">
                    <mxGeometry width="50" height="50" relative="1" as="geometry">
                        <mxPoint x="740" y="-328" as="sourcePoint"/>
                        <mxPoint x="1213" y="-300.6600000000001" as="targetPoint"/>
                        <Array as="points">
                            <mxPoint x="1050" y="-328"/>
                            <mxPoint x="1050" y="-570"/>
                        </Array>
                    </mxGeometry>
                </mxCell>
                <mxCell id="333" value="" style="endArrow=classic;html=1;rounded=1;entryX=0.988;entryY=0.385;entryDx=0;entryDy=0;entryPerimeter=0;exitX=0.995;exitY=0.63;exitDx=0;exitDy=0;exitPerimeter=0;" parent="1" source="293" target="268" edge="1">
                    <mxGeometry width="50" height="50" relative="1" as="geometry">
                        <mxPoint x="950" y="-308" as="sourcePoint"/>
                        <mxPoint x="850" y="-568" as="targetPoint"/>
                        <Array as="points">
                            <mxPoint x="1050" y="-198"/>
                            <mxPoint x="1050" y="-570"/>
                        </Array>
                    </mxGeometry>
                </mxCell>
                <mxCell id="457" value="" style="group" vertex="1" connectable="0" parent="1">
                    <mxGeometry x="760" y="-670" width="146" height="316" as="geometry"/>
                </mxCell>
                <mxCell id="452" value="" style="group" vertex="1" connectable="0" parent="457">
                    <mxGeometry width="146" height="316" as="geometry"/>
                </mxCell>
                <mxCell id="453" value="&lt;span style=&quot;color: rgba(0, 0, 0, 0); font-family: monospace; font-size: 0px; text-align: start;&quot;&gt;%3CmxGraphModel%3E%3Croot%3E%3CmxCell%20id%3D%220%22%2F%3E%3CmxCell%20id%3D%221%22%20parent%3D%220%22%2F%3E%3CmxCell%20id%3D%222%22%20value%3D%22%22%20style%3D%22sketch%3D0%3Bhtml%3D1%3Bwhitespace%3Dwrap%3BfillColor%3D%232875E2%3BstrokeColor%3D%23ffffff%3Bpoints%3D%5B%5B0.005%2C0.63%2C0%5D%2C%5B0.1%2C0.2%2C0%5D%2C%5B0.9%2C0.2%2C0%5D%2C%5B0.5%2C0%2C0%5D%2C%5B0.995%2C0.63%2C0%5D%2C%5B0.72%2C0.99%2C0%5D%2C%5B0.5%2C1%2C0%5D%2C%5B0.28%2C0.99%2C0%5D%5D%3BverticalLabelPosition%3Dbottom%3Balign%3Dcenter%3BverticalAlign%3Dtop%3Bshape%3Dmxgraph.kubernetes.icon%3BprIcon%3Dnode%3BfontSize%3D12%3B%22%20vertex%3D%221%22%20parent%3D%221%22%3E%3CmxGeometry%20x%3D%223215%22%20y%3D%22-808%22%20width%3D%2275%22%20height%3D%2273%22%20as%3D%22geometry%22%2F%3E%3C%2FmxCell%3E%3C%2Froot%3E%3C%2FmxGraphModel%3E&lt;/span&gt;" style="rounded=0;whiteSpace=wrap;html=1;strokeColor=#F0F0F0;fillColor=none;dashed=1;strokeWidth=2;" vertex="1" parent="452">
                    <mxGeometry width="120" height="297" as="geometry"/>
                </mxCell>
                <mxCell id="454" value="" style="sketch=0;html=1;whitespace=wrap;fillColor=#2875E2;strokeColor=#ffffff;points=[[0.005,0.63,0],[0.1,0.2,0],[0.9,0.2,0],[0.5,0,0],[0.995,0.63,0],[0.72,0.99,0],[0.5,1,0],[0.28,0.99,0]];verticalLabelPosition=bottom;align=center;verticalAlign=top;shape=mxgraph.kubernetes.icon;prIcon=node;fontSize=12;" vertex="1" parent="452">
                    <mxGeometry x="96" y="-32" width="50" height="50" as="geometry"/>
                </mxCell>
                <mxCell id="455" value="Worker Node" style="text;html=1;strokeColor=none;fillColor=none;align=center;verticalAlign=middle;whiteSpace=wrap;rounded=0;dashed=1;strokeWidth=2;" vertex="1" parent="452">
                    <mxGeometry x="22.5" y="-3" width="75" height="30" as="geometry"/>
                </mxCell>
                <mxCell id="267" value="" style="group" parent="457" vertex="1" connectable="0">
                    <mxGeometry x="33" y="42" width="54" height="101" as="geometry"/>
                </mxCell>
                <mxCell id="268" value="" style="rounded=0;whiteSpace=wrap;html=1;" parent="267" vertex="1">
                    <mxGeometry x="2" y="31" width="50" height="70" as="geometry"/>
                </mxCell>
                <mxCell id="269" value="&lt;b&gt;CA&lt;/b&gt;" style="sketch=0;aspect=fixed;html=1;points=[];align=center;image;fontSize=12;image=img/lib/mscae/Docker.svg;" parent="267" vertex="1">
                    <mxGeometry x="12" y="56.74000000000001" width="30" height="24.6" as="geometry"/>
                </mxCell>
                <mxCell id="270" value="" style="sketch=0;html=1;dashed=0;whitespace=wrap;fillColor=#2875E2;strokeColor=#ffffff;points=[[0.005,0.63,0],[0.1,0.2,0],[0.9,0.2,0],[0.5,0,0],[0.995,0.63,0],[0.72,0.99,0],[0.5,1,0],[0.28,0.99,0]];verticalLabelPosition=bottom;align=center;verticalAlign=top;shape=mxgraph.kubernetes.icon;prIcon=pod" parent="267" vertex="1">
                    <mxGeometry width="54" height="51" as="geometry"/>
                </mxCell>
                <mxCell id="465" value="" style="sketch=0;html=1;dashed=0;whitespace=wrap;fillColor=#2875E2;strokeColor=#ffffff;points=[[0.005,0.63,0],[0.1,0.2,0],[0.9,0.2,0],[0.5,0,0],[0.995,0.63,0],[0.72,0.99,0],[0.5,1,0],[0.28,0.99,0]];verticalLabelPosition=bottom;align=center;verticalAlign=top;shape=mxgraph.kubernetes.icon;prIcon=ep;strokeWidth=2;" vertex="1" parent="267">
                    <mxGeometry x="2" y="-296" width="50" height="48" as="geometry"/>
                </mxCell>
                <mxCell id="469" value="" style="endArrow=classic;html=1;curved=1;exitX=0.28;exitY=0.99;exitDx=0;exitDy=0;exitPerimeter=0;entryX=0.1;entryY=0.2;entryDx=0;entryDy=0;entryPerimeter=0;" edge="1" parent="267" source="465" target="270">
                    <mxGeometry width="50" height="50" relative="1" as="geometry">
                        <mxPoint x="-113" y="-22" as="sourcePoint"/>
                        <mxPoint x="-63" y="-72" as="targetPoint"/>
                        <Array as="points">
                            <mxPoint x="-23" y="-112"/>
                        </Array>
                    </mxGeometry>
                </mxCell>
                <mxCell id="470" value="" style="endArrow=classic;html=1;curved=1;exitX=0.72;exitY=0.99;exitDx=0;exitDy=0;exitPerimeter=0;entryX=0.9;entryY=0.2;entryDx=0;entryDy=0;entryPerimeter=0;" edge="1" parent="267" source="465" target="270">
                    <mxGeometry width="50" height="50" relative="1" as="geometry">
                        <mxPoint x="26" y="-238.48000000000002" as="sourcePoint"/>
                        <mxPoint x="15.400000000000091" y="20.199999999999818" as="targetPoint"/>
                        <Array as="points">
                            <mxPoint x="67" y="-122"/>
                        </Array>
                    </mxGeometry>
                </mxCell>
                <mxCell id="271" value="" style="group" parent="457" vertex="1" connectable="0">
                    <mxGeometry x="33" y="175" width="54" height="101" as="geometry"/>
                </mxCell>
                <mxCell id="272" value="" style="rounded=0;whiteSpace=wrap;html=1;" parent="271" vertex="1">
                    <mxGeometry x="2" y="31" width="50" height="70" as="geometry"/>
                </mxCell>
                <mxCell id="273" value="&lt;b&gt;IA&lt;/b&gt;" style="sketch=0;aspect=fixed;html=1;points=[];align=center;image;fontSize=12;image=img/lib/mscae/Docker.svg;" parent="271" vertex="1">
                    <mxGeometry x="12" y="56.74000000000001" width="30" height="24.6" as="geometry"/>
                </mxCell>
                <mxCell id="274" value="" style="sketch=0;html=1;dashed=0;whitespace=wrap;fillColor=#2875E2;strokeColor=#ffffff;points=[[0.005,0.63,0],[0.1,0.2,0],[0.9,0.2,0],[0.5,0,0],[0.995,0.63,0],[0.72,0.99,0],[0.5,1,0],[0.28,0.99,0]];verticalLabelPosition=bottom;align=center;verticalAlign=top;shape=mxgraph.kubernetes.icon;prIcon=pod" parent="271" vertex="1">
                    <mxGeometry width="54" height="51" as="geometry"/>
                </mxCell>
                <mxCell id="462" value="" style="endArrow=classic;html=1;dashed=1;dashPattern=1 4;exitX=0.25;exitY=0;exitDx=0;exitDy=0;entryX=0;entryY=0.5;entryDx=0;entryDy=0;curved=1;" edge="1" parent="1" source="411" target="455">
                    <mxGeometry width="50" height="50" relative="1" as="geometry">
                        <mxPoint x="594" y="50" as="sourcePoint"/>
                        <mxPoint x="644" as="targetPoint"/>
                        <Array as="points">
                            <mxPoint x="600" y="-360"/>
                        </Array>
                    </mxGeometry>
                </mxCell>
                <mxCell id="459" value="" style="group" vertex="1" connectable="0" parent="1">
                    <mxGeometry x="760" y="-368" width="146" height="316" as="geometry"/>
                </mxCell>
                <mxCell id="451" value="" style="group" vertex="1" connectable="0" parent="459">
                    <mxGeometry width="146" height="316" as="geometry"/>
                </mxCell>
                <mxCell id="412" value="&lt;span style=&quot;color: rgba(0, 0, 0, 0); font-family: monospace; font-size: 0px; text-align: start;&quot;&gt;%3CmxGraphModel%3E%3Croot%3E%3CmxCell%20id%3D%220%22%2F%3E%3CmxCell%20id%3D%221%22%20parent%3D%220%22%2F%3E%3CmxCell%20id%3D%222%22%20value%3D%22%22%20style%3D%22sketch%3D0%3Bhtml%3D1%3Bwhitespace%3Dwrap%3BfillColor%3D%232875E2%3BstrokeColor%3D%23ffffff%3Bpoints%3D%5B%5B0.005%2C0.63%2C0%5D%2C%5B0.1%2C0.2%2C0%5D%2C%5B0.9%2C0.2%2C0%5D%2C%5B0.5%2C0%2C0%5D%2C%5B0.995%2C0.63%2C0%5D%2C%5B0.72%2C0.99%2C0%5D%2C%5B0.5%2C1%2C0%5D%2C%5B0.28%2C0.99%2C0%5D%5D%3BverticalLabelPosition%3Dbottom%3Balign%3Dcenter%3BverticalAlign%3Dtop%3Bshape%3Dmxgraph.kubernetes.icon%3BprIcon%3Dnode%3BfontSize%3D12%3B%22%20vertex%3D%221%22%20parent%3D%221%22%3E%3CmxGeometry%20x%3D%223215%22%20y%3D%22-808%22%20width%3D%2275%22%20height%3D%2273%22%20as%3D%22geometry%22%2F%3E%3C%2FmxCell%3E%3C%2Froot%3E%3C%2FmxGraphModel%3E&lt;/span&gt;" style="rounded=0;whiteSpace=wrap;html=1;strokeColor=#F0F0F0;fillColor=none;dashed=1;strokeWidth=2;" vertex="1" parent="451">
                    <mxGeometry width="120" height="297" as="geometry"/>
                </mxCell>
                <mxCell id="447" value="" style="sketch=0;html=1;whitespace=wrap;fillColor=#2875E2;strokeColor=#ffffff;points=[[0.005,0.63,0],[0.1,0.2,0],[0.9,0.2,0],[0.5,0,0],[0.995,0.63,0],[0.72,0.99,0],[0.5,1,0],[0.28,0.99,0]];verticalLabelPosition=bottom;align=center;verticalAlign=top;shape=mxgraph.kubernetes.icon;prIcon=node;fontSize=12;" vertex="1" parent="451">
                    <mxGeometry x="96" y="266" width="50" height="50" as="geometry"/>
                </mxCell>
                <mxCell id="450" value="Worker Node" style="text;html=1;strokeColor=none;fillColor=none;align=center;verticalAlign=middle;whiteSpace=wrap;rounded=0;dashed=1;strokeWidth=2;" vertex="1" parent="451">
                    <mxGeometry x="22.5" y="271" width="75" height="30" as="geometry"/>
                </mxCell>
                <mxCell id="290" value="" style="group" parent="459" vertex="1" connectable="0">
                    <mxGeometry x="33" y="140" width="54" height="101" as="geometry"/>
                </mxCell>
                <mxCell id="291" value="" style="rounded=0;whiteSpace=wrap;html=1;fillColor=default;gradientColor=none;" parent="290" vertex="1">
                    <mxGeometry x="2" y="31" width="50" height="70" as="geometry"/>
                </mxCell>
                <mxCell id="292" value="&lt;b&gt;IA&lt;/b&gt;" style="sketch=0;aspect=fixed;html=1;points=[];align=center;image;fontSize=12;image=img/lib/mscae/Docker.svg;" parent="290" vertex="1">
                    <mxGeometry x="12" y="56.74000000000001" width="30" height="24.6" as="geometry"/>
                </mxCell>
                <mxCell id="293" value="" style="sketch=0;html=1;dashed=0;whitespace=wrap;fillColor=#2875E2;strokeColor=#ffffff;points=[[0.005,0.63,0],[0.1,0.2,0],[0.9,0.2,0],[0.5,0,0],[0.995,0.63,0],[0.72,0.99,0],[0.5,1,0],[0.28,0.99,0]];verticalLabelPosition=bottom;align=center;verticalAlign=top;shape=mxgraph.kubernetes.icon;prIcon=pod" parent="290" vertex="1">
                    <mxGeometry width="54" height="51" as="geometry"/>
                </mxCell>
                <mxCell id="458" value="" style="group" vertex="1" connectable="0" parent="459">
                    <mxGeometry x="33" y="7" width="54" height="101" as="geometry"/>
                </mxCell>
                <mxCell id="277" value="" style="rounded=0;whiteSpace=wrap;html=1;fillColor=#18141D;gradientColor=none;" parent="458" vertex="1">
                    <mxGeometry x="2" y="31" width="50" height="70" as="geometry"/>
                </mxCell>
                <mxCell id="278" value="&lt;b&gt;IA&lt;/b&gt;" style="sketch=0;aspect=fixed;html=1;points=[];align=center;image;fontSize=12;image=img/lib/mscae/Docker.svg;" parent="458" vertex="1">
                    <mxGeometry x="12" y="56.74000000000001" width="30" height="24.6" as="geometry"/>
                </mxCell>
                <mxCell id="279" value="" style="sketch=0;html=1;dashed=0;whitespace=wrap;fillColor=#2875E2;strokeColor=#ffffff;points=[[0.005,0.63,0],[0.1,0.2,0],[0.9,0.2,0],[0.5,0,0],[0.995,0.63,0],[0.72,0.99,0],[0.5,1,0],[0.28,0.99,0]];verticalLabelPosition=bottom;align=center;verticalAlign=top;shape=mxgraph.kubernetes.icon;prIcon=pod" parent="458" vertex="1">
                    <mxGeometry width="54" height="51" as="geometry"/>
                </mxCell>
                <mxCell id="463" value="" style="endArrow=classic;html=1;dashed=1;dashPattern=1 4;exitX=0.75;exitY=0;exitDx=0;exitDy=0;entryX=0;entryY=0.5;entryDx=0;entryDy=0;curved=1;" edge="1" parent="1" source="411" target="450">
                    <mxGeometry width="50" height="50" relative="1" as="geometry">
                        <mxPoint x="690" y="50" as="sourcePoint"/>
                        <mxPoint x="739.9999999999995" as="targetPoint"/>
                        <Array as="points">
                            <mxPoint x="700" y="-30"/>
                        </Array>
                    </mxGeometry>
                </mxCell>
                <mxCell id="386" value="Azure SDK (AMQP)&lt;br&gt;&amp;nbsp;Anzahl Nachrichten prüfen" style="edgeLabel;html=1;align=center;verticalAlign=middle;resizable=0;points=[];" parent="1" vertex="1" connectable="0">
                    <mxGeometry x="618.999267086282" y="-53.998982570959924" as="geometry"/>
                </mxCell>
                <mxCell id="381" value="8. Verarbeitung bestätigen &amp;amp; Nachricht aus Queue löschen (Azure SDK AMQP)" style="edgeLabel;html=1;align=center;verticalAlign=middle;resizable=0;points=[];fontColor=default;" parent="1" vertex="1" connectable="0">
                    <mxGeometry x="504.99659244632676" y="-164.99981790375685" as="geometry"/>
                </mxCell>
                <mxCell id="379" value="8. Verarbeitung bestätigen &amp;amp; Nachricht aus Queue löschen (Azure SDK AMQP)" style="edgeLabel;html=1;align=center;verticalAlign=middle;resizable=0;points=[];fontColor=default;" parent="1" vertex="1" connectable="0">
                    <mxGeometry x="528.0030689644726" y="-413.1599869735957" as="geometry"/>
                </mxCell>
                <mxCell id="468" value="" style="endArrow=classic;html=1;curved=1;exitX=0.5;exitY=1;exitDx=0;exitDy=0;entryX=0.5;entryY=0;entryDx=0;entryDy=0;entryPerimeter=0;" edge="1" parent="1" source="467" target="465">
                    <mxGeometry width="50" height="50" relative="1" as="geometry">
                        <mxPoint x="680" y="-720" as="sourcePoint"/>
                        <mxPoint x="730" y="-770" as="targetPoint"/>
                    </mxGeometry>
                </mxCell>
                <mxCell id="471" value="Kubernetes Load Balancer Service" style="text;html=1;strokeColor=none;fillColor=none;align=center;verticalAlign=middle;whiteSpace=wrap;rounded=0;dashed=1;strokeWidth=2;" vertex="1" parent="1">
                    <mxGeometry x="690" y="-915" width="100" height="30" as="geometry"/>
                </mxCell>
                <mxCell id="467" value="Azure Load Testing" style="shape=image;verticalLabelPosition=bottom;labelBackgroundColor=default;verticalAlign=top;aspect=fixed;imageAspect=0;image=data:image/png,iVBORw0KGgoAAAANSUhEUgAAAlgAAAE7CAYAAAAB7v+1AAAAAXNSR0IArs4c6QAAAARnQU1BAACxjwv8YQUAAAAJcEhZcwAADsMAAA7DAcdvqGQAADIXSURBVHhe7d1bbFVXnufx/ZaXkfKYt8kjo3nJDD0aNOoHpHlBaamVkWZUVIcEh3Axt+DiEo5JVRdJuppJulOZdFcPoXq6TBICIUC4x4AxNreYuwHb2CQBQwhxIAGbm4/v58z6HxZUYv9t7/u57O9H+glFBT7n7LXk9au991nbARDQspannMqmcifVXO1UttSZdJpkSQEm1Zw2f8oYmTRXOKm2p+0oAgCAgpFqKTOLNYWqWCOFK9WUsqMJAADyauXZJ80CvWHEgk2KNXW5M5EAACCPHl5m0hZqUqxJtbQ6v73yhB1hAAAQK7mkpC3QpARyYZUdZQAAEJsVTRPsjdLK4kxKIsvPT7KjDQAAYlF5oUpdlEkpZYMdbQAAEAu+MVj6kTOU3IsFAEBMcvtdKQsyKb2wPxYAADF5reUZdTEmpZdU82Q76gAAIFKy6GqLMSm9ULAAAIgJBSs5oWABABATClZyQsECACAmsj+SthiT0gsFCwCAmPAtwuSEzUYBAIgRu7gnIzz4GQCAGMku39qCTEop7Xa0AQBALCpbpgxbjEnJhQc+AwAQP55HWLpJtbTymBwAAPJBFuBUc6tT2WwWZVJS4eZ2AADySB6bQ8kqnaSa0k5lU7kdXQAAkDdyJquyedWIxZoUWZoanRVNE+yoAgCAgiBns1a0vGsW6jp9AScFmHaTrU7l+QruuQIAoFjJvT3Lm1c5KbO4kzhS7aTOl5k/J48Ie1wBAFBiZIFf3pQ2f2qlgISRV7mXCgCA5Ek1pdRiQIJneXOVPcoAACBR5IZqrRyQEHL2aXuUAQBA4qSaTBkgoWZ5E4+4AQAg0bSCQIJleVOdPboAACCRtIJAgoWCBQBAwmkFgQQLBQsAgITTCgIJFgoWAAAJpxUEEiwULAAAEi513pQCEmqWn6dgAQCQaFpBIMFCwQIAIOGW5woBCTcULAAAEk0vCCRYKFgAACTa8nOmEJCQQ8ECACDR9IJAgoWCBQBAoukFgQQLBQsAgETTCwIJFgoWAACJtvysKQQk3DRSsAAASDS1IJBgoWABAJBsr5pCQEIOBQsAgGRTCwIJFgoWAADJ9mqjFAISbihYAAAkml4QSLBQsAAASDS9IJBgoWABAJBoekEgwULBAgAg0V49YwoBCTkULAAAEm2ZKQQk7FCwAABINL0gkGChYAEAkGh6QSDBQsECACDR9IJAgoWCBQBAoi07bQoBCTkULAAAEk0vCCRYKFgAACSaXhBIsFCwAABINL0gkGChYAEAkGhLTSEg4WYJBQsAgGRbesqUAhJqlpykYAEAkGhaQSDBQsECACDhtIJAgoWCBQBAwmkFgQQLBQsAgITTCgIJFgoWAAAJt/SkKQUk1FCwAABIOK0gkGChYAEAkHBLcoWAhBsKFgAAiaYXBBIsFCwAABJtyQlTCEjIoWABAJBoekEgwULBAgAg0fSCQIKFggUAQKLpBYEECwULAIBEW3LcFAIScihYAAAkml4QSLBQsAAASLTFphCQsEPBAgAg0fSCQIKFggUAQKItPmYKAQk3DRQsAAASTS0IJFgoWAAAJJtaEMLL8jXNl2qOXz/cermzvhBy6Mz3B9/84EKb9l7DCwULAIBkUwtC8Lyzoa1pYGDocrZADQ1lbn6w+/JJ7b0HDwULAIBkW9wghSDUyFki22MK3ldXu+q0zxAwFCwAABLtV6YQhJjla5ouZTKZHttfisL7W79q1D5LgFCwAABINL0g+E53T3+j7S1FY3Bw6Jr2WQKEggUAQKLpBcFXnn3jZJftLEXnzbUtbdpn8hkKFgAAiaYXBF/ZtP/KMdtXio5801H7TD5DwQIAINF+9YUpBOHk3MVbdbavFB3ZwkH7TD5DwQIAINH0guArUlJsXyk6FCwAABAevSD4CgXrcShYAAAkml4QfIWC9TgULAAAEq3CFIKQUvQFS/lMvrKIggUAQLJpBcFnKFg2FCwAABKu4qgpBeGk9fLtIi5Yt03B0j+X5yw6SsECACDRtILgMxQsGwoWAAAJpxUEn6Fg2VCwAABIOK0g+AwFy4aCBQBAwlUcMaUgnBR/wdI/l+csOkzBAgAg0bSC4DMULBsKFgAACbdICkE4KfqCpXwmf6FgAQCQbGpB8BcK1qNQsAAASLZFh6UQhJLiL1j65/IRChYAAImmFwRfoWA9DgULAIBE0wuCr1CwHoeCBQBAoukFwVcoWI9DwQIAINEWHTKFIJwUf8HSP5ePULAAAEg0vSD4CgXrcShYAAAk2iumEISUoi9YymfyGQoWAACJphcEX6FgPU6jPboAACBx5tc/5bxy0BSCcNJ6+VYRF6xbpmDpn8tH0vYIAwCAxFlQP1kpB75DwfpJFtZPsEcZAAAkysKD76rlwGcoWD9NfYU9ygAAIDGm1z1hClanXg78hYL1s3AfFgAAibOwPuW8Um+KQHgp/oKlfy7fWVj/nD3aAACg5Mn9Qa/UpdVSECAUrOGp63Aq6p+0Rx0AAJSs3KXBukZTsuQMS6hpvVTEBcu8d+0zBc4rdVX2yAMAgJK1oH6lWgRCCAVrlCyon2qPPgAAKDmv1E9SC0BIoWCNkgV1nbk9xwAAQImRS4MLDrQ6C+vMoh9Nir9g6Z8rpFTbkQAAACVjYd27wxb80EPBGicLasvtaAAAgKInO7ZrC37IoWCNlwNpp6L+aTsqAACgaMk2AQsPtOsLfrihYLnIggMNdmQAAEDRWlBXZSI3Wkeeoi9YymeKJgdW2tEBAABFZ17tc/oCH02u37h30PaVohNzwUo78+ufsaMEAACKhmwLsKC2wyzmsqDHkhu3Hhy2faXoXLneZQqW/rkiyfza1tw3OwEAQBGZf2CDurBHmL7+wTbbV4rO/Qe9p7TPFGnmH3jXjhYAACh482vL1AU9wjz7m0NdtqsUpaGhoZva54o++yfbUQMAAAVLLg3Or+3UF/Po8tHui0dtVylaE5fVp7XPFm1q23kgNAAAhW5+bZ1ZtGXhjjXffHen1vaUovXOx+eatM8WfQ7wQGgAAArWvJpyfQGPNhOX1aWHhjI3bE8pWnfu9RzTPl8skW98AgCAArNw7wRn/v60M98s1jFn96H2ot3/arg3/+1Mm/YZI8+8/R08EBoAgEIzv7ZhxKIdS/ani/nbg8PlzmKpnzOGzKvlgdAAABSM+ftTJmaRjj/Hz39XMmevHnl/c3Oj9lnjyb4yO6oAACBv5u97xplfk9YX62jz/O+O3MhkMkW9PYNGtmx49tcHu7TPHH3MWJbv4YHQAADkjewEPm9/3s62dN3tKbmzV4/cuHX/sPaZ40lNnR1hAAAQu3k1q/QFOvrsPnS5ZMvVIzvrLx3VPntMSdlRBgAAsZlbM8mZX2MW4vjzwt8f+aYULw0OJ5cK5TKodgyiz7507vJvIUo1T1ayUsnIvwcAQMGSS4Pza9pHLsrx5EF333HbQUrew28V6sch8syraczLA6GXtTyVK0OVzRVO5YVVTmVLnUm7STbEyM8zP1d+vnkdeT15XQAA8mbuvtVm8ZUFOPYcOfNt0e/Y7lVNw9XD2rGIKavsqEdj5dknnRVNzzkrWt59WHjUMhR36nLvR96XvD8AACJXvn+ysgjHkgW/b/g6k8n02N6RGHI5dN47Dde0YxJ95FLh7vDO7Pz2yhOmwEyxZ44ahxWbAo28z9yZtCm59w8AQKjkocBz93WYRVcW3pizN93TO9BsO0fidKf7GvXjEmX2bgilXOUu+TWlTEFp+HlxKdqYz9FcwSVFAEA45tVU6Qtx9Dn/5c39tmsk1qFT1w5qxyaCNDhzqyfZUfdHzvSkWsqcVHO1UlBKJ/L55HNyZgsA4MvcfVOVhTiWvLb6RGMSLw0OJ8dg+b8cv6Qdo1AiZydlnIN4ePmvyhSP9IgyUsrJfV7zueXzAwDgilwmytOlwYlL9qf7BwZbbcdIPLlMqh2n4Kmpyl0C9kNuBJdtESqbO0YUj0TGHAc5HtwgDwAY09w91c68vWYRjj9fXbm9x3YLWOfabtRpx8pX5u7tcObv9XfW5XGxaukcWTKISSdFCwCgK99Tpi7MMeTd9Y2nbafAT8ilwjf/7VSbdsw8xt9ZK7m5W7YxSNplQL+R4yTHi5viAQA58tDfuXs7TeRMR6yZuLgmPTg49LXtFBimr3+wTY6RduxcpNOUq+fsKLuXanuaYhUgFC0AQM7cvXXDFubY0nHz3gHbJTCKr67c8jM+7Z4fgZP7RmBTimIVUuQ4yvHkm4cAkEBz91YMW5hjyx+3NCXmUThBvfNRY5N2DNWU723wfElQvhWXamkdURJI8Mhx5fmIAJAgc/ZOcOZWp525e8zCHG/+6rUD38tDjm1/wDgGBgYvT1y8z8VYVVd5eq6gXMaqbNk6ohSQKLKBy4YAUOpkES7f06Av0tHnh9sP6m13gEvXb9w9qB3LP6e6wo6uOw93XeebgfHGHO9mb+MEACgi5XtW6ot09Nl98GvKlU/vbz7XqBzTTmfe5+5vZl/RNOHhc/fUAkDiSUPuywQAgBIyf/cz+bo0+PybB28MDWVu2L4AjwYHh649+9qBrj8f0+r23Hi6tbx5qlnci+KsVWXV5ezbG6/+LNXHfsjWnvrxceS/h/+dRWu+Vn9eAabTlF3v3/IEABSg3KXB6lan3CzOeciD7j5ubA/oxo/3D+eO55w9Dc70be5uZn/4zMDVyiKf10xZ1ZYrRZvqOnKF6WrHg+ytrl77SYORnyM/T36u/Hx5HXk97X3kNbKlA980BIAiV75n1U8LT5w5cOwqWzKEZPO+trdc38xeQJcEf/HOl9mq6uvZExc6QytSXsnryuvL+5D3o73P+GPGR8YJAFCEyvdMdsqrTdmJP/P+4fC1TCbTZdc4BGCOY5Ud0fEVwCXBfBeq8fy0cGnvP8Z05sYLAFBE5GzHnM/btfITR9I9/TwOJwSmXG21Izq+ygurlEU8lry+rj1XWnp6B+07Lw7yfuV9y/vXPlc8MeMGACgS5dWrh5eeuHKy6bv9dv1CAKZcVZs/xr8sKPfzVF6o0hfv6DLzD1/lbjrvutf38A0XOfkc8nnkc2mfN9qY8eO+LAAocHN2T9GKTxyp/JeGC/LQYrtmwSfX5Wrl2SedVHO1vmhHE/m2X9uVew/faImSzyefU/v8kUXGkZIFAAVKvmU25/MOp/xzU3jizcRf7Un39g2ct2sUfDLlqs784a5cxXgzu3wrr9SL1XDyeeVza8cjmpjxlHEFABSY8s83DC8+ceXi5R+5NBiQKVeN5o/xF1jZtLKypX3kAh1+pGDI9gdJJp8/xqLVzqakAFBIZu+a6swxZScPeeejU02mHKTtegQfzPFrNX+MX65ea3nGLMKRf1NQNvD8+tr9h28OOXI8YtrYtDM3zgCAPJu/+ylTdDqHF584IpcGBweHvrZrEHww5arT/DH+WYvcmavmDmVBDi0TV7ZmD575Mds/MPTwzeFn5LjI8ZHjpB2/8GLGmTNZAJBns3dVO3N2m8ITf775rqvWrj3wb/xHqCxrecosvJFeFlyz89vs/e5++5YK2OBAtu/IJ9neXe/kMtDwWXbgXG128GpLdujmN9lMf/R7cMlxkuOlHccQ0849WQCQL7N2l2nFJ478cfNZHoUTUCaTedeO5OgivqFddjiP+nLg3YGOXMIgRarn9/9+7GxYkithg5fPZTP3btt/GT45btHuEG/GnW8XAkDMyvc87czZldbKT9R5dkVN19DQ0Dd2nYEPplzV2ZEcnSyuEW7FIDdvR3HWqm+oO/t97/ls0/112Zpbv8zuvvVfc7nRe8H+Df/kbJVaqsZI75+m5c50yRmusMnxi/QmeLZwAICYzdldN7z4xBV5CLFdX+CDKVdyOucpO5Kjq2zZOmLBDSlyL1GYpFRdSR/JHr3zxuNCNTyn771v/7Z/fgrWTxNV2ZLjqR3ncHLB/SOTAAABzNmZcubsMmUn/mypaT1k1xT4YMpV2mSSHcnRpVpW64ttsMglres3w/vS5+2+9tyZKq1QDc/hrkr7r/wLWrB+lg/LswNfnsrd1xUGOa7RXTLksToAEK05OyeYpLXyE3Wef6P2xtDQ0E27nsAHU64q7EiOLtVSpi+ywSKXssJ4ZuBQZjB7LX08W9s5Sy1SY0X+bRChFiyb3vf/OjtwYmc2033Xvop/cnwju2S4omn8L0QAAHyQBznP3tnozDaFJw/pupuut+sIfDDlqtqO5OhWNE1wUs1pdYENkKrq64G3XwhSrB7l/kCwfh5Fwfpp5PJhpifY5qpynOV4a+MQMJ1s3wAAUZi9a+Xw0hNXar64zH1XAcilQfPH2Itj7qb2llZlYQ2UTXXBv8EnN60f7FykliYvCXqje9QFS5I7o9V8KPClQznu2ngETAM3vQNAmGbtmOTM3pF2Zu80hSfevPBG7TemIHTZdQP+pOxIjk5uZtYXVd8JejO7bK9w/M5balnyk8vd8rhF/+IoWI/zYXl28NuL9pX9ieTm9xUt42/vAQBwQS4NztrRqpWfONKd7pPn5MEnU04b7UiOLoL7rhov+u/EcjnwUneNWpKCRG6IDyLWgmXTX/9BoA1MZRy08QkU7scCgBDM3vnu8NITVxoar+2x6wT8G/vZchHcdxWkXMlZK/nGn1aQgka2cQgiHwVLIts7DHZctu/CuwhKFvdjAUAgM3dN1opPHFn+z4cvZTKZHrtGwAdz/Ma/nBPyTu1BLgvKJTytGIWV6tvP2lfyJ18F61EGzuz1fW9WBJcLx9+sFgCgmL7tSWfWjnZn9g5TeOLO9nRPb3+zXRvggylXcnf52DckVzZXKAun72w/fOPhi3s0kOnNnrz7nlqKwk7PkP/tEPJdsCR9m37te0sHGR9t3HxHLi0DADyavbNKLz/Rp/XSTbZkCMgUrCl2JHXyEOcQLw3K1gB+yCXBML4h6DayOalfhVCwJHLJcOjWd/ZdeRPuFg7NHTwUGgC8mLljijPLlJ085Hf/r+EclwaDMcdvqx3J0VW2bBi5YPrLe1u+8bXPlWy/IJfttCIUVWQvLb8KpWBJ0v/8l7mHT3sl4yTjpY2jr8iu/wAAF8p2P+XM2t6hlZ+oM3HRrvTAwKD/u3nxyNg3tle2TBmxUPrMzD985WuHdilXWgGKOm0Pttl34F0hFaxHye2Z5ZGMl4ybNp6+8lrL2PMNAGDM2rFhePGJK5e++XG/XQPg07hnr0LcUHTiylZfzxaUs0ha+Ykjcq+XX4VYsCTyvryScZPx08bVe5rH3woEABJt1rYyrfjEkfc/PcN+V+EYe4+iVPNKfZH0ni/O37Yv6V7U3xQcL/KoHb8KtWBJ/JQsGT9tXP2lefznXAJAIj28NNhpYgpPvPmLRbs6BweHrtnf+/ApM96moiHe2L5m57f2Vd27kj6ilp64I99a9KOQC5ZkoK3BvlP3ZBy18fWRztz8AgAMM2t73fDiE1c6bt49YH/fI5ixz17JY070xdFT/Nx3Jc8B1MpOPiLfXPSj0AuWZPDyOftu3Qn1fiweowMAw8zaXj689MSVj3aeP2p/1yOAOM9eeb3vSgpN3N8WHCvXe07bd+ZNMRQsidctHGQ8tXH2kU4eBg0Aj5Rte9qZuT1tko07f5Xa8/3Q0NBN+3sewcRy9mpTnbezP7Kxp9z3pBWdfEWec+hHsRQseVC01x3fZVy18fYe7sUCgIde3t6glZ84cqvzwRf29zsCiOvs1S/e+dLTpUF5aLM8/08rOfnM2Xt/su/Qm6IpWCZ9Rz6x79odGVcZX23cvaW5g7NYADBja8qZuc2Unfizu/4iu7WHxBSssc8ahHT2yutDnC882KQWnHxHHibtRzEVLMngtxftO3cnvIdCcxYLQJLN2vaMKTrp4cUnjjz/+r4bphR4W62hMsdRboga/dtbcjZBziqoC6H7vL3x6sMXdOmHvq/UclMokbNrXhVbwZJH6mR6Hth3787r69rV8fcWzmIBSKrpa59wXt7aqJWfOPKgu9f/80rwM6Zgjb2xaAgPdJYNKW/ccv/0or6h7oK772p4uge97+E18OUptcgUcvr3/6t99+7IOIezASlnsQAk0axtq7TiE0cOnWw/aH+XIxxj39wewtmr7Ydv2JdyR3ZL10pNIaWr38e2a4MD2d5d76hFppDjdesGGW9tHniKPC0AABJl1meTnJlbTdmJPwv+4cDXGR7kHBpzLOUrfaNfikk1T1YXPw+Rsxn3u/sfvqALhbTf1WipufXL3Fk2vzLdd3OlZaDhs2zPhiVqqSmkyIOhvVwqlPEO5SwWzygEkBhyaXDm1tbhxSeu9PT2N9vf4QiBKVhjb+xYeaFKXfg8xOvZq0L81uCjyGVL2aIhSLnSSOHK3Z9VwGVr4MRO+27dCeUsFhuPAkiMGZ+tdl42ZScPOX+xgwc5h2/0MwS5hzoH35rhVpf7x8oU6o3tcslSzqzFQTb5lPuetJKTz3g9iyX3YmnzwVuaO+xsBIASNnPbZK34xJE3/3ikjUuD4TLHc+y9r5Y3T9UXPffx+rzBQjt7Je/ndl+7fXfxGuq6WXBFq7/+A/vu3AnpOYVT7IwEgBI0fduTzsufdZiYwhNvJi7cnu7rH2izv7MRnpQdXV2quVpZ7DzFyzcHC+nsldxj5fdxOGGTM1qFdOlQip9b4ZzFatlgZyQAlKAZn1Vp5SeOfHXlhzr7+xrhGv3yoOzcri92rvPelm/sy7hTKGevTt97P/R7rILK9PfmdlbXCk/c8bptg8wDbX64jlymXnn2STszAaCEvLxpqlZ84sg7HzQ02d/TCFEmk+m0o6sLYe+r5kt37auNrxDOXsnDpK+kj9h3VJgGOy5ne9//a7X4xBkvZ7FkHmjzw1NSLWV2ZgJAiSjb9JQpOnm7NDg4OPS1/T2NEJmCNc7moi11IxY5D5myqi3bPzBkX218+T57JZcE7w8UxzPD5Ubzvq2/U4tPXPFyFkvmgcwHbZ54yNjzFQCKzozNW52Xt5jCE3+uf9/FhqIRMQWr3I7wSCF8e3B9zXf2lcaX77NXxVSufmrgzF61/MQVL2exZD5o88RDxj7jCgBF5eUtZcNLT1z546ZTPAonWk/bUR4phM1Fr3a4/zp/0/11avGJIwc7F2V7htxfyiw0slmpVn7iiGyS6pbMB22eeAqbjgIoCWXbnnZmbO50ZpjCE3OefXVn19DQUPGdUigSmUym3Y6yLtW8Ul3gXGbmH76yrzQ+eWCy3PuklZ+oU+zl6pGBtga1AHnNrbf/MluzYmn27+e/m3WmfZhdVv6H3H9rf1ciD4L2QuaFNl/ch2cTAigFM7bUDS8+ceWHW/fq7e9kRMAUrCo7yrqA919VH/vBvtL4ZI8prfxEHbksWArl6pHcLvBKCXKTC2+8kP3XilW5UqVFCpf27yRDN91/U1TmhTZfPIT7sAAUubJNFc6MzabsxJ+dBy4ctb+PEZ3Rv5EVwv1XXi4PXniwSS1AUaZY77kaj2wCqpUgLY/OVr00c41aqoan/rUK9efEfJmQ+7AAFLGyLRNM0UkPLz5x5PnfVt/g0mAsRr//akXTc8rC5jrygF+33x6Uy4NSdrQSFGXytTN71OTbhXLZTitCjzLe2arRIpcLtZ+Xu0w4OGDfwdhkXgR+ALTcHwgARWnG5obhxSeu3H/Qc8r+LkZEMplM2o60Th6uqy1sLvP2xqv2lcbX1X9NLUBRpu3BNvvqpWnwasuIEuT1bJWW//TC2hE/91Fkby63ZH5o88Z15P5AACg6MzavHF564krN0a8O29/BiJApWGM/f7CypWHEouYhtad+tK80Pik7WgmKKoe7KnNnzUrdo+cX+j1bpWW0M1gS2WHeLZkf2rzxEO7DAlBkyjY948zYlDYxhSfezPvf+66ZhZ8HOcfAHOexn+tW2dyhLGquc/1m2r7S+Go7Z6lFKKrcHeiwr1y6HnT3ZusPnAp0tkrL56mUWq4ksrO828uEge/DSrW02pkKAEVg+tonnBmftmrlJ450p/sa7e9fRG/0SyzyvDdtUXMZ2a3bLSk7WgmKKsfvvGVfuTRdunozu3bLcbUcBY18i/DBO/9RLVeP4uUyYeBd3QGgaLz06SrnJVN28pBzrdd5kHOMMpnMVDvqIy0/P0ld0FzGy8Odr/ecVotQVJHd4kuNnK06ePzL7MzXd6jFKGjkLNho3x4cHtkmwq3AD39e0TTBzlgAKGBlGydpxSeOLH/vwCUuDcZu9N2w5YG62oLmMtsP37AvMb4477+S5xyWkijPVknkvi25f0srUqPFy7MJZZ5o88d15JuuAFDQ5NLgS5vahxefODJx/tZ0b9/Aefs7F/F5wo7+SJUXVqkLmsucuNBpX2J8cslOK0NRRM6WxamvP5O9fmvgcbp73T/0ejS9ff3Zk+faIz1bJd80lG8cagVqvHjZ1V3miTZ/XCfVlLIzFgAK1EubVg8vPnGl9evv2a09ZplMpsOOvE6+oaUtaC7z9bX79pXGF+f+V31D3fZVo9N1fzBbez6dfXvXvez0D7pG5LUtd7N7GtO5wuXFdzc6s+t3nMpOnL1eLUZB4+ds1WjJ9Pfadz02mSfa/HGdVMtqO2MBoACVfTrFeelTU3bizzsfHG0yi737r5shFOaYV9vR18k3tLQFzWXud/fbVxqbFB6tCEWRqG9ul7NVUqy0UjVaNh69P+ZZrUdnqxa9tVstRUET9GzVaHF7o7vME23+eEiDnbEAUGCmb3vSeWljh1Z+os7E+Z+lBwYG3X/lCKExBWvsZxAGeESOl28Qxvn8wSvpI/ZVw3cvPTTqGavxsnhj14izWVGerZKNQj9Y/HfZy7/7n2o5CiMDzYfsJxlfwG8S8sgcAAXqpU83DC8+ceXKt7e4NJgnYxYseQahvpi5SmWV+858LX1cLUNRJKpnDsolQSlJWnlym7kf38l+dT0d6dmqRat2Zo/+emH2zj/+F7UUhRkvN7rLfNHmkesAQMEp2zjVKTNlJw95/5MT7HeVR6ZgrbKzYKRU29PqQuYyVdXX7auML65vEFbffjaSndvlsuAb2++opclrpv3ph+x/WLhLLUd+I2fA5EyYnBHLvd9Nv1YLUejZsCT3em7IfNHmkesAQEEp2/SUM31jh1Z+os6zS7d3DQ4OXbO/X5Efo28yGrBgra/5zr7E+GTbBK0QhZ2otmfwes/VePlfq6+pRclr5CyYnA2Te7h+auDETr0QRRC3ZL5o88h1ZL4CQMGYvrHaKdtoCk/8ufHjXZ41mGeZTKbCzoSRAm4y6mUPrIOdi9RCFHaieLCz3Jwul/a0ohQkf7G8Ti1N42VKxafZzdVnszd/vGvf4UhDXTez6X8O94Z2LV6eSbiprkOdR65DwQJQMMo+KdOKTxzZVH3+mP29ivwqs7NhpFTzZHUhcxkvD3mOq2BFcYP7wZYetSAFzf/4p8tqgRotb/zf/dmzF77JDgy63GNrcCA7dPObyJK5d9u+kDuBH/r8WsvoG+YCQGzKPnnamb4xrZWfqPP83+66MTQ0FM2dxvBq9IK17NwUU7KyflN78gf7EuOLq2B93xv+PrZ+vzU4Xl6oup39d9PXqWXqUR6drbrd6X6/sUIl80WbRx4y2c5cAMij6RvrtPITR9hQtKCMviilzpcpi5jrNF7ssi8xPrn5XCtEYSfs5w/K5UGtHIWV/7x0v1qsPJ+tKgIyX7R55CEULAB5VrY+5ZR9YspOftLXP+B+gyREbZyC1WQWLn/xUrC0MhRFuvrD/U7Fj3cH1WIUVv7ba0cel6qplZ9ld+xvKomzVZqHBUufS+5i5isA5E3Z+gnO9E/SWvGJKxke5lwwzFhMsjNjpFfPlesLmbs0X7pjX2V8WhkKO3KWbCDj7tEtbl292a8Wo7Dy3//uTPafPjycbbnofsuLYkXBAlC85EHOL25oMAUrm89wBqugjH4Ga9nZMmf5+azfNF50/6BnrRCFFdma4fS990M/eyVudA6oxSisfHHhnn2l0ifzRZtH7nNuqp25ABCzFz9ZqRWeuHP9+86D9ncq8i+ygnWixd23yHqG7qrFyEvk7NTJu+9lLzzYlL3cXZd79E73oLdvsfkhj8bRilFYudzh7lmOpUDmizaPXCd1lnuwAORB2bpJzosb0s70Dabk5DfP/2YH3yIsHGPcg2UWLG0hcxm33yL0UrDk24ZSpC5112Sv95zOnZUK+7KfV69tuauWozAy1gOgS03uW4TKPHIdChaA2D28NNiqlZ185c3369t4wHNBGGMfLClY58zi5S+1J913aClNPy1Sx++8lW26vy53Nkq++Xd3oMP+zcKz81S3Wo6CZvX+0ryZfTQyX7R55DpLmibYmQsAMZm+/l2t5OQ7E+duStccvXhYHvbcne5rJPHnxo93f2lnyUjLzj7jvGoWLp/ZdMDbjdnyEGY5m1Vsovom4ZlL+T0zF7f1+75V55HrpM6ykzuAGJV9MlkrN4Tk8uKG0R+VIwvWq2fN4uUvsmAmxcaj99WS5Ddy2XFwKGN/ejI8LFj6XHKVZSeesjMXACKWuzT4cbszfb1ZTAlR8uL6MR72HKxgrdl+1S6dpa/r/mCozyP88nqf/cnJIfNFm0euAwCxmb6+asSCSsjPs9rOFt2rjWbx8pdFq5O1G4d8408rS15z4stkbhMn80WbR64DALF44aMpzotmASVkzHy8wc4Y3bIznc4ys3j5yMTfnLNLZ3JIyQpyJiup5UrIfNHmkassbeywMxYAIiSXBl9Y36EvqIT8LHV21uiWnmlUFzSXudWVvMIgN72/t8fb1g1yz5XsCp9UMk+0+eM6Sxur7YwFgAi9uK7CefFjs3gSMl7WNdpZo1vWuMFZdsYsYv7SdsX943JKzfn23nGL1tu77mWPtvYk7ob24WSeaPPHdZaeedfOWACIkCya6mJKyLC88HGnnTW6JadT6oLmMl+cc7fZaCmTzULl0qEUqUeRm9jlxng8JPNEmz/uc3r0b8MCQCjK1j6lLqSEjBaZM6NZenKqs9QsYD6zqTY5WzXAP5kn2vxxncVnptgZCwARmbZusrqIEjJapq2bZGfPSMtOPOMsPW0WMX95/YOLdgnNv6HMYG5X+LYH23I7x19JH7H/C/JN5ok2f1yHPbAARO6Fj8qcF9eZhZMQl5E5M5rf1j2hLmguM/HXjdn+gfw9T69vqDv3zMKz9/6UeyD0Tx/HI5GHQiO/ZH7IPNHmj6ssOZ22sxUAIkTBIl7zwser7OzRLT3dPmJR85Cr38X7TD155I6cnTp6540RhWp4DndV5s5sIX9kfmjzxnWWnB77ixoAEArZ/+oFWTQJcZlp67ba2aNbcqraxCxk/lL9xXd2KY3Oo0t/BzsXqUVqrHCpML9kfmjzxkPG3ssNAEIh99Noiygho2XaurE3aVx8aqWyqLlO5b+22qU0PHLp7/ve89mm++vUS39eIv9efh7yQ+aHNm9cZ/FJvkEIIAayyei0dWl1ISVktJStfdrOoJGWnpqsLmwe0tM7YJdT/7oHb2evpY9nj995Sy1KQSI3vXOpMH4yL7T54i2nJ9iZCgARm7auWl1ECRk1Hz1nZ49uyYlOZ8lJs5j5S1t7l11SvZGb0L/s3u3r0p/XyCVGxEvmhTZfPKTdzlAAiMHzH5abBVMWTULcZuydsBef3Kosbq6zfu9Vu6S6c3egI1vbOUstQlFGzpAhPjIvtPniOotPVtkZCgAxyF0m/KhDWUQJGS0NdvboKo5XOItPmAXNX6a8fsbTdg0XHmxSC1AcYeuGeMh8kHmhzRfXqTg2+hYjABCJaR9WKIsoIXqmfZQ2xfxJO3tGqjjxjLrAeUjz17ft0jo+OZOklZ84Ije9yw30iJbMB22eeErFsdHvHQSASDw8i9VoIosnIePnb8a5D2vx8U4Ts7D5y5ptX9uldXxyw3k+LhH+NFwujJbMB22eeAj3XwHIEzkjMe2j9hELKSF6VtuZo1t8YquyyLnOxBUnPX2bMJ9nsR7lUneNfTcIk8wDmQ/aPPEQ7r8CkEdT1z7tTPuw1cQsoISMmbHPCCw+NlVZ5DzlRPMPdokdXyGcxZLIthA9Q3ftu0IYZB5o88NbGnjAM4A8y10uXJtynv8wrSyqhPw5f7N29D2F5LmEvzqWNsn6zdsft9kl1h25F0orPXGn5tYvuS8rRK9XXVDnh/s0dOTmIwAUjGlrJzvPry03i+lKQkbk+bXP2Jmi+1VDlb7guc+NW952TXfzTMG4Ig+NRjAy/tq88JixtxUBAKCoVBybbEqWWeD8Z83Wr+xS6448Z1ArO/nKjd4L9p3BDxl/bV54SsXRsf+PAAAARedXX3Soi56HFPNZLHlkD/x5ePZKnxMe0mpnIgAAJWRxwypTssxC5z9rtn5pl1x3CuUsFpcIg5Fx1+aDtxxJ2ZkIAEAJWfjFBKfCLHQBc+NHb2expNxopSfO3B+4ad8NvJLx1uaB58yvf8rORAAASsyiI41OxVGz4PmP17NYA5neWB76PFqa7q+z7wR+5M5eKfPAUxYdrbMzEACAElRx+Dl1AfSYtvZOu/y6Iw+BlkfZaAUoyshr9g15O+OGP5Nx1sbfe8y8AwCgpFUcaTUxi57/zPz96Wz/wKBdht3Jxw7vX3bvtq8Or2R8ZZy18feURYcb7cwDAKCEvXKowlkkC1+w1B6/bpdi9+K8H4uzV8HI+Grj7jkLOXsFAEiC6XVPOIsOd5iYBdB/Ji4/mu2612OXY3ek8MT1GJ0r6SP2VeGVjKuMrzbunvIKZ68AAEmSO4ulLIges2brRbsku9fVf00tRGFGSpw8ExH+yLhq4+05nL0CACRK7izWoQ4TsxAGS/NXP9pl2T05u6QVo7Ai93vBHxlPbZw955VDYz+EHACAkvRKfYVZBGUhDJQpf9vg+VKhuNxdp5ajoDncVcnZK59kHGU8tXH2HjO/AABIHDmL9crBDhOzGAbL63865/lbhSKKkiW7x8M7GT8ZR218faQ1N78AAEikBfVTlcXRV7bXt9ul2pswt2+QZx/CHxk/bVz9pX6KnWEAACTUwro6Z2F9Noy0tft7oPL3vefVwuQ1nL3yR8ZNG09fWVC31c4sAAASbGH9BFOy0iMWSh+Z8hvvWzc8ErRk8UBnf3L3XZlx08bTe8w84pmDAABYC+pWmcVRFsjAmfmPx7M9vQN2+fZGzkD5faQOD3T2TsZJxksbR385kLIzCgAA5G5IXnCgwxQtucQTOJXvn/Zdsm73tWdrbv1SLVGjhbNX3sn4yDhp4+cvBxq5sR0AgOHm1T5nFklZKEPJe580+fpmoZAd30/fe18tU8MjZ7x6hu7afwk3ZFxkfLRx85/9k+1MAgAAP7PgwNaRC6f/rNlywS7p/sh9WeOdzeKBzt7JuGjjFSBVdgYBAIARKuqfdObXtptkw8r6au+P0/mpsc5m8UBn72Q8tHHynXm17HkFAMC45tZMcubXpJ35+80CGk6Cliyhnc2SjUrh3sNypY+Rv5h5snDvBDtzAADAmObWVOgLqv+8t+G873uyHukevJ09fuetXLmSTUV5JI47uXuuzPHXxiVY9pXZGQMAAFyZW7PVmVeTDTOVq09ke3r77bLvn2zJMJDptf+FscjxluOujUfAcN8VAACeyf1Y82rahy2qgbPo/xzzvRkpvJHjLMdbG4eA4b4rAAB8m1s9yZm3N+3M22cW1fDyizcPZa/fYGuFKMnxleOsHf9gMfNhDvddAQAQTPmeMmeuWVgjyMGT39g6gDDJcdWOdyiZt/c5OzMAAEAgc6tTzty9ZoENP2s2N4VyXxYe3m8lx1M7zqFkzp5yOyMAAEAoyvetUhfdEDLzrSNcMgxIjp8cR+34hpLyPSvtTAAAAKGaW13lzN1jFtzwM3FxTfbgyauBt3JIGjlectzk+GnHNZyYcQcAABGRb46V76k2kTMakWTRu19kv/7mtq0PGIscJzle2nEMMdV29AEAQGSkZM35vMEprzaLb3RZs/l89n43e11p5LjI8dGOW6iRcWY7BgAAYjJ925NxlKyJv5JvGl61tQKPLwea46Idr1CTK1dmnAEAQIxylws/rzYxC3K0+cXrddkvGq8l9v4s+dzy+eU4aMcnglRz5goAgHya83mViZzxiDxSMGqPtSdmWwf5nPJ5c8VKOR4RhRvaAQAoCLM/X+XM2W0W53gypbImVzxK9R4t+Vzy+eRzap8/ssg4AgCAAjJnV4W6aEecNZvPZpu/vFH0lw/l/cvnkM+jfc7oY8YPAAAUoFk7ypzZO9PO7F3ZuDMltS+7aW9r9vr3d2xlKQ7yfuV9y/vXPlf0MeMl4wYAAArYrN3POLN2teqLeTyZuao+V1rkjFChXUaU9yPvS96fvE/t/ccWGScZLwAAUATk6/2zdm5wZu80C3n+s+j3h0yhuWCKzfexF66Hher73OvL+9DeX14i48M2DAAAFKFZ28udWTvSZjGXBb2g8vbaE9mqreeytQ2Xs22Xfwh8aVH+vfwc+Xnyc+Xna6+b/8h4cEkQAIDiNmvbM87M7a1mUZfFvWgycdFuU5KOjxr537V/V9CRcZizc4IdGQAAUNRylwx3bBix4JP4MntnFZuHAgBQimbumJI7izJzu5xNIfFEzh5OsiMAAABKkpxFmbE9ZRb+9LAiQMJNOnecAQBAgpRtesp5eVu1M3ObKQMk3Gzdmju+AAAgoWZ+NsV5eWu7KVtZEjTmOMrxBAAAyHl5S5nz8memaG2VokA8RY6bOX4AAACqh0Wr1USKAxk75jhRrAAAgFtlW55zZnzWaJIlI9KYOz4AAAC+5IrWlmoTUywSn2qKFQAACI98K65sU4UzY3OrUjxKOObzyufmW4EAACBSZVsmOC9vfteUjw4TKSGllo7c55PPCQAAELuyT6c4L21a7bz0aav5M1u8yb3/1bnPAwAAUDBylxE3TjVlpcqUlfafF5iCi3l/5n3K++XyHwAAKBplnzxtUua8tFHOcNWZPzvNn6bcxJ3c68rrr869H3lfAAAAJWP62idMwZn8sOh8utKUnmpTflp/Xoj8ZmNj7ufJz31YpCbnXg8AAADG9G1P2iKmR/53AAAAAAAAAAAAAAAAAAAAAAAAAAAAAAAAAAAAAEDCOM7/B3LypwlH1WzOAAAAAElFTkSuQmCC;" vertex="1" parent="1">
                    <mxGeometry x="772.38" y="-1110" width="95.24" height="50" as="geometry"/>
                </mxCell>
                <mxCell id="473" value="Text" style="text;html=1;strokeColor=none;fillColor=none;align=center;verticalAlign=middle;whiteSpace=wrap;rounded=0;dashed=1;strokeWidth=2;" vertex="1" parent="1">
                    <mxGeometry x="450" y="-560" width="60" height="30" as="geometry"/>
                </mxCell>
                <mxCell id="474" value="StatefulSet und Headless Service fügen jedem Pot einen eindeutigen DNS Namen hinzu" style="text;html=1;strokeColor=none;fillColor=none;align=center;verticalAlign=middle;whiteSpace=wrap;rounded=0;dashed=1;strokeWidth=2;" vertex="1" parent="1">
                    <mxGeometry x="180" y="-840" width="120" height="30" as="geometry"/>
                </mxCell>
            </root>
        </mxGraphModel>
    </diagram>
</mxfile>